<?xml version="1.0" standalone="no"?>
<!DOCTYPE svg PUBLIC "-//W3C//DTD SVG 1.1//EN" "http://www.w3.org/Graphics/SVG/1.1/DTD/svg11.dtd" >
<svg xmlns="http://www.w3.org/2000/svg">
<metadata></metadata>
<defs>
<font id="jansontext55romanroman" horiz-adv-x="1062" >
<font-face units-per-em="2048" ascent="1638" descent="-410" />
<missing-glyph horiz-adv-x="530" />
<glyph horiz-adv-x="2048" />
<glyph horiz-adv-x="2048" />
<glyph unicode="&#xd;" horiz-adv-x="2048" />
<glyph unicode=" "  horiz-adv-x="530" />
<glyph unicode="&#x09;" horiz-adv-x="530" />
<glyph unicode="&#xa0;" horiz-adv-x="530" />
<glyph unicode="!" horiz-adv-x="606" d="M188 98q0 -51 36 -82.5t79 -31.5t79 31.5t36 82.5t-36 83t-79 32t-79 -32t-36 -83zM203 1413q0 -27 10 -84q6 -37 8 -57q10 -88 18.5 -186.5t15.5 -202t11 -188.5t4 -140q0 -35 8.5 -46t24.5 -11t24.5 11t8.5 46q0 57 5 145t13 175.5t18.5 195t20.5 201.5q2 20 8 57 q10 57 11 84q0 31 -27 39t-82 8q-49 0 -74.5 -8t-25.5 -39z" />
<glyph unicode="&#x22;" horiz-adv-x="909" d="M180 1393q0 -25 8.5 -76t26.5 -139q25 -133 33 -189h43q8 55 33 189q16 84 25 137t9 78q0 33 -26.5 60.5t-63.5 27.5q-35 0 -61.5 -28t-26.5 -60zM551 1393q0 -25 8 -76t27 -139q25 -133 32 -189h44q8 55 32 189q16 84 25.5 137t9.5 78q0 33 -26.5 60.5t-63.5 27.5 q-35 0 -61.5 -28t-26.5 -60z" />
<glyph unicode="#" d="M10 449h215l-69 -449h153l70 449h242l-68 -449h154l67 449h221v133h-200l41 266h217v133h-197l66 432h-154l-66 -432h-241l65 432h-153l-66 -432h-239v-133h219l-41 -266h-236v-133zM399 582l41 266h242l-41 -266h-242z" />
<glyph unicode="$" d="M80 336q0 -2 2 -21q6 -51 12 -114.5t15 -175.5q2 -14 5 -18.5t13 -6.5q84 -12 170 -20.5t180 -8.5v-8q-2 -84 -2 -100q0 -10 9.5 -13.5t27.5 -3.5q23 0 30 4.5t7 18.5v102q199 16 316.5 122t117.5 304q0 82 -27.5 144.5t-77 109.5t-103.5 80t-148 84q-55 29 -78 41v569 q70 -2 123 -27.5t92 -69.5t65.5 -98t51.5 -120q4 -12 34 -12q20 0 21 20q0 4 -4 31q-12 80 -19.5 152.5t-7.5 150.5q0 27 -18 27q-8 0 -23 -17q-20 -20 -33 -20q-16 0 -65 10q-57 12 -105.5 19.5t-109.5 7.5q0 43 2 77q2 16 2 23q0 18 -43 18q-18 0 -26.5 -5t-8.5 -27v-92 q-182 -23 -276.5 -137.5t-94.5 -272.5q0 -78 25 -136.5t72 -103.5t108.5 -81.5t165.5 -94.5v-622q-135 8 -215 91t-119 214q-6 27 -22 26q-41 0 -41 -20zM272 1165q0 98 58.5 166t146.5 86v-522q-84 39 -144.5 107.5t-60.5 162.5zM549 25v581q80 -43 128 -80t72.5 -71.5 t31.5 -67.5t7 -80q0 -119 -61 -194.5t-178 -87.5z" />
<glyph unicode="%" horiz-adv-x="1933" d="M168 1094q0 -150 97.5 -246t240.5 -96t242.5 96t99.5 246t-99.5 246t-242.5 96t-240.5 -96.5t-97.5 -245.5zM305 1094q0 47 10.5 97t34 94t63.5 70.5t95 26.5t95 -27.5t63.5 -70.5t34 -93t10.5 -97t-10.5 -97.5t-34 -93.5t-63.5 -70.5t-95 -27.5t-95 27.5t-62.5 70.5 t-34 93.5t-11.5 97.5zM434 0h113l880 1413h-112zM1022 330q0 -150 97.5 -246t240.5 -96t242.5 96t99.5 246t-99.5 246t-242.5 96t-240.5 -96.5t-97.5 -245.5zM1159 330q0 47 10.5 97t34 94t63.5 70.5t95 26.5t95 -27.5t63.5 -70.5t34 -93t10.5 -97t-10.5 -97.5t-34 -93.5 t-63.5 -70.5t-95 -27.5t-95 27.5t-62.5 70.5t-34 93.5t-11.5 97.5z" />
<glyph unicode="&#x26;" horiz-adv-x="1705" d="M129 336q0 -158 102.5 -258.5t260.5 -100.5q150 0 268.5 74t212.5 207q23 -29 61 -84q70 -102 129.5 -150.5t167.5 -48.5q70 0 145.5 29t104.5 53l4 4q8 8 8 11q0 8 -8 20t-12 12t-21 -8q-31 -14 -59.5 -22t-69.5 -8q-80 0 -136 57t-126 168q-53 84 -80 115q43 61 82 120 q96 141 137 194.5t78 70.5q27 12 70 21t55 9q25 0 50.5 5t25.5 18q0 25 -5 32t-24 7q-4 0 -16 -2q-31 -2 -79 -5.5t-146 -3.5q-141 0 -205 3.5t-96 7.5h-13q-18 0 -23 -8.5t-5 -22.5q0 -12 9 -20.5t46 -10.5q111 -8 147.5 -26.5t36.5 -67.5q0 -39 -33.5 -96.5t-89.5 -132.5 q-25 -35 -32 -47q-84 111 -279 311q-70 72 -104 108q51 25 96 52.5t85 63.5t64.5 81t24.5 94q0 125 -83 188.5t-208 63.5q-63 0 -120.5 -23.5t-102.5 -66.5q-92 -90 -92 -221q0 -76 39 -139.5t110 -143.5q-68 -43 -128 -94t-111.5 -112.5t-82 -132t-30.5 -144.5zM295 422 q0 117 57.5 201.5t163.5 156.5q37 -39 109 -116q111 -115 181.5 -195t129.5 -166q-63 -98 -137 -154.5t-174 -56.5q-66 0 -125.5 26.5t-105.5 73t-72.5 105.5t-26.5 125zM465 1182q0 72 52 121t126 49q18 0 47 -6.5t61.5 -26t55 -58t22.5 -102.5q0 -80 -53 -138.5 t-145 -113.5l-8 8q-70 78 -114 142.5t-44 124.5z" />
<glyph unicode="'" horiz-adv-x="530" d="M176 1393q0 -25 8.5 -76t26.5 -139q25 -133 33 -189h43q8 55 32 189q16 84 25.5 137t9.5 78q0 33 -26.5 60.5t-63.5 27.5q-35 0 -61.5 -28t-26.5 -60z" />
<glyph unicode="(" horiz-adv-x="645" d="M92 528q0 -168 50.5 -318.5t118 -260t120.5 -170t80 -84.5q29 -27 71 -66q61 -59 74 -59q35 0 35 33q0 2 -20 22q-51 51 -104.5 116.5t-114 177.5t-102.5 266.5t-42 342.5t42 344t101.5 265.5t113.5 176t106 118.5q20 20 20 22q0 33 -35 33q-12 0 -74 -60 q-43 -39 -71 -65q-23 -18 -78 -81.5t-122.5 -173.5t-118 -260.5t-50.5 -318.5z" />
<glyph unicode=")" horiz-adv-x="645" d="M4 -397q0 -33 35 -33q12 0 74 59q43 39 71 66q23 18 78 81.5t123 173t118 260t50 318.5t-49 318.5t-118 260.5t-122 170t-80 85q-29 27 -71 65q-61 59 -74 60q-35 0 -35 -33q0 -2 21 -22q51 -51 104 -117t113.5 -177.5t102.5 -266.5t42 -343t-42 -343.5t-101.5 -265 t-113.5 -176.5t-105 -118q-20 -20 -21 -22z" />
<glyph unicode="*" horiz-adv-x="796" d="M63 1249q0 -33 28 -57.5t73 -38.5t91 -20.5t81 -6.5h14h10l5 -4v4q-14 -10 -46 -28q-82 -53 -128 -98.5t-46 -104.5q0 -53 52 -53q31 0 59.5 22.5t50 58t37.5 71.5t35 79q6 18 10 27h4q2 -33 13.5 -80t32 -91t51 -74t65.5 -30q23 0 35 16.5t12 39.5q0 59 -40 105 t-111 101q-31 23 -33 25l4 4q12 0 41 -2q66 -4 94 -4q23 0 53.5 6t59 18.5t47 32t18.5 43.5q0 29 -32.5 41.5t-67.5 12.5q-45 0 -105.5 -36t-109.5 -77l-4 4q2 6 16 41q23 57 36 97t13 73q0 43 -13 79t-50 36t-56.5 -47.5t-19.5 -92.5q0 -49 27 -137q8 -35 12 -49l-4 -4 l-12 12q-63 63 -116.5 99t-115.5 36q-29 0 -49.5 -12t-20.5 -37z" />
<glyph unicode="+" d="M90 375h375v-375h133v375h375v133h-375v375h-133v-375h-375v-133z" />
<glyph unicode="," horiz-adv-x="530" d="M115 -350q0 -25 20 -27q27 0 70 29t67 53q133 133 134 318q0 84 -42 144t-124 60q-49 0 -86 -34.5t-37 -83.5t24.5 -85t77.5 -36q12 0 29 6q12 4 22 4q16 0 20.5 -20.5t4.5 -45.5q0 -47 -28.5 -108.5t-63.5 -91.5q-2 -2 -21 -19q-33 -27 -50 -42t-17 -21z" />
<glyph unicode="-" horiz-adv-x="796" d="M94 471q0 -35 4 -50t23 -15h551q23 0 26.5 10t3.5 47q0 47 -4 61.5t-22 14.5h-557q-16 0 -20.5 -18.5t-4.5 -49.5z" />
<glyph unicode="." horiz-adv-x="530" d="M141 109q0 -53 36 -89t89 -36q55 0 90 36t35 89t-34.5 88.5t-90.5 35.5q-53 0 -89 -35.5t-36 -88.5z" />
<glyph unicode="/" horiz-adv-x="757" d="M-14 0h143l643 1452h-143z" />
<glyph unicode="0" d="M80 709q0 -123 23.5 -250t75.5 -234.5t140 -175t211 -67.5t211 66.5t140.5 176t76 235.5t23.5 249t-23.5 249.5t-76 234t-140.5 175.5t-211 68t-211 -66.5t-140 -176.5t-75.5 -236t-23.5 -248zM266 709q0 84 7.5 186t33 216t80.5 192.5t143 78.5t143.5 -78.5t81 -192.5 t33 -216t7.5 -186t-7.5 -186.5t-33 -216t-81 -192.5t-143.5 -79t-143 79t-80.5 192.5t-33 216t-7.5 186.5z" />
<glyph unicode="1" d="M244 20q0 -10 6 -17t20 -7h43q92 4 201 4q152 0 268 -4h19q16 0 16 24q0 37 -16 37q-72 0 -104.5 4.5t-49 19.5t-21.5 48t-5 100v795q0 80 3 158t5 149q4 78 4 90q0 10 -4 12.5t-29 2.5q-12 0 -27 -17l-8 -8q-59 -55 -133 -85t-172 -48q-16 -4 -16 -23q0 -12 6 -21t18 -9 q68 0 100.5 -4t48 -15.5t20.5 -33t5 -64.5v-811q0 -92 -3 -134t-14 -65.5t-37 -32t-79 -8.5q-43 0 -54 -7t-11 -30z" />
<glyph unicode="2" d="M63 0h711q37 94 72 172q16 39 16 45q0 8 -9 14.5t-15 6.5q-8 0 -25 -21q-16 -25 -33.5 -38t-46.5 -13h-497q74 96 223 274q197 231 291 377t94 281q0 154 -90 246t-246 92q-94 0 -172 -34t-152 -102q-39 -37 -49 -51t-10 -22q0 -6 13.5 -17.5t17.5 -11.5t24 16 q43 37 94.5 63t128.5 26q37 0 78 -11.5t80 -41t63.5 -83t24.5 -131.5q0 -98 -16.5 -169.5t-69.5 -165t-161.5 -238t-315.5 -402.5q-16 -20 -19.5 -29t-3.5 -32z" />
<glyph unicode="3" d="M143 41q0 -35 44 -57.5t89 -22.5q90 0 187.5 42t179.5 116t131 165t49 183q0 135 -88 239.5t-223 137.5q63 43 102 73.5t74 70.5t55.5 89t20.5 109q0 27 -12.5 67.5t-43 82.5t-88 71t-139.5 29q-61 0 -122.5 -19.5t-107.5 -47.5t-77 -54.5t-31 -34.5t5.5 -19.5 t13.5 -11.5q10 0 37 21q39 27 76.5 43t93.5 16q104 0 166.5 -55t62.5 -160q0 -57 -25.5 -111.5t-68.5 -100.5t-93.5 -81t-105.5 -59q-8 -6 -8 -21q0 -20 14 -20q147 -12 240.5 -102.5t93.5 -229.5q0 -70 -19.5 -131t-52 -106.5t-73.5 -71t-82 -25.5q-29 0 -51.5 8.5 t-49.5 24.5q-27 14 -46 22.5t-46 8.5q-31 0 -56.5 -22.5t-25.5 -55.5z" />
<glyph unicode="4" d="M33 541q0 -37 3 -45.5t17 -8.5h570v-497q0 -27 16 -27h125q25 0 24 47v477h240q12 0 12 21v94q0 16 -3 20.5t-19 4.5h-230v594q0 33 3 110q2 53 2 84q0 14 -14.5 17.5t-37.5 3.5q-20 0 -37.5 -1t-23.5 -5q-39 -31 -145.5 -153t-224 -276.5t-197.5 -282.5t-80 -177z M147 651q0 25 53.5 107t135.5 189.5t160.5 202.5t126.5 142v-665h-443q-10 0 -21.5 6t-11.5 18z" />
<glyph unicode="5" d="M139 41q0 -41 47 -60.5t95 -19.5q86 0 177 40t169 113.5t126 176t48 221.5q-2 109 -39 185.5t-97.5 128t-132 84t-190.5 77.5l-23 8q25 94 38.5 144.5t23.5 74t18.5 28.5t24.5 5t72 -2q111 -6 198 -6q33 0 65 3t79 11q18 66 29.5 105t21.5 72q6 23 6 24q0 18 -16 19 q-16 0 -31 -27q-4 -6 -6 -8q-18 -20 -40 -26.5t-79 -6.5t-182 6q-92 4 -125 4q-35 0 -39 -14q-27 -88 -49.5 -167t-47 -167t-39 -145.5t-14.5 -63.5q0 -20 11 -27q45 -23 127 -59q78 -33 122.5 -57.5t82.5 -62.5t59.5 -95t21.5 -139q0 -53 -15 -115.5t-46 -119t-78 -92.5 t-104 -36q-37 0 -97 33q-53 29 -82 29q-37 0 -63.5 -20.5t-26.5 -55.5z" />
<glyph unicode="6" d="M86 467q0 -164 58.5 -266.5t137 -148.5t140 -58t90.5 -12q205 0 335 121.5t130 324.5q0 201 -117 327t-313 126q-27 0 -85.5 -14.5t-84.5 -32.5l-4 4q61 123 135 218t146.5 160.5t133 104.5t103.5 55q25 10 32 17.5t7 19.5q0 6 -7.5 18.5t-13.5 12.5q-4 0 -33.5 -9.5 t-68.5 -23.5t-84 -34.5t-78 -41.5q-172 -104 -284.5 -224t-172 -235.5t-81 -217t-21.5 -191.5zM264 416q0 76 11.5 146.5t41 131t84 97t134.5 36.5q76 0 126 -41t76.5 -106.5t35.5 -136t9 -144.5q0 -68 -12 -131t-40 -116.5t-78 -85t-122 -31.5q-76 0 -129 32.5t-82.5 87 t-42 121t-12.5 140.5z" />
<glyph unicode="7" d="M117 1118q0 -6 11 -10t17 -4q12 0 21.5 12t21.5 37q18 41 38 62.5t53 21.5h516q-31 -94 -78 -214t-93 -229.5t-80 -189.5t-116 -266q-80 -182 -113.5 -263t-33.5 -98q0 -6 42 -20t50 -14q12 0 16 10q27 66 57.5 147.5t100.5 268.5q74 203 168 454.5t200 534.5q0 4 7 14 q6 20 6 25q0 8 -3 12t-18 4h-604q-12 0 -17 9.5t-12 29.5q-4 18 -9 26.5t-15 8.5q-20 0 -23 -8q-16 -51 -51 -158q-33 -100 -46 -145.5t-13 -57.5z" />
<glyph unicode="8" d="M121 332q0 -78 30.5 -143.5t85 -111.5t125 -70.5t146.5 -24.5q88 0 167 30.5t139 87t94 134t34 169.5q0 127 -80 212t-213 151q133 53 206 132t73 208q0 160 -115 245t-278 85q-176 0 -292 -108.5t-116 -285.5q0 -121 72.5 -207.5t193.5 -142.5q-115 -59 -193.5 -152.5 t-78.5 -207.5zM260 1130q0 111 80 181.5t192 70.5q121 0 192 -80.5t71 -203.5q0 -102 -51.5 -174t-149.5 -129q-35 18 -37 18q-70 37 -115 63.5t-88 63.5t-68.5 85t-25.5 105zM279 330q0 115 37.5 192.5t129.5 143.5l29 -15q78 -39 126 -67.5t91 -68.5t67.5 -94t24.5 -126 q0 -109 -73.5 -184.5t-182.5 -75.5q-117 0 -183 87t-66 208z" />
<glyph unicode="9" d="M80 973q0 -96 29.5 -179t84 -144.5t128 -95.5t157.5 -34q63 0 124 18.5t108 51.5h4q-35 -109 -93.5 -205t-122 -167t-109.5 -111.5t-95 -79.5q-8 -6 -19 -15q-20 -14 -20 -22t6 -19.5t12 -11.5q8 0 51.5 22.5t102.5 67.5q104 78 190.5 151.5t170 180t138 246t54.5 303.5 q0 96 -28.5 187t-86 163t-142.5 114t-196 42q-96 0 -178 -36t-143.5 -100.5t-94 -148.5t-32.5 -178zM274 977q0 68 11.5 137.5t40 131t79.5 99t125 37.5q76 0 129.5 -35.5t85 -96t45 -129t13.5 -140.5t-13.5 -141.5t-44 -130t-85 -98.5t-130.5 -38t-126 37t-78.5 97.5 t-40 129t-11.5 140.5z" />
<glyph unicode=":" horiz-adv-x="530" d="M152 104q0 -51 32.5 -85.5t81.5 -34.5q51 0 83 38.5t32 90.5q0 49 -31 81.5t-80 32.5q-53 0 -85.5 -34.5t-32.5 -88.5zM152 711q0 -51 32.5 -86t81.5 -35q51 0 83 39t32 90q0 49 -31 82t-80 33q-53 0 -85.5 -35t-32.5 -88z" />
<glyph unicode=";" horiz-adv-x="530" d="M115 -350q0 -25 20 -27q27 0 70 29t67 53q133 133 134 318q0 84 -42 144t-124 60q-49 0 -86 -34.5t-37 -83.5t24.5 -85t77.5 -36q12 0 29 6q12 4 22 4q16 0 20.5 -20.5t4.5 -45.5q0 -47 -28.5 -108.5t-63.5 -91.5q-2 -2 -21 -19q-33 -27 -50 -42t-17 -21zM133 711 q0 -51 33 -86t82 -35q51 0 82.5 39t31.5 90q0 49 -30.5 82t-79.5 33q-53 0 -86 -35t-33 -88z" />
<glyph unicode="&#x3c;" d="M90 385l883 -408v134l-715 331l715 332v131l-883 -407v-113z" />
<glyph unicode="=" d="M90 211h883v133h-883v-133zM90 553h883v133h-883v-133z" />
<glyph unicode="&#x3e;" d="M90 -23l883 408v113l-883 407v-133l715 -332l-715 -331v-132z" />
<glyph unicode="?" horiz-adv-x="872" d="M145 1444q0 -129 11.5 -170t46.5 -41q14 0 61 -2t101.5 -6t98.5 -10.5t50 -16.5l10 -10q41 -41 74 -103.5t33 -169.5q0 -84 -33 -123.5t-137 -39.5h-164q-35 0 -44 -4.5t-9 -22.5v-334q0 -6 6 -13t22 -7q29 0 29 16q0 90 8 131t31 53q14 8 98 15q92 10 131 18 q8 2 26.5 18.5t40 48t37 82t15.5 117.5q0 25 -4 70t-14.5 105.5t-33 125t-54.5 115.5q-27 43 -58.5 66.5t-70.5 34t-87.5 12.5t-136.5 2q-10 0 -16 9t-12 26q-10 29 -21 28q-35 0 -35 -20zM178 98q0 -51 36 -82.5t79 -31.5t79 31.5t36 82.5t-36 83t-79 32t-79 -32t-36 -83z " />
<glyph unicode="@" horiz-adv-x="1638" d="M88 725q0 -154 58.5 -291t164 -241.5t246.5 -163t301 -58.5q219 0 403.5 111t286.5 297h-149q-31 -61 -86.5 -116.5t-128 -96.5t-156.5 -64.5t-170 -23.5q-131 0 -247.5 51t-205 140t-136.5 208t-48 248q0 131 48 249t136.5 209t205 141t247.5 50q260 0 404.5 -133 t144.5 -362q0 -104 -26.5 -195.5t-71.5 -158t-96.5 -102.5t-98.5 -36q-29 0 -42 24.5t-13 59.5q0 4 2 10v8l149 598h-188l-31 -131h-4q-10 70 -53 110t-111 40q-84 0 -160.5 -41t-136 -109.5t-92.5 -154.5t-33 -172q0 -119 72 -213t193 -94q76 0 125 39.5t106 127.5h4 q4 -82 41 -124.5t148 -42.5q94 0 177 47t144.5 128t95 183t33.5 209q0 285 -188.5 438.5t-493.5 153.5q-160 0 -301 -58.5t-246.5 -163t-164 -241.5t-58.5 -293zM604 555q0 55 17.5 137t49 162t78 133t99.5 53t76.5 -41t23.5 -108v-25q-2 -20 -2 -26q-4 -47 -22.5 -123 t-49 -152t-75 -127t-97.5 -51q-33 0 -53 15.5t-29.5 40t-12.5 52t-3 60.5z" />
<glyph unicode="A" horiz-adv-x="1366" d="M-25 31q0 -35 15 -35h16q53 4 146 4q190 0 274 -4h12q25 0 25 33q0 16 -22.5 22t-108.5 6q-70 0 -88.5 21.5t-18.5 52.5q0 29 27 113t86 241q12 31 24.5 37t59.5 6h422q8 -20 35 -88q33 -82 49 -124t32.5 -84t27.5 -78.5t11 -51.5q0 -27 -23.5 -36t-84.5 -9 q-39 0 -62.5 -5t-23.5 -19q0 -37 10 -37h10q68 4 295 4q188 0 269 -4h16q12 0 17 12t5 27q0 10 -21.5 16t-39.5 6q-61 0 -96 21.5t-60 77.5q-39 92 -98 240.5t-120.5 309t-101.5 267t-134 362.5q-41 109 -45 121q-6 16 -12.5 20.5t-22.5 4.5q-20 0 -27.5 -3t-11.5 -16 q-135 -340 -253 -659.5t-228 -640.5q-18 -55 -45 -80t-60 -25q-76 0 -76 -26zM387 618q0 10 29.5 98.5t70.5 204t73 195.5t36 80h4l217 -600h-352q-51 0 -64.5 3t-13.5 19z" />
<glyph unicode="B" horiz-adv-x="1327" d="M70 1434q0 -18 4 -26.5t18 -8.5q113 0 147.5 -24.5t36.5 -112.5q0 -25 3 -52q2 -115 2 -237v-502q0 -66 -2.5 -161t-4.5 -163q-2 -47 -28.5 -68.5t-116.5 -21.5q-39 0 -48 -7t-9 -27q0 -27 16 -27h8q66 4 316 4q145 0 284 -4h64q115 0 201 32.5t140 88t79.5 122 t25.5 134.5q0 158 -100 253t-272 130l-17 4q-23 4 -22 10q0 6 36 18q70 23 130 50q80 37 134 113.5t54 168.5q0 102 -43 170t-114.5 105t-156.5 51t-184 14q-53 0 -170 -4q-72 -4 -100 -4q-66 0 -132.5 2t-123.5 4q-35 2 -37 2q-18 0 -18 -26zM483 174v559h142 q158 0 259 -88t101 -260q0 -162 -100.5 -245t-270.5 -83q-86 0 -108.5 23.5t-22.5 93.5zM483 795v436q0 68 4.5 99.5t16.5 46t35.5 18.5t81.5 4q102 0 165.5 -36t94 -88t39 -99.5t8.5 -83.5q0 -137 -74 -217t-211 -80h-160z" />
<glyph unicode="C" horiz-adv-x="1554" d="M94 684q0 -111 43 -234.5t135.5 -232t238.5 -177.5t341 -69q193 0 325 22.5t238 55.5q29 8 29 37q0 14 5 59t13 107q4 47 7.5 71.5t3.5 32.5q0 16 -6.5 20.5t-16.5 4.5q-27 0 -33 -16q-41 -90 -98 -157t-121.5 -107t-129 -58t-126.5 -18q-109 0 -216.5 42t-195.5 125.5 t-140 209.5t-52 290q0 176 50 315.5t134 232.5t184.5 139t198.5 46q190 0 301 -87t180 -265q6 -16 23 -16q12 0 25.5 7t13.5 19q0 6 -6 45q-14 88 -23.5 156t-9.5 127q0 12 -5 18.5t-9 6.5q-14 0 -35 -17q-25 -18 -45 -18q-16 0 -55 16q-70 27 -158 44.5t-250 17.5 q-147 0 -283.5 -55.5t-244 -159t-169 -252t-61.5 -328.5z" />
<glyph unicode="D" horiz-adv-x="1705" d="M70 1434q0 -18 4 -26.5t18 -8.5q113 0 147.5 -24.5t36.5 -112.5q0 -25 3 -52q2 -115 2 -237v-502q0 -66 -2.5 -161t-4.5 -163q-4 -90 -145 -90q-39 0 -48 -7t-9 -27q0 -27 16 -27h8q66 4 316 4q170 0 311 -4h63q174 0 326 62.5t250 152.5q106 100 163.5 241.5t57.5 309.5 q0 158 -68.5 314.5t-203.5 246.5q-66 43 -130.5 70.5t-137 42t-159.5 19.5t-212 5q-23 0 -97 -4q-104 -4 -163 -4q-66 0 -140.5 2t-140.5 4q-41 2 -43 2q-18 0 -18 -26zM483 154v1091q0 63 4.5 90t21.5 41.5t56 18.5t121 4q113 0 209 -19.5t176 -70.5q45 -29 90 -75 t85 -114.5t65.5 -163t27.5 -208.5q0 -162 -51 -292t-143 -219.5t-212 -134.5t-257 -45q-100 0 -146.5 21.5t-46.5 75.5z" />
<glyph unicode="E" horiz-adv-x="1402" d="M53 1434q0 -18 4 -26.5t19 -8.5q125 0 161.5 -24.5t38.5 -112.5q0 -25 3 -52q2 -115 2 -237v-502q0 -66 -2.5 -161t-4.5 -163q-2 -49 -33.5 -69.5t-142.5 -20.5q-29 0 -36 -7t-7 -27q0 -27 17 -27h8q66 4 315 4h846q8 0 27.5 43t41 99.5t41 110.5t19.5 58q0 14 -33 15 q-14 0 -26 -13q-8 -10 -33 -45q-31 -45 -53.5 -74.5t-49 -60.5t-54 -51.5t-50.5 -20.5h-487q-57 0 -79 24t-22 83v528h150q84 0 127 -6t69.5 -27.5t42 -66.5t27.5 -133q4 -23 31 -23q12 0 19 3t7 14q0 18 -4 71q-6 100 -6 172v308q0 14 -39 14q-12 0 -20 -23.5t-25 -128.5 q-2 -16 -10 -31.5t-32.5 -35t-73 -32.5t-125.5 -13h-138v471q0 88 12.5 121.5t47.5 35.5q119 6 172 8.5t82.5 3.5t52.5 1q88 0 141 -47q61 -51 101.5 -91t74.5 -77q39 -43 54 -43q31 0 30 14q0 4 -14 49q-41 121 -76 240q-4 16 -78 16q-78 0 -266 -4q-326 -4 -422 -4 q-66 0 -140.5 2t-139.5 4q-41 2 -43 2q-18 0 -19 -26z" />
<glyph unicode="F" horiz-adv-x="1251" d="M53 1434q0 -18 4 -26.5t19 -8.5q125 0 161.5 -24.5t38.5 -112.5q0 -25 3 -52q2 -115 2 -237v-502q0 -66 -2.5 -161t-4.5 -163q-2 -49 -33.5 -69.5t-142.5 -20.5q-29 0 -36 -7t-7 -27q0 -27 17 -27h8q63 4 301 4q252 0 317 -4h9q27 0 31.5 5t4.5 22q0 20 -12 27t-65 7 q-111 0 -142.5 20.5t-34.5 69.5q-2 68 -4 163.5t-2 160.5v213h150q84 0 127 -6t69.5 -27.5t42 -66.5t27.5 -133q4 -23 31 -23q12 0 19 3t7 13q0 18 -4 72q-6 100 -6 172v307q0 14 -39 15q-12 0 -20 -23.5t-25 -128.5q-2 -16 -10 -31.5t-32.5 -35t-73 -33t-125.5 -13.5h-138 v484q0 88 12.5 121.5t47.5 35.5q119 6 172 8.5t82.5 3.5t52.5 1q88 0 141 -47q61 -51 101.5 -91t74.5 -77q39 -43 54 -43q30 0 30 13q0 5 -14 50q-41 121 -76 240q-4 16 -78 16q-78 0 -266 -4q-326 -4 -422 -4q-66 0 -140.5 2t-139.5 4q-41 2 -43 2q-18 0 -19 -26z" />
<glyph unicode="G" horiz-adv-x="1705" d="M94 684q0 -111 43 -234.5t135.5 -232t238.5 -177.5t341 -69q203 0 376 20.5t277 57.5q23 8 29 14.5t6 18.5q0 10 -20 27q-16 12 -26.5 26.5t-10.5 36.5v281q0 49 31.5 70.5t144.5 21.5q31 0 37 7t6 28q0 27 -16 26h-9q-63 -4 -301 -4q-254 0 -360 4h-12q-27 0 -32 -5 t-5 -21q0 -20 19.5 -27.5t105.5 -7.5q117 0 152.5 -13.5t35.5 -48.5v-311q0 -88 -83 -117.5t-255 -29.5q-109 0 -216.5 42t-195.5 125.5t-140 209.5t-52 290q0 176 50 315.5t134 232.5t184.5 139t198.5 46q215 0 351.5 -81.5t179.5 -213.5q18 -63 36.5 -105t24.5 -42 q16 0 29.5 5t13.5 16q0 12 -2 28q-4 39 -6 89t-2 159q0 66 -2 78t-12 12q-8 0 -33 -20q-25 -18 -31 -19q-6 0 -17.5 5t-17.5 10q-102 72 -234 102.5t-331 30.5q-147 0 -283.5 -55.5t-244 -159t-169 -252t-61.5 -328.5z" />
<glyph unicode="H" horiz-adv-x="1781" d="M39 1434q0 -18 4 -26.5t18 -8.5q135 0 174 -23.5t41 -113.5q0 -25 3 -52q2 -115 2 -237v-502q0 -66 -2.5 -161t-4.5 -163q-2 -49 -33.5 -69.5t-142.5 -20.5q-39 0 -48 -7t-9 -27q0 -27 16 -27h9q66 4 315 4q252 0 317 -4h9q16 0 16 27q0 20 -9 27t-48 7 q-111 0 -142.5 20.5t-34.5 69.5q-2 68 -4 163.5t-2 160.5v231h813v-231q0 -66 -2 -161t-4 -163q-2 -49 -33.5 -69.5t-142.5 -20.5q-39 0 -48 -7t-9 -27q0 -27 16 -27h8q66 4 318 4q250 0 315 -4h8q16 0 17 27q0 20 -9.5 27t-48.5 7q-111 0 -142.5 20.5t-33.5 69.5 q-2 68 -4 163.5t-2 160.5v502q0 123 2 237q2 27 2 52q2 90 41 113.5t174 23.5q14 0 18.5 8t4.5 27q0 26 -18 26h-1q-2 0 -43 -2q-215 -6 -280 -6q-68 0 -143.5 2t-139.5 4q-41 2 -43 2q-18 0 -18 -26q0 -18 4 -26.5t18 -8.5q135 0 174 -23.5t41 -113.5q0 -25 2 -52 q2 -115 2 -237v-209h-813v209q0 123 2 237q2 27 2 52q2 90 41 113.5t174 23.5q14 0 18.5 8t4.5 27q0 26 -17 26h-1q-2 0 -43 -2q-215 -6 -283 -6q-66 0 -140.5 2t-140.5 4q-41 2 -43 2q-18 0 -18 -26z" />
<glyph unicode="I" horiz-adv-x="757" d="M35 1434q0 -18 4 -26.5t18 -8.5q135 0 174 -23.5t41 -113.5q0 -25 2 -52q2 -115 2 -237v-502q0 -66 -2 -161t-4 -163q-2 -49 -33.5 -69.5t-142.5 -20.5q-39 0 -48 -7t-9 -27q0 -27 16 -27h8q66 4 316 4q252 0 317 -4h8q16 0 17 27q0 20 -9.5 27t-47.5 7q-111 0 -143 20.5 t-34 69.5q-2 68 -4 163.5t-2 160.5v502q0 123 2 237q2 27 2 52q2 90 41 113.5t174 23.5q14 0 18.5 8t4.5 27q0 26 -18 26h-1q-2 0 -43 -2q-215 -6 -282 -6q-66 0 -140.5 2t-140.5 4q-41 2 -43 2q-18 0 -18 -26z" />
<glyph unicode="J" horiz-adv-x="757" d="M-203 -289q0 -57 39 -97t115 -40q37 0 73.5 9t88.5 34q186 86 278 244.5t92 384.5v727q0 123 2 237q2 27 2 52q2 88 34 112.5t134 24.5q14 0 18.5 8t4.5 27q0 26 -18 26h-1q-2 0 -34 -2q-178 -6 -244 -6t-140.5 2t-140.5 4q-41 2 -43 2q-18 0 -18 -26q0 -18 4 -26.5 t18 -8.5q135 0 174 -23.5t41 -113.5q0 -25 3 -52q2 -115 2 -237v-918q0 -109 -11.5 -177t-30 -104t-41 -48.5t-51.5 -12.5q-20 0 -40.5 12.5t-53.5 38.5q-39 31 -68.5 48.5t-66.5 17.5q-57 0 -89 -37t-32 -82z" />
<glyph unicode="K" horiz-adv-x="1554" d="M39 1434q0 -18 4 -26.5t18 -8.5q135 0 174 -23.5t41 -113.5q0 -25 3 -52q2 -115 2 -237v-502q0 -66 -2.5 -161t-4.5 -163q-2 -49 -33.5 -69.5t-142.5 -20.5q-39 0 -48 -7t-9 -27q0 -27 16 -27h9q66 4 315 4q252 0 317 -4h9q16 0 16 27q0 20 -9 27t-48 7 q-111 0 -142.5 20.5t-34.5 69.5q-2 68 -4 163.5t-2 160.5v203q43 0 64.5 -4t42.5 -21q16 -14 55 -53t95.5 -100.5t222.5 -241.5q57 -63 86 -96q18 -18 22 -30.5t4 -27.5q0 -18 -14 -30.5t-45 -12.5q-61 0 -85 -6t-24 -14q0 -41 17 -41h8q66 4 321 4q260 0 334 -4h10 q20 0 21 27q0 18 -11.5 26t-52.5 8q-66 0 -119 19.5t-124 95.5l-537 571q-10 12 -20 23q-25 25 -25 31t16 24q4 2 13 13l395 399q61 61 100 93t69 48.5t58.5 20.5t71.5 4q16 0 21.5 6t5.5 25q0 14 -4.5 22t-16.5 8q-23 0 -102 -4q-41 -2 -72 -3t-45 -1q-12 0 -113 4 q-129 4 -143 4q-10 0 -15 -11t-5 -19q0 -31 24 -31q92 0 115.5 -13.5t23.5 -42.5q0 -18 -13 -40.5t-54 -67.5t-123 -130t-262 -267q-43 -41 -68 -68q-31 -31 -51 -38t-72 -7v248q0 123 2 237q2 27 2 52q2 90 41 113.5t174 23.5q14 0 18.5 8t4.5 27q0 26 -17 26h-1 q-2 0 -43 -2q-215 -6 -283 -6q-66 0 -140.5 2t-140.5 4q-41 2 -43 2q-18 0 -18 -26z" />
<glyph unicode="L" horiz-adv-x="1402" d="M49 1434q0 -18 4 -26.5t19 -8.5q129 0 165.5 -23.5t38.5 -113.5q0 -25 3 -52q2 -115 2 -237v-502q0 -66 -2.5 -161t-4.5 -163q-2 -49 -33.5 -69.5t-142.5 -20.5q-33 0 -40 -7t-7 -27q0 -27 17 -27h8q66 4 315 4q678 0 836 -4h12q18 0 21 16q16 92 33.5 179.5t33.5 154.5 q10 49 10 51q0 14 -7 19.5t-36 5.5q-12 0 -20 -27q-4 -18 -8 -30q-35 -106 -83 -168t-111.5 -90.5t-144.5 -36t-222 -7.5q-125 0 -169 15.5t-47 68.5q-2 68 -4 163.5t-2 160.5v502q0 123 2 237q2 27 2 52q2 90 41 113.5t174 23.5q14 0 18.5 8t4.5 27q0 26 -17 26h-1 q-2 0 -43 -2q-215 -6 -283 -6q-66 0 -138.5 2t-133.5 4q-39 2 -41 2q-18 0 -19 -26z" />
<glyph unicode="M" horiz-adv-x="1972" d="M-37 31q0 -23 4 -29t19 -6h10q57 4 203 4q158 0 235 -4h12q16 0 19.5 7t3.5 38q0 8 -34 12t-77 4q-102 0 -102 97q0 70 19.5 213t49 310t58.5 308t43 203q4 0 56.5 -139.5t126 -339t131 -361.5t73.5 -213l6 -22q29 -94 39 -116t29 -22q14 0 23.5 15.5t35.5 83.5 q33 84 45 112q55 133 144 349q117 276 186.5 447t142.5 357h4q4 -82 13 -297q23 -508 26.5 -592.5t6 -166.5t2.5 -111q0 -70 -21.5 -92.5t-116.5 -22.5q-63 0 -80.5 -7t-17.5 -21q0 -16 4 -24.5t19 -8.5h12q72 4 282 4q223 0 312 -4h14q10 0 16.5 7t6.5 28q0 14 -19.5 20 t-97.5 6q-45 0 -78 23.5t-35 73.5q-8 242 -26 667q-10 268 -13.5 346t-3.5 123q0 72 35 90q20 10 59 14.5t113 4.5q25 0 25 26q0 16 -4.5 25.5t-18.5 9.5l-72 -2q-68 -4 -100.5 -5t-50.5 -1q-25 0 -60.5 1t-101.5 5q-41 2 -45 2q-16 0 -25 -22q-165 -453 -454 -1133 q-12 25 -62.5 159t-123 340t-124 355.5t-67.5 204.5v2q-16 57 -24.5 75.5t-24.5 18.5q-10 0 -58 -2q-80 -6 -108 -6q-4 0 -92 4q-10 0 -69.5 2t-76.5 2q-23 0 -22 -30q0 -14 4 -22.5t20 -8.5q55 0 110.5 -4t66.5 -13q16 -10 34.5 -50t18.5 -52q0 -35 -6.5 -82t-20.5 -111 q-43 -203 -119 -614q-33 -182 -49 -272t-35.5 -117t-72.5 -27q-70 0 -89.5 -5t-19.5 -21z" />
<glyph unicode="N" horiz-adv-x="1781" d="M10 1432q0 -33 19 -33h75q16 0 42 -16.5t52.5 -41t47 -48t26.5 -38.5q4 -8 4 -28.5v-59.5q0 -360 -8 -615t-16 -396v-9q-6 -53 -47 -71.5t-92 -18.5q-29 0 -61 -5t-32 -17q0 -39 21 -39h10q70 4 254 4q199 0 268 -4h13q20 0 20 31q0 18 -16.5 24t-87.5 6q-160 0 -160 101 q0 10 -2 65q-6 227 -6 455q0 117 4 352l2 176q346 -373 627 -680q109 -119 344 -379q100 -113 129.5 -144.5t36.5 -31.5q31 0 30 29q0 66 4.5 258.5t10.5 404t12 375.5t10 191q10 59 23.5 92t37 49t61.5 22.5t106 6.5q18 0 18 35q0 26 -15 26h-1q-2 0 -68 -2 q-47 -2 -112.5 -4t-88.5 -2q-25 0 -103.5 2t-80.5 2q-104 4 -113 4q-23 0 -22 -33q0 -29 26 -28q78 0 122 -8.5t75 -39t45 -96t14 -182.5q0 -72 -1 -171t-4 -206.5t-7 -212t-8 -164.5q-229 236 -420.5 448t-427.5 482q-137 158 -174 199l-4 4q-6 8 -12 8q-16 0 -95 -4 q-74 -4 -88 -4q-16 0 -139 6q-49 2 -55 2q-23 0 -23 -28z" />
<glyph unicode="O" horiz-adv-x="1705" d="M94 684q0 -111 43 -234.5t135.5 -232t238.5 -177.5t341 -69q197 0 343 69t238.5 179.5t135.5 235t43 239.5q0 193 -56.5 340.5t-159 246.5t-241.5 148.5t-303 49.5q-147 0 -283.5 -55.5t-244 -159t-169 -252t-61.5 -328.5zM338 723q0 92 16.5 201.5t67.5 226.5 t157.5 195.5t272.5 78.5q135 0 234.5 -64.5t162 -170t91 -226t28.5 -239.5q0 -121 -15.5 -233.5t-66.5 -220t-157.5 -177t-276.5 -69.5q-133 0 -232.5 65.5t-162 171t-91 226t-28.5 235.5z" />
<glyph unicode="P" horiz-adv-x="1290" d="M41 23q0 -27 16 -27h9q66 4 315 4q256 0 362 -4h13q16 0 16 27q0 20 -9 27t-48 7q-145 0 -184 30t-44 101v2q-2 61 -3 139.5t-1 303.5q104 -20 248 -21q217 0 349 115t132 328q0 45 -19 109.5t-74.5 133t-166 115.5t-280.5 47q-39 0 -104.5 -2t-137.5 -4q-41 -2 -49 -2 q-66 0 -132.5 2t-123.5 4q-35 2 -37 2q-18 0 -18 -26q0 -18 4 -26.5t18 -8.5q113 0 147.5 -24.5t36.5 -112.5q0 -25 3 -52q2 -115 2 -237v-502q0 -66 -2.5 -161t-4.5 -163q-2 -49 -33.5 -69.5t-142.5 -20.5q-39 0 -48 -7t-9 -27zM483 752v477q0 68 6.5 100.5t23.5 48 t47 18.5t95 3q150 0 243 -100.5t93 -260.5q0 -172 -109.5 -268t-281.5 -96q-72 0 -94.5 18.5t-22.5 59.5z" />
<glyph unicode="Q" horiz-adv-x="1744" d="M104 698q0 -113 34 -212t86 -174.5t111.5 -128t115.5 -81.5q78 -41 172 -77q47 -20 53 -27q113 -150 291 -236t428 -86q49 0 118 7l33 4q10 2 14.5 9t4.5 17q0 12 -3 22.5t-14 10.5q-111 0 -202 29.5t-152 70.5t-95 79t-34 52q0 12 27 25l16 6q262 111 397 296t135 441 q0 162 -61 298.5t-168.5 233.5t-250 149.5t-302.5 52.5q-121 0 -253 -48.5t-245.5 -145.5t-184.5 -245.5t-71 -341.5zM348 731q0 133 26.5 255t87 221.5t163 158.5t247.5 59q74 0 159 -24.5t169 -94t140.5 -206.5t56.5 -346q0 -92 -17.5 -209t-68.5 -239t-155.5 -206 t-268.5 -84q-104 0 -200.5 40t-172.5 126t-121 224.5t-45 324.5z" />
<glyph unicode="R" horiz-adv-x="1441" d="M70 1434q0 -18 4 -26.5t18 -8.5q113 0 147.5 -24.5t36.5 -112.5q0 -25 3 -52q2 -115 2 -237v-502q0 -66 -2.5 -161t-4.5 -163q-2 -47 -28.5 -68.5t-116.5 -21.5q-39 0 -48 -7t-9 -27q0 -27 16 -27h10q61 4 283 4q252 0 317 -4h9q16 0 16 27q0 20 -9 27t-48 7 q-111 0 -142.5 20.5t-34.5 69.5q-2 68 -4 163.5t-2 160.5v178q78 0 121 -15.5t94 -66.5q25 -23 56.5 -70.5t91.5 -142.5q63 -102 119.5 -185t111.5 -157q8 -12 15.5 -14t21.5 -2h8q41 4 138 4q117 0 159 -4h8q25 0 25 31q0 12 -2 18t-12 6q-47 0 -77 7.5t-56.5 26.5t-56 53 t-93.5 110l-6 8q-125 150 -209 282t-84 148q0 8 21 16h2q176 70 252.5 155t76.5 228q0 104 -46 178t-123.5 117t-170 61.5t-188.5 18.5q-78 0 -205 -6q-70 -2 -94 -2q-66 0 -132.5 2t-123.5 4q-35 2 -37 2q-18 0 -18 -26zM483 711v542q0 98 28 122t126 24q170 0 260 -95.5 t90 -244.5q0 -154 -82 -251t-254 -97h-168z" />
<glyph unicode="S" horiz-adv-x="1138" d="M117 336q0 -2 2 -21q6 -51 12 -114.5t14 -175.5q2 -14 5.5 -18.5t13.5 -6.5q86 -12 174 -20.5t186 -8.5q223 0 353 101q70 53 106.5 134t36.5 191q0 84 -29.5 148.5t-81 112t-109 82t-155.5 83.5q-119 61 -174 97q-76 49 -118 101t-42 144q0 117 79 188.5t192 71.5 q70 0 124 -25.5t93 -69.5t66.5 -98t52.5 -122q4 -12 34 -12q20 0 21 20q0 4 -4 31q-12 80 -19.5 152.5t-7.5 150.5q0 27 -18 27q-8 0 -23 -17q-20 -20 -33 -20q-16 0 -67 10q-117 27 -209 27q-109 0 -194 -34t-141 -92.5t-84 -133t-28 -156.5q0 -78 24 -135.5t65.5 -99.5 t91 -73.5t131.5 -74.5q117 -61 184.5 -104.5t108.5 -83t58 -82.5t17 -103q0 -127 -74.5 -204.5t-209.5 -77.5q-147 0 -234.5 84t-126.5 221q-6 27 -22 26q-41 0 -41 -20z" />
<glyph unicode="T" horiz-adv-x="1593" d="M-16 1147q0 -14 28 -14q27 0 35 12q74 113 153 179.5t181 66.5h223q57 0 73.5 -19.5t16.5 -109.5v-791q0 -66 -2 -161t-4 -163q-2 -49 -33.5 -69.5t-142.5 -20.5q-39 0 -48 -7t-9 -27q0 -27 16 -27h8q66 4 316 4q252 0 317 -4h8q16 0 17 27q0 20 -9.5 27t-48.5 7 q-111 0 -142.5 20.5t-33.5 69.5q-2 68 -4 163.5t-2 160.5v791q0 78 11.5 103.5t37.5 25.5h250q113 0 192.5 -56.5t153.5 -189.5q10 -14 29 -15q8 0 19.5 6.5t11.5 10.5q0 2 -5 12q-16 43 -34.5 97.5t-51.5 168.5l-2 7q-14 49 -19 60t-13 11q-12 0 -37 -18q-20 -14 -40 -23.5 t-50 -9.5h-1102q-33 0 -52.5 8t-39.5 25q-25 18 -43 18q-8 0 -13.5 -13t-11.5 -40q-4 -20 -6 -29q-41 -123 -63.5 -183t-30.5 -81q-4 -8 -4 -10z" />
<glyph unicode="U" horiz-adv-x="1705" d="M39 1434q0 -18 4 -26.5t18 -8.5q135 0 174 -23.5t41 -113.5q0 -25 3 -52q2 -115 2 -237v-469q0 -92 29.5 -184.5t97 -171t182.5 -128t278 -49.5q98 0 199.5 35t191 115t144.5 217t55 334v485q0 94 10.5 141.5t35 69t64.5 26.5t128 5q10 0 14 8t4 18q0 23 -6 29t-22 6 q-14 0 -89 -2q-74 -4 -111.5 -5t-66.5 -1q-61 0 -118.5 2t-116.5 4q-55 2 -66 2q-16 0 -16 -30q0 -31 16 -31q96 0 141.5 -6.5t75 -31t42 -82.5t12.5 -165v-405q0 -176 -35 -298t-95.5 -193t-140.5 -100.5t-176 -29.5q-123 0 -213 40t-143.5 110.5t-78 163t-24.5 200.5v371 q0 123 2 237q2 27 2 52q2 90 41 113.5t174 23.5q14 0 18.5 8t4.5 27q0 26 -17 26h-1q-2 0 -43 -2q-215 -6 -283 -6q-66 0 -140.5 2t-140.5 4q-41 2 -43 2q-18 0 -18 -26z" />
<glyph unicode="V" horiz-adv-x="1517" d="M-41 1432q0 -16 4 -24.5t23 -8.5q104 0 134 -11.5t64 -56.5q16 -20 57.5 -129.5t127.5 -351.5q78 -219 133 -372.5t106 -280.5q35 -86 56.5 -134.5t35 -71t20.5 -26.5t19 -4q20 0 55 66.5t101 212.5q72 160 115 247q37 74 72.5 155t101.5 235q106 246 159 360 q45 98 91.5 130t152.5 32q10 0 13.5 11t3.5 22q0 28 -21 28h-2q-25 0 -102 -4q-104 -4 -152 -4q-12 0 -53 1t-94 3q-109 4 -127 4q-14 0 -21.5 -5t-7.5 -25q0 -14 4 -22.5t19 -8.5q47 0 78.5 -2t61.5 -13.5t48 -36t18 -67.5q0 -39 -20.5 -108.5t-51 -146.5t-67.5 -162 t-82 -181q-12 -31 -20 -47q-53 -117 -91 -196t-58.5 -118.5t-30 -52t-11.5 -12.5q-6 0 -20.5 31.5t-36 87t-45 120t-45.5 121.5q-43 121 -56 152q-39 102 -69.5 188t-59 169t-44 134.5t-15.5 63.5q0 49 41 62.5t156 13.5q23 0 22 28q0 20 -3 26.5t-19 6.5q-10 0 -95 -2 q-82 -4 -139 -5t-90 -1q-111 0 -240 6q-55 2 -77 2q-14 0 -20.5 -8t-6.5 -20z" />
<glyph unicode="W" horiz-adv-x="2238" d="M-4 1430q0 -31 16 -31q61 0 90 -2t48.5 -11.5t32 -30t24.5 -61.5q8 -29 35 -127q25 -90 45 -163.5t57 -203.5t91 -313.5t120 -394.5q6 -18 12 -45q12 -45 21.5 -61.5t27.5 -16.5t29.5 13.5t20.5 31.5l417 815q8 16 29 56q29 59 40 78.5t17 19.5q10 0 19 -29q2 -6 6 -20 q10 -29 39 -125q82 -258 143.5 -446.5t124.5 -362.5q6 -18 14.5 -24.5t28.5 -6.5t43 62q37 106 101.5 268t162.5 403q137 332 211 521q47 117 102.5 146.5t143.5 29.5q18 0 19 31q0 14 -5.5 22t-21.5 8t-109 -4q-45 -2 -77.5 -3t-51.5 -1q-23 0 -59.5 1t-83.5 3 q-82 4 -104 4q-8 0 -13.5 -9t-5.5 -19q0 -25 10.5 -29t59.5 -4q68 0 98.5 -17.5t30.5 -74.5q0 -29 -9.5 -65t-25.5 -83q-4 -8 -6 -16q-35 -102 -91.5 -252t-110.5 -287t-93 -230t-43 -93q-12 0 -35 75q-14 51 -20 70q-90 293 -137.5 452.5t-72 247.5t-33.5 133.5t-9 67.5 q0 49 34.5 60.5t137.5 11.5q12 0 15 10t3 27q0 24 -20 24h-2q-49 0 -148 -4q-100 -4 -149 -4q-51 0 -154 4q-100 4 -149 4q-2 0 -6.5 -11t-4.5 -19q0 -31 17 -31q63 0 94 -3t52.5 -16.5t38.5 -45t34 -91.5q20 -70 26.5 -99.5t6.5 -45.5q0 -18 -7.5 -42t-29.5 -65 q-88 -170 -144.5 -280.5t-124.5 -247.5q-55 -113 -75.5 -148.5t-32.5 -35.5t-37 66.5t-74 246.5q-20 76 -39 141q-113 420 -126 474.5t-18 83t-5 50.5q0 39 31.5 48.5t128.5 9.5q14 0 17 7t3 19q0 14 -3 24.5t-15 10.5q-23 0 -127 -4q-135 -4 -158 -4q-35 0 -84 1t-117 5 q-68 2 -78 2q-16 0 -20 -4t-4 -26z" />
<glyph unicode="X" horiz-adv-x="1478" d="M-14 23q0 -12 3 -19.5t15 -7.5h8q57 4 234 4q209 0 289 -4h12q20 0 20 37q0 16 -17.5 20t-70.5 4q-45 0 -71.5 8.5t-38 19.5t-14.5 22.5t-3 23.5q0 20 33 78.5t77 127.5t90 132t69 92q12 14 32 43q23 29 27 29q10 0 33 -39q66 -113 153 -258q68 -113 91.5 -156t23.5 -61 q0 -31 -15.5 -46.5t-37.5 -15.5q-31 0 -64 -3t-33 -15q0 -27 3.5 -35t17.5 -8h14q82 4 283 4q223 0 299 -4h12q14 0 16.5 6t2.5 37q0 10 -22.5 14t-43.5 4q-72 0 -110.5 17.5t-71.5 70.5l-156 250q-86 137 -135 220t-72.5 124t-30 54.5t-6.5 19.5q0 10 43 66q10 12 21 26 q92 121 167 215t155 183q53 57 97 76.5t146 19.5q12 0 15.5 9t3.5 19q0 18 -3 25.5t-18 7.5q-8 0 -63 -2q-90 -4 -137.5 -5t-86.5 -1q-27 0 -82 2t-71 2q-80 4 -90 4q-8 0 -15.5 -6t-7.5 -24q0 -23 11.5 -27t60.5 -4q94 0 94 -90q0 -29 -15.5 -67t-51.5 -89l-17 -23 q-98 -139 -142 -196t-54 -57q-2 0 -21.5 29.5t-73.5 119.5q-127 207 -133 215l-18 31q-33 55 -33 71q0 39 25.5 47.5t97.5 8.5q25 0 32 5t7 28q0 10 -4 19t-15 9q-25 0 -106 -2q-186 -6 -225 -6q-31 0 -119 4q-100 4 -152 4q-14 0 -19 -9t-5 -24q0 -12 3 -20t11 -8 q98 0 146.5 -19.5t101.5 -101.5q39 -59 99.5 -156.5t117.5 -189.5t96 -161t39 -79q0 -6 -9 -20.5t-24 -32.5l-381 -494q-41 -53 -84 -70.5t-114 -17.5q-29 0 -37 -7t-8 -27z" />
<glyph unicode="Y" horiz-adv-x="1366" d="M-18 1432q0 -23 9 -28t50 -5q55 0 85 -12.5t54 -59.5l383 -725q10 -14 14.5 -40.5t4.5 -90.5q0 -66 -2 -161t-5 -163q-2 -49 -33.5 -69.5t-142.5 -20.5q-39 0 -48 -7t-9 -27q0 -27 16 -27h9q66 4 315 4q252 0 317 -4h9q16 0 16 27q0 20 -9 27t-48 7q-111 0 -142.5 20.5 t-33.5 69.5q-2 68 -4.5 163.5t-2.5 160.5q0 47 1 71.5t6.5 43t13.5 36t26 52.5l324 588q35 68 76 102.5t125 34.5q49 0 62.5 7t13.5 26q0 28 -25 28h-2q-49 0 -162 -4q-76 -4 -92 -4q-8 0 -42 1t-83 3q-84 4 -94 4q-27 0 -27 -28q0 -20 14.5 -26.5t75.5 -6.5 q53 0 72.5 -18.5t19.5 -53.5q0 -14 -7 -36.5t-31.5 -74t-71.5 -140.5t-131 -245l-19 -36q-55 -102 -67 -103q-6 0 -12.5 8.5t-20.5 36.5q-12 23 -18 35q-90 170 -145.5 275.5t-84 165t-39 86t-10.5 36.5q0 63 113 64q35 0 43 5t8 26q0 20 -8 25t-33 5q-45 0 -139 -4t-140 -4 q-43 0 -129 4t-129 4q-18 0 -26 -5t-8 -23z" />
<glyph unicode="Z" horiz-adv-x="1402" d="M29 14q0 -12 9 -15t42 -3q35 0 90 2q74 2 174 2h891q23 0 33 29q12 31 33.5 88t39 107t30.5 90t13 44q0 16 -20 17q-20 0 -29.5 -7.5t-27.5 -31.5l-9 -12q-51 -72 -94 -120t-80 -74t-70.5 -38t-74.5 -16q-37 -4 -120 -7t-187 -6q-147 -2 -279 -2q-31 0 -45 3.5t-14 13.5 q0 6 4 15t24.5 37t64.5 87t128 168q27 37 90 119q68 88 131.5 173t120.5 160.5t120.5 161.5t123.5 170q68 94 139 189q33 45 40 56t7 24q0 14 -31 14h-874q-90 0 -118 11.5t-36 66.5q-2 10 -9 13t-19 3q-16 0 -21 -20q-10 -59 -32.5 -143.5t-53.5 -196.5q-12 -45 -20.5 -75 t-8.5 -34q0 -14 29 -14q25 0 37 24q45 102 94 168t131 99q33 14 73 21t94 10.5t128 4.5t223 1q90 0 107.5 -2.5t17.5 -18.5q0 -14 -46 -77.5t-179 -237.5q-176 -231 -299 -398q-109 -143 -192.5 -250.5t-165.5 -207.5q-76 -96 -101.5 -131t-25.5 -54z" />
<glyph unicode="[" horiz-adv-x="645" d="M217 -379q0 -23 27 -22h372q18 0 19 24q0 18 -10.5 23.5t-63.5 5.5q-109 0 -147.5 18.5t-44.5 67.5q-8 66 -11.5 111t-3.5 114v1133q0 70 3 114.5t12 110.5q6 49 45 67.5t147 18.5q53 0 63.5 5t10.5 24q0 25 -19 24h-372q-27 0 -27 -22q0 -55 2 -195q2 -203 2 -295v-837 q0 -92 -2 -295q-2 -139 -2 -195z" />
<glyph unicode="\" d="M70 1452l770 -1452h153l-772 1452h-151z" />
<glyph unicode="]" horiz-adv-x="645" d="M10 -377q0 -25 19 -24h372q27 0 27 22q0 55 -2 195q-2 203 -2 295v837q0 92 2 295q2 139 2 195q0 23 -27 22h-372q-18 0 -19 -24q0 -18 10.5 -23.5t63.5 -5.5q111 0 148.5 -18.5t43.5 -67.5q8 -66 11.5 -111t3.5 -114v-1133q0 -70 -3 -115t-12 -110q-6 -49 -43.5 -67.5 t-148.5 -18.5q-53 0 -63.5 -5t-10.5 -24z" />
<glyph unicode="^" d="M90 573h148l294 715l293 -715h148l-361 840h-159z" />
<glyph unicode="_" horiz-adv-x="1024" d="M0 -154v-102h1024v102h-1024z" />
<glyph unicode="`" horiz-adv-x="569" d="M-39 1360q0 -20 18.5 -41t40.5 -35l318 -199h80l-301 304q-14 16 -40 31.5t-44 15.5q-72 0 -72 -76z" />
<glyph unicode="a" horiz-adv-x="909" d="M74 643q0 -25 20.5 -50.5t65.5 -25.5q53 0 76.5 25.5t23.5 52.5q0 25 -16 64q-10 27 -11 39q0 8 16.5 24t40 31.5t48 27t41.5 11.5q49 0 110.5 -45t61.5 -117v-186q-145 -55 -238.5 -100.5t-141.5 -84.5t-65.5 -75.5t-17.5 -79.5q0 -27 9 -59t32 -60.5t61.5 -46 t94.5 -17.5q66 0 121 24.5t143 94.5q20 -66 41.5 -92.5t71.5 -26.5q25 0 60.5 15.5t67 36t54 42t22.5 29.5q0 6 -9 14.5t-17 8.5q-6 0 -25 -17q-38 -30 -61 -30h-2q-35 0 -35 41v583q0 66 -27.5 112t-69.5 72.5t-84 39t-73 12.5q-20 0 -34.5 -2t-37 -12.5t-58.5 -31 t-91 -57.5q-59 -41 -92 -65.5t-49.5 -44t-21.5 -35.5t-5 -39zM266 184q0 59 13.5 89t54.5 61q14 12 44 27.5t68.5 34t62 28.5t28.5 10q14 0 14 -20v-248q0 -12 -18.5 -31.5t-47 -37t-61.5 -29t-62 -11.5q-49 0 -72.5 37t-23.5 90z" />
<glyph unicode="b" horiz-adv-x="1099" d="M43 1430q0 -20 18 -25q45 -4 68 -13.5t34 -30t14 -57t3 -112.5v-1069q0 -31 -2 -66q-2 -27 -2 -39t3 -19t14 -7q12 0 26 22q10 18 21.5 27.5t31.5 9.5q25 0 88 -26q61 -25 112.5 -39.5t115.5 -14.5q76 0 152.5 28t141 87t104.5 152.5t40 218.5t-37 217t-100.5 149.5 t-139 84t-155.5 26.5t-135.5 -22.5t-112.5 -73.5v391q0 143 3 205.5t7 83.5v6q0 22 -11 22h-1q-6 0 -43 -14q-57 -25 -112.5 -43.5t-129.5 -30.5q-16 -4 -16 -28zM346 297v373q0 94 57.5 148t155.5 54q88 0 143.5 -45t83 -114.5t36.5 -140t9 -144.5q0 -78 -10 -146.5 t-37.5 -127t-80 -94t-132.5 -35.5q-117 0 -171 69.5t-54 202.5z" />
<glyph unicode="c" horiz-adv-x="909" d="M74 434q0 -213 119.5 -338t304.5 -125q205 0 358 174q16 16 16 31q0 10 -12 19.5t-18 9.5t-19 -15q-12 -14 -16 -18q-37 -31 -96.5 -58.5t-110.5 -27.5q-109 0 -180.5 38t-107.5 95t-48 112.5t-12 102.5q0 119 25.5 204t67.5 136t92 72.5t104 21.5q70 0 94 -28.5 t33 -67.5q18 -88 33.5 -110.5t62.5 -22.5q51 0 79.5 31.5t28.5 56.5q0 20 -14 52t-51 65t-103.5 55.5t-164.5 22.5q-203 0 -334 -132.5t-131 -355.5z" />
<glyph unicode="d" horiz-adv-x="1099" d="M86 410q0 -188 105.5 -313.5t291.5 -125.5q152 0 281 109q0 -18 -4 -49q-2 -27 -2 -39q0 -20 22 -21q6 0 41 9q41 10 85 20t124 27q14 2 14 30q0 23 -16 23q-74 0 -91 21.5t-17 72.5v1055q0 143 3 205.5t7 83.5v6q0 22 -11 22h-1q-6 0 -44 -14q-57 -25 -112 -43.5 t-129 -30.5q-16 -4 -17 -28q0 -20 19 -25q45 -4 67.5 -13.5t34 -30t14.5 -57t3 -112.5v-313q-70 29 -110 37t-103 8q-80 0 -161 -34t-147.5 -99.5t-106.5 -163t-40 -217.5zM264 492q0 57 12.5 120.5t43 123t87 97t138.5 37.5q68 0 109.5 -18t63 -46t29 -54.5t7.5 -51.5v-479 q0 -92 -62.5 -135t-138.5 -43q-37 0 -81 11.5t-92 53.5t-82 136t-34 248z" />
<glyph unicode="e" horiz-adv-x="948" d="M86 438q0 -219 114.5 -343t331.5 -124q94 0 162 36t109 85t61.5 90t20.5 49q0 6 -11.5 15.5t-21.5 9.5q-8 0 -21 -20q-6 -8 -10 -15q-47 -68 -105.5 -95.5t-133.5 -27.5q-80 0 -143.5 33t-105.5 84t-64.5 109.5t-22.5 111.5q0 66 8 117h584q25 0 24 22q0 37 -12 92.5 t-49 116t-112 103.5t-193 43q-78 0 -152 -36t-132 -101.5t-92 -156.5t-34 -198zM266 614q16 117 71.5 190t158.5 73q31 0 60.5 -8.5t57 -31t45 -60.5t17.5 -95q0 -39 -17.5 -53.5t-52.5 -14.5h-340z" />
<glyph unicode="f" horiz-adv-x="645" d="M51 817q0 -18 6 -22t19 -4h112q25 0 32 -18.5t7 -47.5v-571q0 -66 -19.5 -85.5t-84.5 -19.5q-27 0 -35 -5t-8 -21q0 -27 18 -27h19q72 4 198 4q45 0 131 -2q63 -2 103 -2q18 0 24.5 5t6.5 24q0 16 -13.5 20t-70.5 4q-70 0 -86.5 26.5t-16.5 94.5v621q20 0 65.5 -2.5 t96.5 -6.5q51 -2 57 -2q31 0 43.5 14.5t12.5 36.5q0 43 -21 43h-254v265q0 55 5 105t20.5 94t43 71t68.5 27q14 0 39 -12.5t52 -34.5q33 -27 62.5 -37.5t49.5 -10.5q45 0 70.5 28t25.5 73t-39.5 66.5t-89.5 21.5q-27 0 -62.5 -5t-62.5 -12q-176 -47 -256.5 -177t-97.5 -369 q-4 -63 -22.5 -82t-81.5 -33h-2q-37 -8 -50.5 -15.5t-13.5 -19.5z" />
<glyph unicode="g" d="M78 -365q0 -57 21.5 -95t58.5 -59.5t83 -29.5t101 -8q102 0 204.5 20.5t190.5 66.5t142.5 124t54.5 188q0 39 -6 76t-33 76t-85 65.5t-155 26.5h-303q-43 0 -69.5 13.5t-26.5 54.5q0 47 25.5 79.5t58.5 51.5q27 -12 72 -17.5t75 -5.5q170 0 267.5 93.5t97.5 258.5 q0 41 -24.5 104.5t-53.5 94.5q10 4 21 10q31 16 57 17q16 0 57 -52q25 -31 43.5 -48t38.5 -17q31 0 54.5 23.5t23.5 48.5q0 45 -32.5 79.5t-121.5 34.5q-39 0 -76.5 -12t-97.5 -49q-49 39 -116.5 59.5t-130.5 20.5q-68 0 -133.5 -24.5t-118 -71t-82 -108.5t-29.5 -132 q0 -102 37 -174t123 -117q-82 -57 -120 -106.5t-38 -133.5q0 -47 37 -83.5t86 -40.5q-86 -84 -132 -151t-46 -151zM195 -274q0 39 17 75.5t42 65.5t46.5 46t27.5 17h295q106 0 157 -35.5t51 -125.5q0 -119 -82.5 -175.5t-259.5 -56.5q-100 0 -160.5 23.5t-89 55.5 t-36.5 60.5t-8 49.5zM309 559q0 45 4 92t22.5 99.5t59.5 88t107 35.5q59 0 95 -30.5t52.5 -74.5t20.5 -80t4 -62q0 -45 -5 -94.5t-23.5 -99.5t-55.5 -84t-96 -34q-98 0 -141.5 70t-43.5 174z" />
<glyph unicode="h" horiz-adv-x="1138" d="M27 18q0 -10 3 -16t13 -6h23q92 4 243 4q109 0 170 -4h10q14 0 17.5 7t3.5 20q0 18 -9 22t-50 4q-66 0 -80.5 24.5t-14.5 116.5v543q6 27 68.5 51.5t128.5 24.5q78 0 124 -21.5t68.5 -62.5t29.5 -95.5t7 -137.5v-367q0 -49 -20.5 -62.5t-95.5 -13.5q-16 0 -22.5 -9 t-6.5 -20q0 -10 3 -17t11 -7h17q68 4 198 4q68 0 133 -2q51 -2 74 -2q18 0 23.5 7t5.5 20q0 14 -3 20t-18 6q-84 0 -108.5 19.5t-24.5 54.5v491q0 102 -29.5 166t-73.5 93.5t-86 39t-81 9.5q-86 0 -157.5 -30t-164.5 -93v430q0 143 3 205.5t8 83.5v6q0 22 -12 22h-1 q-6 0 -43 -14q-57 -25 -112.5 -43.5t-128.5 -30.5q-16 -4 -17 -28q0 -20 19 -25q45 -4 67.5 -13.5t33.5 -30t14 -57t3 -112.5v-717q0 -94 -2 -215q-2 -70 -5 -113t-5 -49q-10 -25 -26.5 -37t-47.5 -12q-55 0 -66 -5t-11 -26z" />
<glyph unicode="i" horiz-adv-x="569" d="M27 18q0 -10 3 -16t13 -6h35q100 4 241 4q98 0 160 -4h10q14 0 17.5 7t3.5 20q0 18 -7 22t-42 4q-66 0 -80 24.5t-14 116.5v443q0 143 3 205.5t7 83.5v6q0 23 -12 22q-8 0 -27 -12q-39 -23 -95.5 -44.5t-164.5 -43.5q-16 -4 -17 -29q0 -23 19 -24q72 -6 96.5 -35 t24.5 -88v-281q0 -106 -3 -194t-10 -101q-10 -25 -28.5 -37t-55.5 -12q-55 0 -66 -5t-11 -26zM176 1343q0 -43 31 -75.5t76 -32.5t75.5 32.5t30.5 75.5t-30.5 76t-75.5 33t-76 -33t-31 -76z" />
<glyph unicode="j" horiz-adv-x="530" d="M-16 -520q0 -10 8 -23.5t22 -13.5q8 0 67.5 50t124 124t113 167t48.5 187v662q0 143 3 205.5t7 83.5v6q0 23 -12 22q-8 0 -27 -12q-39 -23 -95.5 -44.5t-164.5 -43.5q-16 -4 -17 -29q0 -23 19 -24q72 -6 96.5 -35t24.5 -88v-651q0 -178 -20.5 -276.5t-108.5 -182.5 q-12 -12 -41 -33q-47 -35 -47 -51zM176 1343q0 -43 31 -75.5t76 -32.5t75.5 32.5t30.5 75.5t-30.5 76t-75.5 33t-76 -33t-31 -76z" />
<glyph unicode="k" horiz-adv-x="1024" d="M31 18q0 -10 3 -16t13 -6h19q100 4 243 4q109 0 170 -4h10q14 0 18.5 7t4.5 20q0 27 -10 26q-92 0 -119 21.5t-27 70.5v269q20 0 38 -5.5t30 -21.5q94 -111 184 -215q51 -59 62.5 -73.5t11.5 -22.5q0 -10 -27.5 -16.5t-42.5 -6.5q-23 0 -22 -24q0 -18 3 -23.5t15 -5.5 q2 0 47 2q100 2 148 2q111 0 201 -4h47q23 0 22 20q0 33 -29 33q-47 0 -71.5 3t-45 12.5t-41 28t-52.5 54.5q-96 111 -166 190t-92.5 106.5t-30.5 39t-8 15.5q0 6 8 16t31.5 32.5t73.5 66.5t153 135q57 49 94 67.5t55 18.5q47 0 56.5 4t9.5 28q0 14 -5 17.5t-14 3.5 q-31 0 -94 -2t-96 -2q-35 0 -102 2q-70 2 -105 2q-20 0 -20 -27q0 -16 4 -21t20 -5q55 0 81 -10.5t26 -45.5q0 -20 -12.5 -38.5t-26.5 -30.5q-131 -137 -202 -191.5t-116 -54.5v766q0 143 3 205.5t8 83.5v6q0 22 -12 22h-1q-6 0 -43 -14q-57 -25 -112.5 -43.5t-128.5 -30.5 q-16 -4 -17 -28q0 -20 19 -25q45 -4 67.5 -13.5t33.5 -30t14 -57t3 -112.5v-717q0 -231 -2 -306t-14 -91q-6 -8 -25.5 -14.5t-44.5 -8.5q-39 -6 -63 -6q-10 0 -10 -31z" />
<glyph unicode="l" horiz-adv-x="569" d="M37 18q0 -10 3 -16t13 -6h23q92 4 243 4q109 0 170 -4h11q14 0 17 7t3 20q0 18 -9 22t-50 4q-66 0 -80 24.5t-14 116.5v1039q0 143 3 205.5t7 83.5v6q0 22 -11 22h-1q-6 0 -43 -14q-57 -25 -112.5 -43.5t-129.5 -30.5q-16 -4 -17 -28q0 -20 19 -25q45 -4 67.5 -13.5 t34 -30t14.5 -57t3 -112.5v-717q0 -94 -2 -215q-2 -70 -5.5 -113t-5.5 -49q-10 -25 -26.5 -37t-46.5 -12q-55 0 -66.5 -5t-11.5 -26z" />
<glyph unicode="m" horiz-adv-x="1705" d="M33 18q0 -10 3 -16t13 -6h31q86 4 225 4q109 0 170 -4h10q14 0 17.5 7t3.5 20q0 18 -9.5 22t-50.5 4q-66 0 -80 24.5t-14 116.5v525q0 8 20.5 26.5t52.5 39t67.5 33.5t68.5 13q68 0 111 -14t64.5 -38.5t27.5 -52.5t6 -63v-530q0 -53 -20.5 -66.5t-96.5 -13.5 q-16 0 -22 -9t-6 -20q0 -10 3 -17t11 -7h16q68 4 199 4q143 0 207 -4h8q14 0 17.5 7t3.5 20q0 18 -9.5 22t-50.5 4q-66 0 -80 24.5t-14 116.5v525q0 8 20.5 26.5t52 39t67.5 33.5t69 13q68 0 110.5 -20.5t63 -49t28 -55t7.5 -43.5v-530q0 -49 -20.5 -62.5t-96.5 -13.5 q-16 0 -22.5 -9t-6.5 -19t3 -17.5t12 -7.5h16q68 4 199 4q68 0 133 -2q51 -2 74 -2q18 0 23 7t5 20q0 14 -3 20t-17 6q-84 0 -108.5 19.5t-24.5 54.5v545q0 84 -30 136t-74 75.5t-86 31t-81 7.5q-68 0 -122 -24t-132 -73q-43 -27 -59 -37q-82 133 -223 134 q-39 0 -92.5 -13.5t-105.5 -35t-97 -44t-66 -38.5q0 59 4 118v19q0 23 -6 22q-8 0 -26 -12q-39 -23 -95.5 -44.5t-165.5 -43.5q-16 -4 -16 -29q0 -23 19 -24q72 -6 96 -35t24 -88v-281q0 -106 -3 -194t-9 -101q-10 -25 -28.5 -37t-55.5 -12q-41 0 -49 -5t-8 -26z" />
<glyph unicode="n" horiz-adv-x="1138" d="M16 18q0 -10 3.5 -16t13.5 -6h35q100 4 241 4q109 0 170 -4h10q14 0 17.5 7t3.5 20q0 18 -9 22t-50 4q-66 0 -80.5 24.5t-14.5 116.5v525q4 8 23.5 24.5t50.5 32.5t63.5 26.5t59.5 10.5q78 0 124 -21.5t68.5 -62.5t29.5 -95.5t7 -137.5v-367q0 -49 -20.5 -62.5 t-95.5 -13.5q-16 0 -22.5 -9t-6.5 -20q0 -10 3 -17t11 -7h17q68 4 198 4q68 0 133 -2q51 -2 74 -2q18 0 23.5 7t5.5 20q0 14 -3 20t-18 6q-84 0 -108.5 19.5t-24.5 54.5v491q0 102 -29.5 166t-73.5 93.5t-86 39t-81 9.5q-74 0 -145.5 -36t-176.5 -106q0 70 4 131v17 q0 23 -6 22q-8 0 -26 -12q-39 -23 -95.5 -44.5t-164.5 -43.5q-16 -4 -17 -29q0 -23 19 -24q72 -6 96 -35t24 -88v-281q0 -106 -3 -194t-9 -101q-10 -25 -28.5 -37t-55.5 -12q-55 0 -66.5 -5t-11.5 -26z" />
<glyph unicode="o" horiz-adv-x="1099" d="M74 446q0 -100 34.5 -188t98 -152.5t151.5 -99.5t191 -35q215 0 346 130t131 345q0 102 -36 189.5t-100.5 152t-151.5 99.5t-189 35q-100 0 -187.5 -36t-152 -100.5t-100 -151.5t-35.5 -188zM268 446q0 80 14.5 155t47 135.5t88 96t131.5 35.5q78 0 132 -35.5t88 -96 t48 -135.5t14 -155q0 -74 -11 -146.5t-41.5 -135t-87 -101t-142.5 -38.5t-142.5 38.5t-86 101t-41 135.5t-11.5 146z" />
<glyph unicode="p" horiz-adv-x="1099" d="M35 -512q0 -25 20 -25q31 0 105 2q80 4 123 5q90 0 192 -7h27q20 0 20 31q0 23 -10 23q-66 0 -98.5 4t-47 16t-17.5 31.5t-3 64.5v373q18 -4 35 -10q45 -12 82 -18.5t108 -6.5q227 0 341 126t114 349q0 88 -24.5 172t-73.5 152t-123 108t-168 40q-78 0 -137.5 -28 t-141.5 -87l-12 -8q0 27 4 79q2 35 2 44q0 12 -1 20t-7 8t-43 -14q-57 -25 -112.5 -43.5t-129.5 -30.5q-16 -4 -16 -29q0 -20 18 -24q45 -4 68 -13.5t34 -30t14 -57t3 -112.5v-963q0 -76 -18.5 -94t-108.5 -18q-18 0 -18 -29zM346 182v494q0 31 18.5 60.5t50 52t67.5 36 t71 13.5q82 0 137 -43t86 -113t43 -147.5t12 -153.5q0 -63 -12 -124.5t-39.5 -115t-76 -85t-117.5 -31.5q-121 0 -180.5 48t-59.5 109z" />
<glyph unicode="q" horiz-adv-x="1099" d="M86 434q0 -111 42 -219.5t130 -177.5l6 -4q31 -25 84 -43.5t152 -18.5q51 0 136 14.5t118 26.5v-399q0 -41 -4.5 -57.5t-18.5 -26.5t-45 -13t-100 -3q-8 0 -8 -23q0 -12 2 -21.5t8 -9.5h18q35 4 67 5t97 1q94 0 203 -4q45 -2 61 -2q18 0 24.5 8.5t6.5 20.5q0 25 -10 25 q-96 0 -115.5 19t-19.5 99v369q0 309 2 480t6 317q2 80 2 96q0 29 -19 29q-4 0 -18 -13q-18 -14 -32.5 -22t-29.5 -8q-16 0 -65 12q-55 14 -107.5 22.5t-119.5 8.5q-102 0 -186.5 -38t-143.5 -104.5t-91 -155.5t-32 -190zM281 520q0 43 7 97.5t29.5 111.5t70.5 98t126 41 q33 0 74 -14t79 -43t62.5 -76t24.5 -108v-545q0 -12 -16.5 -21.5t-40 -13.5t-47 -6t-40.5 -2q-98 0 -164.5 41t-102.5 110.5t-49 151.5t-13 178z" />
<glyph unicode="r" horiz-adv-x="796" d="M33 23q0 -27 18 -27h41q86 4 197 4q45 0 131 -2q63 -2 102 -2q18 0 24.5 5t6.5 24q0 16 -13.5 20t-70.5 4q-70 0 -86 26.5t-16 94.5v465q0 43 14 59q37 43 76 65.5t65 22.5q18 0 32.5 -8t33.5 -26q23 -20 42 -31.5t50 -11.5q43 0 71.5 30.5t28.5 71.5q0 55 -36.5 85 t-94.5 30q-72 0 -146.5 -52.5t-140.5 -126.5q0 76 9 154q2 25 2 33q0 20 -8 20t-27 -12q-39 -23 -95.5 -44.5t-164.5 -43.5q-16 -4 -17 -29q0 -23 19 -24q72 -6 96.5 -35t24.5 -88v-520q0 -66 -19.5 -85.5t-85.5 -19.5q-63 0 -63 -26z" />
<glyph unicode="s" horiz-adv-x="757" d="M55 219q0 -8 8.5 -47t20.5 -84q8 -41 13 -62.5t5 -27.5q0 -10 11 -10q33 0 75.5 -3t81.5 -8q61 -6 78 -6q98 0 166 28t103.5 71t50 90t14.5 90q0 123 -51 172t-182 100q-85 33 -130 56q-41 20 -68.5 54t-27.5 83q0 72 45 112.5t119 40.5q49 0 87 -19.5t62.5 -47t38 -52 t23.5 -53.5l2 -2q8 -18 16.5 -23t24.5 -5q23 0 23 16q0 10 -7 45q-14 68 -16 119q0 16 -6 34.5t-25 22.5q-14 4 -87.5 11.5t-133.5 7.5q-131 0 -221 -78t-90 -201q0 -55 21.5 -96t57.5 -69.5t74.5 -47t102.5 -43.5q102 -41 152.5 -78t50.5 -102q0 -31 -9.5 -61.5t-31 -58.5 t-58.5 -45t-88 -17q-86 0 -131 42t-82 111q-29 53 -45 53q-12 0 -24.5 -2t-12.5 -10z" />
<glyph unicode="t" horiz-adv-x="681" d="M51 809q0 -18 12 -18h103q20 0 20 -27v-539q0 -35 5.5 -71.5t28 -79.5t71.5 -73t131 -30q119 0 195.5 44t76.5 65q0 8 -8 20.5t-14 12.5q-2 0 -17 -9q-31 -16 -59.5 -27t-63.5 -11q-115 0 -147.5 60t-32.5 234v431q135 0 258 -9q18 -2 23 -2q31 0 43 14.5t12 36.5 q0 43 -20 43h-316q0 76 4 146q2 31 2 43q0 27 -24 27q-18 0 -66 -56q-43 -53 -89 -98t-116 -98q-12 -10 -12 -29z" />
<glyph unicode="u" horiz-adv-x="1099" d="M10 848q0 -14 13.5 -17.5t31.5 -3.5q45 0 67.5 -5t36 -23.5t18.5 -55t5 -108.5v-320q0 -170 58.5 -257t201.5 -87q63 0 147.5 30t158.5 83q0 -6 -3 -12q-4 -47 -4 -66q0 -29 25 -29q4 0 20 7q39 10 85.5 21t129.5 26q47 8 57.5 12t10.5 14q0 27 -2 33t-10 6q-6 0 -31 -2 q-41 -6 -57 -6q-35 0 -43 20.5t-8 55.5v385q0 74 5 153.5t11 137.5l2 20q0 29 -29 28q-29 0 -78 -1q-49 -4 -77 -4q-59 0 -93 2t-55 2q-20 2 -31 1q-14 0 -14 -40q0 -14 15.5 -17.5t50.5 -3.5q82 0 104.5 -20.5t22.5 -101.5v-531q0 -23 -20.5 -43t-52.5 -34.5t-66.5 -22.5 t-63.5 -8q-109 0 -155 60t-46 181v553q0 20 -3 24.5t-13 3.5q-14 0 -51 -1q-80 -4 -127 -4q-45 0 -95 4q-20 2 -26 1q-14 0 -18.5 -11t-4.5 -29z" />
<glyph unicode="v" horiz-adv-x="948" d="M-35 864q0 -23 11.5 -29t52.5 -6q27 0 42 -6t29 -26q10 -12 39 -89t76 -204q57 -154 94 -251t62 -151q8 -14 20 -45q39 -86 58 -86q12 0 31.5 32t60.5 130q10 25 63 141q76 166 106.5 235t61.5 144q29 68 43 98.5t31.5 48t41 24.5t75.5 16q20 2 20 22q0 25 -18 25 q-29 0 -91 -2q-61 -2 -90 -2t-90 2q-59 2 -86 2t-26 -25q0 -29 18 -28q20 0 39.5 -1.5t43.5 -7.5t39 -18t15 -33q0 -23 -9 -53.5t-31.5 -85.5t-62.5 -147.5t-122 -274.5q-16 35 -49 115t-72 181t-63.5 177t-24.5 98q0 29 32 39.5t87 10.5q20 0 20 24q0 10 -3 19.5t-13 9.5 q-20 0 -121 -2q-102 -2 -123 -2q-33 0 -96 2q-66 2 -98 2q-23 0 -23 -23z" />
<glyph unicode="w" horiz-adv-x="1441" d="M-16 854q0 -14 6 -17t20 -3q43 0 69.5 -11.5t43.5 -40.5q6 -10 19.5 -42.5t60.5 -157.5q96 -252 153 -402l29 -76q35 -88 46 -110.5t26 -22.5q14 0 26.5 20.5t38.5 84.5q37 86 66 143l153 322q35 -102 93 -281q55 -176 84 -260q8 -29 30 -29q14 0 25 15q6 6 23.5 48 t45 109.5t60.5 151.5t57 145q25 61 58.5 147.5t42.5 102.5q25 55 37 80t28 39t37.5 19.5t62.5 5.5q16 0 23.5 9t7.5 19q0 25 -18 25h-25q-57 -4 -108 -4q-82 0 -146 4h-31q-27 0 -26 -25q0 -25 26 -28q49 -10 69 -20.5t20 -31.5q0 -18 -12.5 -58t-31 -91t-35 -90t-57.5 -144 q-33 -80 -47 -115.5t-22 -58.5h-4q-4 25 -24.5 87.5t-53.5 162.5q-49 150 -74 228.5t-25 99.5q0 10 18.5 20.5t74.5 10.5q14 0 19 8t5 20q0 25 -18 25q-33 0 -86 -2q-76 -2 -111 -2q-61 0 -117 2q-27 2 -43 2q-27 0 -26 -25q0 -16 8 -22t37 -6q43 0 53 -17q8 -12 18.5 -39.5 t20.5 -58.5t16.5 -58.5t6.5 -39.5t-32 -80t-85 -170q-31 -66 -48.5 -99.5t-21.5 -46.5h-4q-6 23 -31.5 93.5t-64.5 168.5q-51 129 -80 208t-29 91q0 16 13.5 26.5t32 14.5t35 5.5t28.5 1.5q20 0 20 24q0 10 -3 19.5t-13 9.5q-27 0 -143 -2q-68 -2 -80 -2q-33 0 -97 2 q-66 2 -98 2q-23 0 -22 -17v-16z" />
<glyph unicode="x" horiz-adv-x="909" d="M-10 23q0 -10 3 -18.5t9 -8.5q25 0 68 2q59 2 84 2q31 0 90 -2t88 -2q20 0 20 22q0 31 -30 31q-27 0 -59 9.5t-32 29.5q0 31 39 89.5t146 187.5q47 -78 71.5 -121t41 -75t21.5 -48.5t5 -28.5q0 -25 -25.5 -34t-48.5 -9t-22 -26q0 -27 26 -27q31 0 97 2t96 2q35 0 108 -2 q74 -2 109 -2q23 0 23 22q0 10 -3.5 20.5t-13.5 10.5q-106 0 -143 60q-72 121 -156 264q-37 61 -47 78.5t-10 21.5q0 14 6 27q88 129 128 185t68.5 87t54 41t72.5 21q10 4 17.5 9t7.5 17q0 6 -5 16.5t-13 10.5h-27q-55 -4 -115 -4q-37 0 -102 2q-55 2 -70 2q-20 0 -20 -27 q0 -8 4 -17t14 -9q29 0 58.5 -9.5t29.5 -44.5q0 -14 -13 -40.5t-32.5 -56.5t-40 -58.5t-45.5 -59.5l-20 -28q-45 74 -75 125t-43 76.5t-17.5 36.5t-4.5 20q0 14 10.5 20t51.5 19q20 2 20 22q0 12 -4 21.5t-14 9.5q-31 0 -92 -2t-92 -2t-97 2t-96 2q-29 0 -29 -23 q0 -31 21 -30q39 0 62.5 -8.5t41.5 -26.5l2 -2q8 -8 19.5 -21.5t35 -49.5t63.5 -103.5t102 -178.5l6 -12q6 -10 6 -16q0 -12 -5 -20.5t-22 -26.5q-82 -96 -184 -224q-41 -51 -49 -59q-14 -16 -45 -26.5t-49 -10.5q-35 0 -35 -26z" />
<glyph unicode="y" horiz-adv-x="985" d="M-41 862q0 -29 18 -28q45 0 90.5 -8.5t57.5 -39.5q16 -45 47 -147q37 -123 72 -226.5t92 -250.5l4 -12q31 -76 49.5 -131.5t18.5 -86.5q0 -35 -14.5 -84t-38 -98t-45 -79.5t-36.5 -30.5q-10 0 -32 12q-37 22 -67 22h-3q-45 0 -82 -32.5t-37 -77.5q0 -49 33 -85t82 -36 q31 0 56.5 12.5t59 53t78 128t99.5 228.5q8 18 30.5 69.5t46 103.5t67.5 146.5t75 159.5q158 344 182 399q23 51 48.5 68.5t80.5 22.5q35 2 35 26q0 10 -2 18.5t-12 8.5q-31 0 -94 -2t-97 -2q-33 0 -98 2q-68 2 -100 2q-18 0 -19 -27q0 -27 21 -26q70 0 113.5 -12.5 t43.5 -57.5q0 -23 -26.5 -93.5t-66.5 -161.5t-85 -184.5t-86 -179.5q-106 274 -154.5 424t-48.5 219q0 16 12.5 25.5t30 13.5t33 5.5t25.5 1.5q20 0 20 26q0 27 -24 27q-29 0 -95 -2q-72 -2 -108 -2q-47 0 -166 2q-57 2 -61 2q-23 0 -23 -25z" />
<glyph unicode="z" horiz-adv-x="909" d="M80 16q0 -16 26 -16h447q78 0 174 -4h41q27 0 40 6t19 29q14 59 27.5 109t26.5 91q12 43 12 45q0 23 -23 23q-16 0 -23 -7t-24 -36q-2 -2 -6 -8l-67 -113q-29 -51 -67 -62.5t-126 -11.5h-281q55 88 115 177.5t133 199.5q55 82 68 101q68 106 112 168.5t87 119.5 q36 45 36 55q0 4 -7 7.5t-11 3.5q-8 0 -49 -2q-88 -2 -184.5 -5t-206.5 -3q-70 0 -110 2t-50 8l-14 14q-23 25 -37 25q-20 0 -21 -21q-4 -47 -14 -94t-23 -96q-14 -53 -14 -64q0 -18 23 -18q16 0 27 10t28 51q35 82 99.5 103.5t174.5 21.5q37 0 107 -2l53 -2 q-158 -223 -283 -412.5t-223 -365.5q0 -2 -2 -4q-10 -16 -10 -23z" />
<glyph unicode="{" horiz-adv-x="645" d="M78 528q0 -16 37 -26q29 -6 45 -15q37 -16 62.5 -64t25.5 -124v-381q0 -190 71.5 -254.5t243.5 -64.5q18 0 24.5 4t6.5 22t-6 22.5t-25 4.5q-88 0 -127 50t-39 159v372q0 131 -33.5 198t-144.5 93v8q109 25 143.5 85.5t34.5 185.5v395q0 109 39 159t127 50q18 0 24.5 4 t6.5 23q0 18 -6 22t-25 4q-172 0 -243.5 -64.5t-71.5 -254.5v-391q0 -74 -25.5 -121t-62.5 -62q-16 -6 -43 -12q-39 -9 -39 -27z" />
<glyph unicode="|" d="M465 0h133v1436h-133v-1436z" />
<glyph unicode="}" horiz-adv-x="645" d="M51 -375q0 -18 6 -22t25 -4q174 0 244.5 64.5t70.5 254.5v391q0 74 26 121t62 62q16 6 43 12q39 10 39 26t-37 27q-29 8 -45 14q-37 16 -62.5 64.5t-25.5 124.5v381q0 190 -70.5 254.5t-244.5 64.5q-18 0 -24.5 -4t-6.5 -22t6 -22.5t25 -4.5q88 0 127 -50t39 -159v-373 q0 -131 33.5 -197.5t144.5 -92.5v-9q-106 -25 -142 -85t-36 -185v-395q0 -109 -39 -159t-127 -50q-18 0 -24.5 -4t-6.5 -23z" />
<glyph unicode="~" d="M90 440l105 -96l4 6q47 86 87 133t89 47q23 0 52.5 -15t76.5 -44q4 -4 14 -10q51 -33 93 -51.5t83 -18.5q98 0 158.5 57.5t120.5 165.5l-105 97l-4 -6q-47 -86 -86 -133.5t-90 -47.5q-23 0 -51.5 15.5t-77.5 44.5q-4 4 -14 10q-51 33 -93 51.5t-83 18.5 q-98 0 -158.5 -57.5t-120.5 -166.5z" />
<glyph unicode="&#xa1;" horiz-adv-x="606" d="M188 819q0 -51 36 -82.5t79 -31.5t79 31.5t36 82.5t-36 83t-79 32t-79 -32t-36 -83zM195 -496q0 -31 26.5 -39t81.5 -8q49 0 74.5 8.5t25.5 38.5q0 27 -10 84q-6 37 -8 58q-8 88 -17.5 186t-16.5 201.5t-11 188.5t-4 140q0 37 -8.5 47.5t-24.5 10.5t-24.5 -10.5 t-8.5 -47.5q0 -57 -5 -145t-13 -175t-18.5 -194.5t-20.5 -201.5q-2 -20 -8 -58q-10 -57 -10 -84z" />
<glyph unicode="&#xa2;" d="M139 436q0 -158 67.5 -269.5t182.5 -158.5q-41 -111 -50 -136.5t-9 -31.5t23.5 -14t33.5 -8q8 0 13.5 11t17.5 46l12 41l25 70q51 -14 108 -15q205 0 359 174q16 16 16 31q0 10 -12.5 19.5t-18.5 9.5t-18 -15q-12 -14 -17 -18q-37 -31 -96 -58.5t-110 -27.5 q-96 0 -166 33l227 680h4q14 -96 32.5 -127t67.5 -31q53 0 81 34t28 54q0 39 -41 92t-135 82q18 53 35 98q16 43 16 54q0 8 -21.5 16t-27.5 8q-10 0 -16 -10q-2 -2 -8.5 -23.5t-18.5 -52.5q-20 -66 -25 -78q-57 8 -94 9q-203 0 -334 -132.5t-131 -355.5zM317 434 q0 121 26 206t68 135t92 72.5t103 22.5q43 0 72 -14l-238 -702q-70 55 -96.5 133t-26.5 147z" />
<glyph unicode="&#xa3;" d="M-23 154q0 -74 54.5 -122t128.5 -48q76 0 119 27.5t100 94.5q86 -66 161.5 -98.5t166.5 -32.5q98 0 168.5 58.5t110.5 139.5t58.5 155.5t18.5 103.5q0 6 -22.5 11.5t-30.5 5.5q-6 0 -17 -35q-12 -45 -29.5 -83t-49 -78t-87 -66.5t-131.5 -26.5q-133 0 -247 67 q43 84 72.5 163t29.5 140q0 49 -6 76h327q18 0 19 21v63q0 14 -4 18.5t-19 4.5h-348q-16 47 -82 161q-55 94 -83.5 157t-28.5 114q0 115 78.5 185.5t195.5 70.5q86 0 153.5 -44t67.5 -108q0 -23 -10 -40t-31 -38q-25 -29 -38 -50t-13 -54q0 -43 37 -72.5t82 -29.5 q70 0 104.5 56t34.5 130q0 49 -23.5 103.5t-72.5 101.5t-128 76.5t-181 29.5q-78 0 -159 -28.5t-147.5 -81t-105.5 -123t-39 -152.5q0 -80 47 -167t127 -197h-229q-18 0 -19 -17v-67q0 -14 4.5 -18.5t18.5 -4.5h285q20 -37 28 -86t8 -102q0 -25 -12 -77t-22 -79q-6 4 -37 19 q-55 29 -93 42t-87 13q-74 0 -123.5 -54.5t-49.5 -127.5zM47 156q0 43 28.5 69.5t71.5 26.5q39 0 76 -23.5t86 -64.5l8 -8q-31 -45 -69.5 -75t-83.5 -30q-47 0 -82 30t-35 75z" />
<glyph unicode="&#xa4;" d="M16 299l105 -104l108 108q131 -106 310 -106q84 0 161.5 27.5t139.5 78.5l108 -108l101 104l-107 109q51 61 78 139t27 160t-28 161.5t-81 141.5l111 106l-105 107l-108 -109q-61 49 -137 74.5t-158 25.5q-84 0 -165 -26.5t-145 -77.5l-110 113l-105 -107l111 -110 q-51 -61 -76.5 -140.5t-25.5 -163.5q0 -160 100 -294zM190 702q0 76 28 141.5t76 114t111.5 75t135.5 26.5q70 0 131 -27.5t108 -77t74 -113t27 -134.5q0 -72 -27 -136.5t-73 -113.5t-109.5 -77t-132.5 -28q-70 0 -133.5 27t-111.5 74t-76 111t-28 138z" />
<glyph unicode="&#xa5;" d="M-53 1432q0 -33 16 -33q72 0 104.5 -18.5t47.5 -53.5l252 -618h-240v-95h274q25 -43 29 -68.5t4 -96.5h-307v-95h307v-207q0 -47 -36 -68.5t-148 -21.5q-39 0 -48 -7t-9 -27q0 -27 16 -27h8q66 4 315 4q252 0 318 -4h8q16 0 16 27q0 20 -9 27t-48 7q-113 0 -150.5 21.5 t-37.5 68.5v207h307v95h-307q0 68 4 99.5t16 65.5h287v95h-250l238 577q23 53 60.5 83t102.5 30q29 0 29 33q0 29 -26 28q-10 0 -70 -2q-102 -6 -123 -6q-8 0 -39 1t-74 3q-76 4 -86 4q-27 0 -26 -28q0 -18 7 -25.5t34 -7.5q74 0 97.5 -20.5t23.5 -51.5q0 -12 -6.5 -32.5 t-24 -68.5t-46 -123t-83.5 -212q-31 -78 -61.5 -138.5t-39.5 -60.5q-6 0 -13 16.5t-23 59.5q-14 37 -23 59q-47 123 -88 231.5t-61.5 166t-27.5 81t-7 29.5q0 35 40 49.5t126 14.5q6 0 9 10t3 21q0 20 -8 25t-33 5q-31 0 -113 -4q-94 -4 -145 -4q-49 0 -137 4q-66 4 -90 4 q-18 0 -26.5 -5t-8.5 -23z" />
<glyph unicode="&#xa6;" d="M465 0h133v582h-133v-582zM465 854h133v582h-133v-582z" />
<glyph unicode="&#xa7;" d="M111 782q0 -129 73.5 -240.5t218.5 -269.5q131 -141 193.5 -234t62.5 -192q0 -63 -46 -119.5t-107 -56.5q-25 0 -46.5 11.5t-56.5 37.5q-37 29 -65.5 43.5t-63.5 14.5t-62.5 -20.5t-27.5 -53.5q0 -59 58.5 -90t126.5 -31q129 0 230 58.5t146 185.5q61 63 103.5 135 t65 138.5t30.5 124t8 102.5q0 86 -25.5 161.5t-69.5 142t-91 118t-123 129.5q-115 117 -169 191.5t-54 158.5q0 68 39 113.5t104 45.5q33 0 57.5 -15t57.5 -48q35 -35 62.5 -52.5t66.5 -17.5q33 0 54.5 23.5t21.5 54.5q0 61 -76 99q-29 14 -64.5 21t-66.5 7 q-59 0 -118.5 -12t-114 -43t-94.5 -85t-54 -134q-94 -104 -139 -199.5t-45 -202.5zM217 870q0 131 90 248q20 -104 86 -195.5t189 -224.5q141 -150 210.5 -256t69.5 -233q0 -74 -27.5 -144.5t-76.5 -150.5l-4 4v16q2 8 2 15q0 70 -18.5 124t-41.5 93q-35 57 -83 116.5 t-128 147.5q-135 150 -201.5 247t-66.5 193z" />
<glyph unicode="&#xa8;" horiz-adv-x="569" d="M-20 1221q0 -41 30.5 -72t69.5 -31q41 0 71.5 31t30.5 72q0 39 -30.5 69.5t-71.5 30.5q-39 0 -69.5 -30.5t-30.5 -69.5zM387 1221q0 -41 30.5 -72t69.5 -31q41 0 72 31t31 72q0 39 -31 69.5t-72 30.5q-39 0 -69.5 -30.5t-30.5 -69.5z" />
<glyph unicode="&#xa9;" horiz-adv-x="1720" d="M88 725q0 -154 58.5 -291t164 -241.5t246.5 -163t301 -58.5t301 58.5t247.5 163t165 241.5t58.5 291t-58.5 292t-165 242.5t-247.5 163t-301 58.5t-301 -58.5t-246.5 -163t-164 -241.5t-58.5 -293zM221 725q0 131 48 249t136.5 209t205 141t247.5 50t248 -50t205 -140 t137 -209t49 -250q0 -129 -49 -247t-137 -209t-205 -141t-248 -50t-247.5 51t-205 140t-136.5 208t-48 248zM455 717q0 -182 111.5 -302t289.5 -120q121 0 214 52t134 151l-63 22q-33 -72 -89.5 -112.5t-133.5 -40.5q-74 0 -130.5 31.5t-93.5 85t-55 119t-18 136.5 q0 143 71.5 243.5t208.5 100.5q96 0 150.5 -57t64.5 -158h66v222q-80 27 -155 41t-144 14q-190 0 -309 -118t-119 -310z" />
<glyph unicode="&#xaa;" horiz-adv-x="614" d="M45 973q0 -41 37 -76t78 -35q53 0 97 18.5t97 53.5q35 -72 121 -72q12 0 32.5 11.5t43 26.5t38 29.5t15.5 20.5q0 20 -20 21q-4 0 -17 -8q-27 -18 -47 -19q-18 0 -24.5 17.5t-6.5 48.5v307q0 39 -50 79t-134 40q-33 0 -57.5 -8.5t-57.5 -24.5q-76 -43 -110.5 -73 t-34.5 -66q0 -37 16.5 -52.5t40.5 -15.5q86 0 86 57q0 14 -12 41q-8 16 -8 21q0 14 28.5 31.5t53.5 17.5t65.5 -23.5t40.5 -50.5v-94q-178 -59 -244.5 -113.5t-66.5 -109.5zM188 993q0 57 41 88q20 16 67.5 39t59.5 23v-131q0 -23 -36.5 -47.5t-77.5 -24.5q-20 0 -37 13.5 t-17 39.5z" />
<glyph unicode="&#xab;" horiz-adv-x="1138" d="M33 471q0 -8 51 -33q39 -18 61 -30q141 -78 224.5 -140.5t150.5 -126.5q47 -43 62 -43q8 0 17 7.5t9 13.5q0 18 -32.5 61t-84 96.5t-113 105.5t-118.5 89q39 25 98.5 73t118 104.5t95 102.5t36.5 66q0 8 -9 14.5t-17 6.5q-2 0 -21 -17q-59 -55 -152.5 -123.5 t-263.5 -162.5q-23 -12 -61 -31q-51 -25 -51 -33zM489 471q0 -8 52 -33q39 -18 61 -30q141 -78 224 -140.5t151 -126.5q47 -43 61 -43q8 0 17.5 7.5t9.5 13.5q0 18 -33 61t-84 96.5t-112.5 105.5t-118.5 89q39 25 98 73t117.5 104.5t95.5 102.5t37 66q0 8 -9 14.5t-18 6.5 q-2 0 -20 -17q-59 -55 -152.5 -123.5t-263.5 -162.5q-23 -12 -61 -31q-51 -25 -52 -33z" />
<glyph unicode="&#xac;" d="M90 553h750v-338h133v471h-883v-133z" />
<glyph unicode="&#xad;" horiz-adv-x="796" d="M94 471q0 -35 4 -50t23 -15h551q23 0 26.5 10t3.5 47q0 47 -4 61.5t-22 14.5h-557q-16 0 -20.5 -18.5t-4.5 -49.5z" />
<glyph unicode="&#xae;" horiz-adv-x="1720" d="M88 725q0 -154 58.5 -291t164 -241.5t246.5 -163t301 -58.5t301 58.5t247.5 163t165 241.5t58.5 291t-58.5 292t-165 242.5t-247.5 163t-301 58.5t-301 -58.5t-246.5 -163t-164 -241.5t-58.5 -293zM221 725q0 131 48 249t136.5 209t205 141t247.5 50t248 -50t205 -140 t137 -209t49 -250q0 -129 -49 -247t-137 -209t-205 -141t-248 -50t-247.5 51t-205 140t-136.5 208t-48 248zM518 338h328v53h-37q-31 2 -44 16.5t-15 49.5v258h34q47 0 74 -6.5t43.5 -21.5t30.5 -44t41 -92l14 -33q10 -20 14 -33q25 -55 39.5 -80.5t34 -41t50 -20.5t85.5 -5 h60v53h-21q-33 0 -53 25.5t-61 124.5q-33 76 -78 131t-109 65v4q94 12 158.5 67.5t64.5 147.5q0 68 -28.5 109t-75.5 61.5t-101.5 26.5t-119.5 6h-328v-53h37q33 -2 47 -16.5t14 -59.5v-571q0 -43 -10 -53.5t-49 -14.5h-39v-53zM750 768v287q0 16 10 33.5t35 17.5 q109 0 168 -36t59 -128q0 -104 -58.5 -139t-166.5 -35h-47z" />
<glyph unicode="&#xaf;" horiz-adv-x="569" d="M2 1169h565v107h-565v-107z" />
<glyph unicode="&#xb0;" horiz-adv-x="819" d="M98 1128q0 -127 91.5 -217t220.5 -90q63 0 120.5 23.5t100.5 66.5t66.5 98.5t23.5 118.5q0 61 -23.5 118t-66.5 100t-100.5 66.5t-120.5 23.5t-121 -23.5t-100 -65.5t-66.5 -98.5t-24.5 -120.5zM205 1128q0 96 58.5 154.5t144.5 58.5q88 0 147 -58.5t59 -154.5 t-58 -154.5t-146 -58.5t-146.5 57.5t-58.5 155.5z" />
<glyph unicode="&#xb1;" d="M90 0h883v133h-883v-133zM90 481h375v-268h133v268h375v133h-375v269h-133v-269h-375v-133z" />
<glyph unicode="&#xb2;" horiz-adv-x="636" d="M41 573h463q23 66 43 121q12 33 12 37q0 16 -22 17q-12 0 -35 -23q-18 -20 -38 -32.5t-50 -12.5h-230q14 14 62 65q154 160 228.5 267.5t74.5 220.5q0 92 -59.5 147.5t-159.5 55.5q-59 0 -106.5 -17.5t-78 -41t-48 -46t-17.5 -28.5q0 -25 20 -25q6 0 25 14q29 23 58.5 36 t74.5 13q55 0 98 -36.5t43 -130.5q0 -90 -80.5 -220.5t-277.5 -320.5v-60z" />
<glyph unicode="&#xb3;" horiz-adv-x="636" d="M72 610q0 -29 27.5 -43t58.5 -14q59 0 123.5 25.5t120 70.5t89 101.5t33.5 115.5q0 78 -53 136.5t-131 78.5q78 47 118 92.5t40 112.5q0 18 -8.5 43t-30 49.5t-61.5 41t-99 16.5q-43 0 -84 -12.5t-73.5 -32t-51 -38t-18.5 -26.5q0 -27 12 -27q6 0 22 13q27 16 50.5 26.5 t60.5 10.5q63 0 97 -34t34 -81q0 -68 -51 -120t-121 -73q-10 -4 -10 -22q0 -23 14 -23q92 0 143.5 -52t51.5 -144q0 -76 -38 -123t-87 -47q-29 0 -66 24q-35 23 -59 23q-23 0 -38 -16.5t-15 -51.5z" />
<glyph unicode="&#xb4;" horiz-adv-x="569" d="M129 1085h80l317 199q23 14 41.5 34.5t18.5 41.5q0 76 -72 76q-18 0 -44 -15.5t-40 -31.5z" />
<glyph unicode="&#xb5;" d="M-8 848q0 -14 13 -17.5t32 -3.5q45 0 67.5 -5t36 -23.5t18.5 -55t5 -108.5v-666q0 -82 -6 -143.5t-17 -128.5q-12 -76 -12 -107q0 -18 17.5 -43.5t44 -49t53 -39t45.5 -15.5q37 0 54 8t17 37q0 14 -16 45q-25 49 -42 117.5t-17 206.5q0 61 4 94t10 45q18 -10 48 -17.5 t77 -7.5q63 0 147 30t158 83q0 -6 -2 -12q-4 -47 -4 -66q0 -29 25 -29q4 0 20 7q39 10 85 21t130 26q47 8 57.5 12t10.5 14q0 27 -2 33t-11 6q-6 0 -30 -2q-41 -6 -58 -6q-35 0 -43 20.5t-8 55.5v385q0 74 5 153.5t11 137.5l3 20q0 29 -29 29t-78 -2q-49 -4 -78 -4 q-59 0 -93 2t-54 2q-20 2 -31 2q-14 0 -14 -41q0 -14 15 -17.5t50 -3.5q82 0 104.5 -20.5t22.5 -101.5v-531q0 -23 -20.5 -43t-52 -34.5t-66.5 -22.5t-64 -8q-109 0 -154.5 60t-45.5 181v553q0 20 -3 24.5t-14 4.5q-14 0 -51 -2q-80 -4 -127 -4q-45 0 -94 4q-20 2 -27 2 q-14 0 -18 -11.5t-4 -29.5z" />
<glyph unicode="&#xb6;" horiz-adv-x="1241" d="M106 1063q0 -195 105.5 -297t284.5 -102h77v-848q0 -94 -12 -125t-55 -31h-84v-61h713v61h-64q-41 0 -54 30.5t-13 125.5v1427q0 94 13 125t54 31h64v61h-639q-178 0 -284 -102.5t-106 -294.5zM377 993v137q0 145 40 207t156 62v-674q-113 0 -154.5 65.5t-41.5 202.5z M707 -340v1739h163v-1739h-163z" />
<glyph unicode="&#xb7;" horiz-adv-x="530" d="M139 440q0 -53 36 -89t89 -36q55 0 90 36t35 89t-35 89t-90 36q-53 0 -89 -35.5t-36 -89.5z" />
<glyph unicode="&#xb8;" horiz-adv-x="569" d="M80 -408q90 -33 170 -32q37 0 74.5 4t81 19.5t73 52t29.5 96.5q0 70 -50 105.5t-122 35.5q-31 0 -60 -6l54 133h-72l-86 -203l14 -10q45 10 86 10q39 0 62.5 -21.5t23.5 -58.5q0 -45 -34.5 -65.5t-83.5 -20.5t-131 25z" />
<glyph unicode="&#xb9;" horiz-adv-x="636" d="M106 1315q0 -27 21 -27q80 0 98.5 -9t18.5 -56v-478q0 -84 -16.5 -103t-96.5 -19q-14 0 -14 -27t16 -27q8 0 27 2q61 2 145 2q117 0 193 -4h10q12 0 12 17q0 37 -12 37q-78 0 -96.5 21.5t-18.5 68.5v499q0 47 8 131q4 55 5 74q0 10 -10.5 14.5t-22.5 4.5q-23 0 -31 -9 q-35 -35 -91 -54t-124 -32q-12 -2 -16.5 -6t-4.5 -20z" />
<glyph unicode="&#xba;" horiz-adv-x="696" d="M33 1149q0 -125 88 -206t227 -81q141 0 228.5 79t87.5 208q0 125 -89.5 206t-226.5 81q-135 0 -225 -82t-90 -205zM199 1149q0 100 34.5 166.5t114.5 66.5t115 -66.5t35 -166.5q0 -45 -5.5 -84t-20.5 -73t-45 -55.5t-79 -21.5t-78.5 21.5t-45 55.5t-20.5 73t-5 84z" />
<glyph unicode="&#xbb;" horiz-adv-x="1138" d="M74 125q0 -6 9 -13.5t17 -7.5q2 0 21 17q59 55 152.5 123.5t263.5 163.5q23 12 61 30q51 25 51 33t-51 33q-39 18 -61 31q-141 80 -224.5 142t-150.5 124q-47 43 -62 43q-8 0 -17 -6.5t-9 -14.5q0 -18 32.5 -61t84 -96.5t113 -104.5t118.5 -90q-39 -25 -98.5 -73 t-118 -104t-95 -102.5t-36.5 -66.5zM530 125q0 -6 9.5 -13.5t17.5 -7.5q2 0 21 17q59 55 152 123.5t263 163.5q23 12 62 30q51 25 51 33t-51 33q-39 18 -62 31q-141 80 -224 142t-151 124q-47 43 -61 43q-8 0 -17.5 -6.5t-9.5 -14.5q0 -18 33 -61t84 -96.5t113 -104.5 t119 -90q-39 -25 -98.5 -73t-118 -104t-95.5 -102.5t-37 -66.5z" />
<glyph unicode="&#xbc;" horiz-adv-x="1593" d="M106 1315q0 -27 21 -27q80 0 98.5 -9t18.5 -56v-478q0 -84 -16.5 -103t-96.5 -19q-14 0 -14 -27t16 -27q8 0 27 2q61 2 145 2q117 0 193 -4h10q12 0 12 17q0 37 -12 37q-78 0 -96.5 21.5t-18.5 68.5v499q0 47 8 131q4 55 5 74q0 10 -10.5 14.5t-22.5 4.5q-23 0 -31 -9 q-35 -35 -91 -54t-124 -32q-12 -2 -16.5 -6t-4.5 -20zM268 0h113l881 1413h-113zM840 309q0 -39 2 -45t10 -8h393v-270q0 -23 19 -23h96q18 0 18 23v270h140q25 0 24 12v78q0 16 -18 16h-146v365q0 25 4 53q2 27 2 43q0 59 -53 60q-20 0 -33.5 -8.5t-31.5 -26.5 q-6 -4 -13 -10q-82 -78 -157.5 -164t-132 -160t-90 -129t-33.5 -76zM958 377q0 16 31 62t79 106.5t96 114t81 77.5v-375h-262q-10 0 -17.5 3.5t-7.5 11.5z" />
<glyph unicode="&#xbd;" horiz-adv-x="1593" d="M106 1315q0 -27 21 -27q80 0 98.5 -9t18.5 -56v-478q0 -84 -16.5 -103t-96.5 -19q-14 0 -14 -27t16 -27q8 0 27 2q61 2 145 2q117 0 193 -4h10q12 0 12 17q0 37 -12 37q-78 0 -96.5 21.5t-18.5 68.5v499q0 47 8 131q4 55 5 74q0 10 -10.5 14.5t-22.5 4.5q-23 0 -31 -9 q-35 -35 -91 -54t-124 -32q-12 -2 -16.5 -6t-4.5 -20zM299 0h113l880 1413h-112zM993 0h463q23 66 43 121q12 33 12 37q0 16 -22 16q-12 0 -35 -22q-18 -20 -37.5 -33t-50.5 -13h-229q14 14 61 66q154 160 228.5 267.5t74.5 219.5q0 92 -59.5 147.5t-159.5 55.5 q-59 0 -106.5 -17.5t-78 -41t-48 -46t-17.5 -28.5q0 -25 21 -24q6 0 24 14q29 23 58.5 36t74.5 13q55 0 98.5 -37t43.5 -131q0 -90 -81 -220t-278 -321v-59z" />
<glyph unicode="&#xbe;" horiz-adv-x="1593" d="M72 610q0 -29 27.5 -43t58.5 -14q59 0 123.5 25.5t120 70.5t89 101.5t33.5 115.5q0 78 -53 136.5t-131 78.5q78 47 118 92.5t40 112.5q0 18 -8.5 43t-30 49.5t-61.5 41t-99 16.5q-43 0 -84 -12.5t-73.5 -32t-51 -38t-18.5 -26.5q0 -27 12 -27q6 0 22 13q27 16 50.5 26.5 t60.5 10.5q63 0 97 -34t34 -81q0 -68 -51 -120t-121 -73q-10 -4 -10 -22q0 -23 14 -23q92 0 143.5 -52t51.5 -144q0 -76 -38 -123t-87 -47q-29 0 -66 24q-35 23 -59 23q-23 0 -38 -16.5t-15 -51.5zM227 0h113l881 1413h-113zM840 309q0 -39 2 -45t10 -8h393v-270 q0 -23 19 -23h96q18 0 18 23v270h140q25 0 24 12v78q0 16 -18 16h-146v365q0 25 4 53q2 27 2 43q0 59 -53 60q-20 0 -33.5 -8.5t-31.5 -26.5q-6 -4 -13 -10q-82 -78 -157.5 -164t-132 -160t-90 -129t-33.5 -76zM958 377q0 16 31 62t79 106.5t96 114t81 77.5v-375h-262 q-10 0 -17.5 3.5t-7.5 11.5z" />
<glyph unicode="&#xbf;" horiz-adv-x="872" d="M184 37q0 -25 4.5 -70t14.5 -105.5t32.5 -125t55.5 -115.5q27 -43 58.5 -66.5t70.5 -33.5t87 -12.5t136 -2.5q10 0 16.5 -9t12.5 -25q10 -29 20 -29q35 0 35 20q0 129 -11 170t-46 41q-14 0 -61.5 2t-101.5 6.5t-97 10.5t-52 16l-10 10q-41 41 -73.5 103.5t-32.5 169.5 q0 86 32.5 125t137.5 39h163q35 0 44.5 4t9.5 22v334q0 6 -6.5 13.5t-22.5 7.5q-29 0 -29 -17q0 -90 -8 -131t-31 -53q-14 -8 -96 -14q-94 -10 -133 -19q-8 -2 -26.5 -18.5t-40 -48t-37 -82t-15.5 -117.5zM469 819q0 -51 36 -82.5t79 -31.5t78.5 31.5t35.5 82.5t-35.5 83 t-78.5 32t-79 -32t-36 -83z" />
<glyph unicode="&#xc0;" horiz-adv-x="1366" d="M-25 31q0 -35 15 -35h16q53 4 146 4q190 0 274 -4h12q25 0 25 33q0 16 -22.5 22t-108.5 6q-70 0 -88.5 21.5t-18.5 52.5q0 29 27 113t86 241q12 31 24.5 37t59.5 6h422q8 -20 35 -88q33 -82 49 -124t32.5 -84t27.5 -78.5t11 -51.5q0 -27 -23.5 -36t-84.5 -9 q-39 0 -62.5 -5t-23.5 -19q0 -37 10 -37h10q68 4 295 4q188 0 269 -4h16q12 0 17 12t5 27q0 10 -21.5 16t-39.5 6q-61 0 -96 21.5t-60 77.5q-39 92 -98 240.5t-120.5 309t-101.5 267t-134 362.5q-41 109 -45 121q-6 16 -12.5 20.5t-22.5 4.5q-20 0 -27.5 -3t-11.5 -16 q-135 -340 -253 -659.5t-228 -640.5q-18 -55 -45 -80t-60 -25q-76 0 -76 -26zM360 1933q0 -20 18.5 -40.5t41.5 -34.5l317 -199h80l-301 303q-14 16 -39.5 31.5t-44.5 15.5q-72 0 -72 -76zM387 618q0 10 29.5 98.5t70.5 204t73 195.5t36 80h4l217 -600h-352q-51 0 -64.5 3 t-13.5 19z" />
<glyph unicode="&#xc1;" horiz-adv-x="1366" d="M-25 31q0 -35 15 -35h16q53 4 146 4q190 0 274 -4h12q25 0 25 33q0 16 -22.5 22t-108.5 6q-70 0 -88.5 21.5t-18.5 52.5q0 29 27 113t86 241q12 31 24.5 37t59.5 6h422q8 -20 35 -88q33 -82 49 -124t32.5 -84t27.5 -78.5t11 -51.5q0 -27 -23.5 -36t-84.5 -9 q-39 0 -62.5 -5t-23.5 -19q0 -37 10 -37h10q68 4 295 4q188 0 269 -4h16q12 0 17 12t5 27q0 10 -21.5 16t-39.5 6q-61 0 -96 21.5t-60 77.5q-39 92 -98 240.5t-120.5 309t-101.5 267t-134 362.5q-41 109 -45 121q-6 16 -12.5 20.5t-22.5 4.5q-20 0 -27.5 -3t-11.5 -16 q-135 -340 -253 -659.5t-228 -640.5q-18 -55 -45 -80t-60 -25q-76 0 -76 -26zM387 618q0 10 29.5 98.5t70.5 204t73 195.5t36 80h4l217 -600h-352q-51 0 -64.5 3t-13.5 19zM590 1659h80l317 199q23 14 41.5 34.5t18.5 40.5q0 76 -72 76q-18 0 -44 -15.5t-40 -31.5z" />
<glyph unicode="&#xc2;" horiz-adv-x="1366" d="M-25 31q0 -35 15 -35h16q53 4 146 4q190 0 274 -4h12q25 0 25 33q0 16 -22.5 22t-108.5 6q-70 0 -88.5 21.5t-18.5 52.5q0 29 27 113t86 241q12 31 24.5 37t59.5 6h422q8 -20 35 -88q33 -82 49 -124t32.5 -84t27.5 -78.5t11 -51.5q0 -27 -23.5 -36t-84.5 -9 q-39 0 -62.5 -5t-23.5 -19q0 -37 10 -37h10q68 4 295 4q188 0 269 -4h16q12 0 17 12t5 27q0 10 -21.5 16t-39.5 6q-61 0 -96 21.5t-60 77.5q-39 92 -98 240.5t-120.5 309t-101.5 267t-134 362.5q-41 109 -45 121q-6 16 -12.5 20.5t-22.5 4.5q-20 0 -27.5 -3t-11.5 -16 q-135 -340 -253 -659.5t-228 -640.5q-18 -55 -45 -80t-60 -25q-76 0 -76 -26zM336 1661h67l250 211l248 -211h72l-256 340h-127zM387 618q0 10 29.5 98.5t70.5 204t73 195.5t36 80h4l217 -600h-352q-51 0 -64.5 3t-13.5 19z" />
<glyph unicode="&#xc3;" horiz-adv-x="1366" d="M-25 31q0 -35 15 -35h16q53 4 146 4q190 0 274 -4h12q25 0 25 33q0 16 -22.5 22t-108.5 6q-70 0 -88.5 21.5t-18.5 52.5q0 29 27 113t86 241q12 31 24.5 37t59.5 6h422q8 -20 35 -88q33 -82 49 -124t32.5 -84t27.5 -78.5t11 -51.5q0 -27 -23.5 -36t-84.5 -9 q-39 0 -62.5 -5t-23.5 -19q0 -37 10 -37h10q68 4 295 4q188 0 269 -4h16q12 0 17 12t5 27q0 10 -21.5 16t-39.5 6q-61 0 -96 21.5t-60 77.5q-39 92 -98 240.5t-120.5 309t-101.5 267t-134 362.5q-41 109 -45 121q-6 16 -12.5 20.5t-22.5 4.5q-20 0 -27.5 -3t-11.5 -16 q-135 -340 -253 -659.5t-228 -640.5q-18 -55 -45 -80t-60 -25q-76 0 -76 -26zM348 1677h62q4 43 29.5 71t66.5 28q27 0 62.5 -12.5t93.5 -37.5l4 -2q55 -23 91 -34t66 -11q82 0 130 65.5t67 156.5h-62q-4 -43 -29.5 -71t-66.5 -28q-27 0 -62.5 12.5t-92.5 36.5l-2 2 q-57 23 -93.5 34t-66.5 11q-82 0 -130 -65.5t-67 -155.5zM387 618q0 10 29.5 98.5t70.5 204t73 195.5t36 80h4l217 -600h-352q-51 0 -64.5 3t-13.5 19z" />
<glyph unicode="&#xc4;" horiz-adv-x="1366" d="M-25 31q0 -35 15 -35h16q53 4 146 4q190 0 274 -4h12q25 0 25 33q0 16 -22.5 22t-108.5 6q-70 0 -88.5 21.5t-18.5 52.5q0 29 27 113t86 241q12 31 24.5 37t59.5 6h422q8 -20 35 -88q33 -82 49 -124t32.5 -84t27.5 -78.5t11 -51.5q0 -27 -23.5 -36t-84.5 -9 q-39 0 -62.5 -5t-23.5 -19q0 -37 10 -37h10q68 4 295 4q188 0 269 -4h16q12 0 17 12t5 27q0 10 -21.5 16t-39.5 6q-61 0 -96 21.5t-60 77.5q-39 92 -98 240.5t-120.5 309t-101.5 267t-134 362.5q-41 109 -45 121q-6 16 -12.5 20.5t-22.5 4.5q-20 0 -27.5 -3t-11.5 -16 q-135 -340 -253 -659.5t-228 -640.5q-18 -55 -45 -80t-60 -25q-76 0 -76 -26zM379 1794q0 -41 30.5 -71.5t69.5 -30.5q41 0 72 30.5t31 71.5q0 39 -31 69.5t-72 30.5q-39 0 -69.5 -30.5t-30.5 -69.5zM387 618q0 10 29.5 98.5t70.5 204t73 195.5t36 80h4l217 -600h-352 q-51 0 -64.5 3t-13.5 19zM786 1794q0 -41 31 -71.5t70 -30.5q41 0 71.5 30.5t30.5 71.5q0 39 -30.5 69.5t-71.5 30.5q-39 0 -70 -30.5t-31 -69.5z" />
<glyph unicode="&#xc5;" horiz-adv-x="1366" d="M-25 31q0 -35 15 -35h16q53 4 146 4q190 0 274 -4h12q25 0 25 33q0 16 -22.5 22t-108.5 6q-70 0 -88.5 21.5t-18.5 52.5q0 29 27 113t86 241q12 31 24.5 37t59.5 6h422q8 -20 35 -88q33 -82 49 -124t32.5 -84t27.5 -78.5t11 -51.5q0 -27 -23.5 -36t-84.5 -9 q-39 0 -62.5 -5t-23.5 -19q0 -37 10 -37h10q68 4 295 4q188 0 269 -4h16q12 0 17 12t5 27q0 10 -21.5 16t-39.5 6q-61 0 -96 21.5t-60 77.5q-39 92 -98 240.5t-120.5 309t-101.5 267t-134 362.5q-41 109 -45 121q-6 16 -12.5 20.5t-22.5 4.5q-20 0 -27.5 -3t-11.5 -16 q-135 -340 -253 -659.5t-228 -640.5q-18 -55 -45 -80t-60 -25q-76 0 -76 -26zM387 618q0 10 29.5 98.5t70.5 204t73 195.5t36 80h4l217 -600h-352q-51 0 -64.5 3t-13.5 19zM463 1767q0 -84 60.5 -143t148.5 -59q90 0 150.5 59t60.5 143q0 82 -61.5 141.5t-149.5 59.5 q-86 0 -147.5 -59.5t-61.5 -141.5zM537 1767q0 57 39.5 98.5t95.5 41.5q55 0 96 -41t41 -99q0 -57 -42 -99t-95 -42t-94 42t-41 99z" />
<glyph unicode="&#xc6;" horiz-adv-x="2048" d="M-25 23q0 -14 3.5 -20.5t17.5 -6.5h22q68 4 195 4q135 0 199 -4h20q14 0 18.5 8t4.5 23q0 14 -3 20t-14 6q-80 0 -123 11.5t-43 52.5q0 18 20.5 66t56.5 113.5t85 152t107 178.5q25 39 40 54t35 15h406v-225q0 -66 -2 -161t-4 -163q-2 -49 -34 -69.5t-142 -20.5 q-29 0 -36 -7t-7 -27q0 -27 16 -27h8q66 4 316 4h749q8 0 27.5 43t41 99.5t41 110.5t19.5 58q0 14 -33 15q-14 0 -26 -13q-8 -10 -33 -45q-31 -45 -53.5 -74.5t-49 -60.5t-54 -51.5t-50.5 -20.5h-391q-57 0 -78.5 24t-21.5 83v528h118q84 0 127 -6t70 -27.5t42 -66.5 t28 -133q4 -23 30 -23q12 0 19.5 3t7.5 14q0 18 -4 71q-6 100 -6 172v308q0 14 -39 14q-12 0 -20.5 -23.5t-24.5 -128.5q-2 -16 -10.5 -31.5t-33 -35t-72.5 -32.5t-126 -13h-106v491q0 66 7 92.5t34.5 39t83 15.5t194.5 3q104 0 158 -47q61 -51 101 -91t75 -77 q39 -43 53 -43q31 0 31 14q0 4 -14 49q-41 121 -76 240q-4 16 -78 16q-47 0 -223 -2q-334 -6 -434 -6q-174 0 -263.5 2t-134.5 6h-20q-16 0 -21.5 -8t-5.5 -29q0 -10 3 -17t16 -7q115 0 144.5 -10.5t29.5 -34.5q0 -12 -32 -69.5t-138 -237.5q-174 -299 -253 -436.5 t-245 -428.5q-27 -47 -47 -72.5t-39.5 -36t-40 -13.5t-57.5 -3q-35 0 -46.5 -7t-11.5 -27zM625 764q0 8 7 23.5t27 50.5l123 200q141 231 165 268t39 58.5t28 34.5h8v-641h-369q-29 0 -28 6z" />
<glyph unicode="&#xc7;" horiz-adv-x="1554" d="M94 684q0 -111 43 -234.5t135.5 -232t238.5 -177.5t341 -69q193 0 325 22.5t238 55.5q29 8 29 37q0 14 5 59t13 107q4 47 7.5 71.5t3.5 32.5q0 16 -6.5 20.5t-16.5 4.5q-27 0 -33 -16q-41 -90 -98 -157t-121.5 -107t-129 -58t-126.5 -18q-109 0 -216.5 42t-195.5 125.5 t-140 209.5t-52 290q0 176 50 315.5t134 232.5t184.5 139t198.5 46q190 0 301 -87t180 -265q6 -16 23 -16q12 0 25.5 7t13.5 19q0 6 -6 45q-14 88 -23.5 156t-9.5 127q0 12 -5 18.5t-9 6.5q-14 0 -35 -17q-25 -18 -45 -18q-16 0 -55 16q-70 27 -158 44.5t-250 17.5 q-147 0 -283.5 -55.5t-244 -159t-169 -252t-61.5 -328.5zM573 -408q90 -33 170 -32q37 0 75 4t81 19.5t72.5 52t29.5 96.5q0 70 -50 105.5t-122 35.5q-31 0 -59 -6l53 133h-71l-86 -203l14 -10q45 10 86 10q39 0 62.5 -21.5t23.5 -58.5q0 -45 -35 -65.5t-84 -20.5t-131 25z " />
<glyph unicode="&#xc8;" horiz-adv-x="1402" d="M53 1434q0 -18 4 -26.5t19 -8.5q125 0 161.5 -24.5t38.5 -112.5q0 -25 3 -52q2 -115 2 -237v-502q0 -66 -2.5 -161t-4.5 -163q-2 -49 -33.5 -69.5t-142.5 -20.5q-29 0 -36 -7t-7 -27q0 -27 17 -27h8q66 4 315 4h846q8 0 27.5 43t41 99.5t41 110.5t19.5 58q0 14 -33 15 q-14 0 -26 -13q-8 -10 -33 -45q-31 -45 -53.5 -74.5t-49 -60.5t-54 -51.5t-50.5 -20.5h-487q-57 0 -79 24t-22 83v528h150q84 0 127 -6t69.5 -27.5t42 -66.5t27.5 -133q4 -23 31 -23q12 0 19 3t7 14q0 18 -4 71q-6 100 -6 172v308q0 14 -39 14q-12 0 -20 -23.5t-25 -128.5 q-2 -16 -10 -31.5t-32.5 -35t-73 -32.5t-125.5 -13h-138v471q0 88 12.5 121.5t47.5 35.5q119 6 172 8.5t82.5 3.5t52.5 1q88 0 141 -47q61 -51 101.5 -91t74.5 -77q39 -43 54 -43q31 0 30 14q0 4 -14 49q-41 121 -76 240q-4 16 -78 16q-78 0 -266 -4q-326 -4 -422 -4 q-66 0 -140.5 2t-139.5 4q-41 2 -43 2q-18 0 -19 -26zM379 1933q0 -20 18.5 -40.5t40.5 -34.5l318 -199h80l-301 303q-14 16 -40 31.5t-44 15.5q-72 0 -72 -76z" />
<glyph unicode="&#xc9;" horiz-adv-x="1402" d="M53 1434q0 -18 4 -26.5t19 -8.5q125 0 161.5 -24.5t38.5 -112.5q0 -25 3 -52q2 -115 2 -237v-502q0 -66 -2.5 -161t-4.5 -163q-2 -49 -33.5 -69.5t-142.5 -20.5q-29 0 -36 -7t-7 -27q0 -27 17 -27h8q66 4 315 4h846q8 0 27.5 43t41 99.5t41 110.5t19.5 58q0 14 -33 15 q-14 0 -26 -13q-8 -10 -33 -45q-31 -45 -53.5 -74.5t-49 -60.5t-54 -51.5t-50.5 -20.5h-487q-57 0 -79 24t-22 83v528h150q84 0 127 -6t69.5 -27.5t42 -66.5t27.5 -133q4 -23 31 -23q12 0 19 3t7 14q0 18 -4 71q-6 100 -6 172v308q0 14 -39 14q-12 0 -20 -23.5t-25 -128.5 q-2 -16 -10 -31.5t-32.5 -35t-73 -32.5t-125.5 -13h-138v471q0 88 12.5 121.5t47.5 35.5q119 6 172 8.5t82.5 3.5t52.5 1q88 0 141 -47q61 -51 101.5 -91t74.5 -77q39 -43 54 -43q31 0 30 14q0 4 -14 49q-41 121 -76 240q-4 16 -78 16q-78 0 -266 -4q-326 -4 -422 -4 q-66 0 -140.5 2t-139.5 4q-41 2 -43 2q-18 0 -19 -26zM547 1659h80l317 199q23 14 41.5 34.5t18.5 40.5q0 76 -72 76q-18 0 -44 -15.5t-40 -31.5z" />
<glyph unicode="&#xca;" horiz-adv-x="1402" d="M53 1434q0 -18 4 -26.5t19 -8.5q125 0 161.5 -24.5t38.5 -112.5q0 -25 3 -52q2 -115 2 -237v-502q0 -66 -2.5 -161t-4.5 -163q-2 -49 -33.5 -69.5t-142.5 -20.5q-29 0 -36 -7t-7 -27q0 -27 17 -27h8q66 4 315 4h846q8 0 27.5 43t41 99.5t41 110.5t19.5 58q0 14 -33 15 q-14 0 -26 -13q-8 -10 -33 -45q-31 -45 -53.5 -74.5t-49 -60.5t-54 -51.5t-50.5 -20.5h-487q-57 0 -79 24t-22 83v528h150q84 0 127 -6t69.5 -27.5t42 -66.5t27.5 -133q4 -23 31 -23q12 0 19 3t7 14q0 18 -4 71q-6 100 -6 172v308q0 14 -39 14q-12 0 -20 -23.5t-25 -128.5 q-2 -16 -10 -31.5t-32.5 -35t-73 -32.5t-125.5 -13h-138v471q0 88 12.5 121.5t47.5 35.5q119 6 172 8.5t82.5 3.5t52.5 1q88 0 141 -47q61 -51 101.5 -91t74.5 -77q39 -43 54 -43q31 0 30 14q0 4 -14 49q-41 121 -76 240q-4 16 -78 16q-78 0 -266 -4q-326 -4 -422 -4 q-66 0 -140.5 2t-139.5 4q-41 2 -43 2q-18 0 -19 -26zM385 1661h68l249 211l248 -211h72l-256 340h-127z" />
<glyph unicode="&#xcb;" horiz-adv-x="1402" d="M53 1434q0 -18 4 -26.5t19 -8.5q125 0 161.5 -24.5t38.5 -112.5q0 -25 3 -52q2 -115 2 -237v-502q0 -66 -2.5 -161t-4.5 -163q-2 -49 -33.5 -69.5t-142.5 -20.5q-29 0 -36 -7t-7 -27q0 -27 17 -27h8q66 4 315 4h846q8 0 27.5 43t41 99.5t41 110.5t19.5 58q0 14 -33 15 q-14 0 -26 -13q-8 -10 -33 -45q-31 -45 -53.5 -74.5t-49 -60.5t-54 -51.5t-50.5 -20.5h-487q-57 0 -79 24t-22 83v528h150q84 0 127 -6t69.5 -27.5t42 -66.5t27.5 -133q4 -23 31 -23q12 0 19 3t7 14q0 18 -4 71q-6 100 -6 172v308q0 14 -39 14q-12 0 -20 -23.5t-25 -128.5 q-2 -16 -10 -31.5t-32.5 -35t-73 -32.5t-125.5 -13h-138v471q0 88 12.5 121.5t47.5 35.5q119 6 172 8.5t82.5 3.5t52.5 1q88 0 141 -47q61 -51 101.5 -91t74.5 -77q39 -43 54 -43q31 0 30 14q0 4 -14 49q-41 121 -76 240q-4 16 -78 16q-78 0 -266 -4q-326 -4 -422 -4 q-66 0 -140.5 2t-139.5 4q-41 2 -43 2q-18 0 -19 -26zM397 1794q0 -41 31 -71.5t70 -30.5q41 0 71.5 30.5t30.5 71.5q0 39 -30.5 69.5t-71.5 30.5q-39 0 -70 -30.5t-31 -69.5zM805 1794q0 -41 30.5 -71.5t69.5 -30.5q41 0 72 30.5t31 71.5q0 39 -31 69.5t-72 30.5 q-39 0 -69.5 -30.5t-30.5 -69.5z" />
<glyph unicode="&#xcc;" horiz-adv-x="757" d="M35 1434q0 -18 4 -26.5t18 -8.5q135 0 174 -23.5t41 -113.5q0 -25 2 -52q2 -115 2 -237v-502q0 -66 -2 -161t-4 -163q-2 -49 -33.5 -69.5t-142.5 -20.5q-39 0 -48 -7t-9 -27q0 -27 16 -27h8q66 4 316 4q252 0 317 -4h8q16 0 17 27q0 20 -9.5 27t-47.5 7q-111 0 -143 20.5 t-34 69.5q-2 68 -4 163.5t-2 160.5v502q0 123 2 237q2 27 2 52q2 90 41 113.5t174 23.5q14 0 18.5 8t4.5 27q0 27 -19 26q-2 0 -43 -2q-215 -6 -282 -6q-66 0 -140.5 2t-140.5 4q-41 2 -43 2q-18 0 -18 -26zM55 1933q0 -20 18.5 -40.5t41.5 -34.5l317 -199h80l-301 303 q-14 16 -40 31.5t-44 15.5q-72 0 -72 -76z" />
<glyph unicode="&#xcd;" horiz-adv-x="757" d="M35 1434q0 -18 4 -26.5t18 -8.5q135 0 174 -23.5t41 -113.5q0 -25 2 -52q2 -115 2 -237v-502q0 -66 -2 -161t-4 -163q-2 -49 -33.5 -69.5t-142.5 -20.5q-39 0 -48 -7t-9 -27q0 -27 16 -27h8q66 4 316 4q252 0 317 -4h8q16 0 17 27q0 20 -9.5 27t-47.5 7q-111 0 -143 20.5 t-34 69.5q-2 68 -4 163.5t-2 160.5v502q0 123 2 237q2 27 2 52q2 90 41 113.5t174 23.5q14 0 18.5 8t4.5 27q0 27 -19 26q-2 0 -43 -2q-215 -6 -282 -6q-66 0 -140.5 2t-140.5 4q-41 2 -43 2q-18 0 -18 -26zM264 1659h80l318 199q23 14 41 34.5t18 40.5q0 76 -72 76 q-18 0 -43.5 -15.5t-40.5 -31.5z" />
<glyph unicode="&#xce;" horiz-adv-x="757" d="M35 1434q0 -18 4 -26.5t18 -8.5q135 0 174 -23.5t41 -113.5q0 -25 2 -52q2 -115 2 -237v-502q0 -66 -2 -161t-4 -163q-2 -49 -33.5 -69.5t-142.5 -20.5q-39 0 -48 -7t-9 -27q0 -27 16 -27h8q66 4 316 4q252 0 317 -4h8q16 0 17 27q0 20 -9.5 27t-47.5 7q-111 0 -143 20.5 t-34 69.5q-2 68 -4 163.5t-2 160.5v502q0 123 2 237q2 27 2 52q2 90 41 113.5t174 23.5q14 0 18.5 8t4.5 27q0 27 -19 26q-2 0 -43 -2q-215 -6 -282 -6q-66 0 -140.5 2t-140.5 4q-41 2 -43 2q-18 0 -18 -26zM41 1661h68l249 211l248 -211h72l-256 340h-127z" />
<glyph unicode="&#xcf;" horiz-adv-x="757" d="M35 1434q0 -18 4 -26.5t18 -8.5q135 0 174 -23.5t41 -113.5q0 -25 2 -52q2 -115 2 -237v-502q0 -66 -2 -161t-4 -163q-2 -49 -33.5 -69.5t-142.5 -20.5q-39 0 -48 -7t-9 -27q0 -27 16 -27h8q66 4 316 4q252 0 317 -4h8q16 0 17 27q0 20 -9.5 27t-47.5 7q-111 0 -143 20.5 t-34 69.5q-2 68 -4 163.5t-2 160.5v502q0 123 2 237q2 27 2 52q2 90 41 113.5t174 23.5q14 0 18.5 8t4.5 27q0 27 -19 26q-2 0 -43 -2q-215 -6 -282 -6q-66 0 -140.5 2t-140.5 4q-41 2 -43 2q-18 0 -18 -26zM74 1794q0 -41 30.5 -71.5t69.5 -30.5q41 0 71.5 30.5t30.5 71.5 q0 39 -30.5 69.5t-71.5 30.5q-39 0 -69.5 -30.5t-30.5 -69.5zM481 1794q0 -41 31 -71.5t70 -30.5q41 0 71.5 30.5t30.5 71.5q0 39 -30.5 69.5t-71.5 30.5q-39 0 -70 -30.5t-31 -69.5z" />
<glyph unicode="&#xd0;" horiz-adv-x="1705" d="M31 733h250v-262q0 -66 -2.5 -161t-4.5 -163q-4 -90 -145 -90q-39 0 -48 -7t-9 -27q0 -27 16 -27h8q66 4 316 4q170 0 311 -4h63q174 0 326 62.5t250 152.5q106 100 163.5 241.5t57.5 309.5q0 158 -68.5 314.5t-203.5 246.5q-66 43 -130.5 70.5t-137 42t-159.5 19.5 t-212 5q-23 0 -97 -4q-104 -4 -163 -4q-66 0 -140.5 2t-140.5 4q-41 2 -43 2q-18 0 -18 -26q0 -18 4 -26.5t18 -8.5q113 0 147.5 -24.5t36.5 -112.5q0 -25 3 -52q2 -115 2 -237v-178h-250v-62zM483 154v579h336v62h-336v450q0 63 4.5 90t21.5 41.5t56 18.5t121 4 q113 0 209 -19.5t176 -70.5q45 -29 90 -75t85 -114.5t65.5 -163t27.5 -208.5q0 -162 -51 -292t-143 -219.5t-212 -134.5t-257 -45q-100 0 -146.5 21.5t-46.5 75.5z" />
<glyph unicode="&#xd1;" horiz-adv-x="1781" d="M10 1432q0 -33 19 -33h75q16 0 42 -16.5t52.5 -41t47 -48t26.5 -38.5q4 -8 4 -28.5v-59.5q0 -360 -8 -615t-16 -396v-9q-6 -53 -47 -71.5t-92 -18.5q-29 0 -61 -5t-32 -17q0 -39 21 -39h10q70 4 254 4q199 0 268 -4h13q20 0 20 31q0 18 -16.5 24t-87.5 6q-160 0 -160 101 q0 10 -2 65q-6 227 -6 455q0 117 4 352l2 176q346 -373 627 -680q109 -119 344 -379q100 -113 129.5 -144.5t36.5 -31.5q31 0 30 29q0 66 4.5 258.5t10.5 404t12 375.5t10 191q10 59 23.5 92t37 49t61.5 22.5t106 6.5q18 0 18 35q0 27 -16 26q-2 0 -68 -2q-47 -2 -112.5 -4 t-88.5 -2q-25 0 -103.5 2t-80.5 2q-104 4 -113 4q-23 0 -22 -33q0 -29 26 -28q78 0 122 -8.5t75 -39t45 -96t14 -182.5q0 -72 -1 -171t-4 -206.5t-7 -212t-8 -164.5q-229 236 -420.5 448t-427.5 482q-137 158 -174 199l-4 4q-6 8 -12 8q-16 0 -95 -4q-74 -4 -88 -4 q-16 0 -139 6q-49 2 -55 2q-23 0 -23 -28zM555 1677h61q4 43 30 71t67 28q27 0 62.5 -12.5t92.5 -37.5l4 -2q55 -23 91 -34t67 -11q82 0 130 65.5t67 156.5h-62q-4 -43 -29.5 -71t-66.5 -28q-27 0 -62.5 12.5t-93.5 36.5l-2 2q-57 23 -93 34t-66 11q-82 0 -130.5 -65.5 t-66.5 -155.5z" />
<glyph unicode="&#xd2;" horiz-adv-x="1705" d="M94 684q0 -111 43 -234.5t135.5 -232t238.5 -177.5t341 -69q197 0 343 69t238.5 179.5t135.5 235t43 239.5q0 193 -56.5 340.5t-159 246.5t-241.5 148.5t-303 49.5q-147 0 -283.5 -55.5t-244 -159t-169 -252t-61.5 -328.5zM338 723q0 92 16.5 201.5t67.5 226.5 t157.5 195.5t272.5 78.5q135 0 234.5 -64.5t162 -170t91 -226t28.5 -239.5q0 -121 -15.5 -233.5t-66.5 -220t-157.5 -177t-276.5 -69.5q-133 0 -232.5 65.5t-162 171t-91 226t-28.5 235.5zM530 1933q0 -20 18.5 -40.5t41.5 -34.5l317 -199h80l-301 303q-14 16 -39.5 31.5 t-44.5 15.5q-72 0 -72 -76z" />
<glyph unicode="&#xd3;" horiz-adv-x="1705" d="M94 684q0 -111 43 -234.5t135.5 -232t238.5 -177.5t341 -69q197 0 343 69t238.5 179.5t135.5 235t43 239.5q0 193 -56.5 340.5t-159 246.5t-241.5 148.5t-303 49.5q-147 0 -283.5 -55.5t-244 -159t-169 -252t-61.5 -328.5zM338 723q0 92 16.5 201.5t67.5 226.5 t157.5 195.5t272.5 78.5q135 0 234.5 -64.5t162 -170t91 -226t28.5 -239.5q0 -121 -15.5 -233.5t-66.5 -220t-157.5 -177t-276.5 -69.5q-133 0 -232.5 65.5t-162 171t-91 226t-28.5 235.5zM698 1659h80l318 199q23 14 41 34.5t18 40.5q0 76 -72 76q-18 0 -43.5 -15.5 t-40.5 -31.5z" />
<glyph unicode="&#xd4;" horiz-adv-x="1705" d="M94 684q0 -111 43 -234.5t135.5 -232t238.5 -177.5t341 -69q197 0 343 69t238.5 179.5t135.5 235t43 239.5q0 193 -56.5 340.5t-159 246.5t-241.5 148.5t-303 49.5q-147 0 -283.5 -55.5t-244 -159t-169 -252t-61.5 -328.5zM338 723q0 92 16.5 201.5t67.5 226.5 t157.5 195.5t272.5 78.5q135 0 234.5 -64.5t162 -170t91 -226t28.5 -239.5q0 -121 -15.5 -233.5t-66.5 -220t-157.5 -177t-276.5 -69.5q-133 0 -232.5 65.5t-162 171t-91 226t-28.5 235.5zM537 1661h67l250 211l248 -211h72l-256 340h-127z" />
<glyph unicode="&#xd5;" horiz-adv-x="1705" d="M94 684q0 -111 43 -234.5t135.5 -232t238.5 -177.5t341 -69q197 0 343 69t238.5 179.5t135.5 235t43 239.5q0 193 -56.5 340.5t-159 246.5t-241.5 148.5t-303 49.5q-147 0 -283.5 -55.5t-244 -159t-169 -252t-61.5 -328.5zM338 723q0 92 16.5 201.5t67.5 226.5 t157.5 195.5t272.5 78.5q135 0 234.5 -64.5t162 -170t91 -226t28.5 -239.5q0 -121 -15.5 -233.5t-66.5 -220t-157.5 -177t-276.5 -69.5q-133 0 -232.5 65.5t-162 171t-91 226t-28.5 235.5zM518 1677h62q4 43 29.5 71t66.5 28q27 0 62.5 -12.5t92.5 -37.5l5 -2q55 -23 91 -34 t66 -11q82 0 130 65.5t67 156.5h-62q-4 -43 -29.5 -71t-66.5 -28q-27 0 -62.5 12.5t-92.5 36.5l-3 2q-57 23 -93 34t-66 11q-82 0 -130 -65.5t-67 -155.5z" />
<glyph unicode="&#xd6;" horiz-adv-x="1705" d="M94 684q0 -111 43 -234.5t135.5 -232t238.5 -177.5t341 -69q197 0 343 69t238.5 179.5t135.5 235t43 239.5q0 193 -56.5 340.5t-159 246.5t-241.5 148.5t-303 49.5q-147 0 -283.5 -55.5t-244 -159t-169 -252t-61.5 -328.5zM338 723q0 92 16.5 201.5t67.5 226.5 t157.5 195.5t272.5 78.5q135 0 234.5 -64.5t162 -170t91 -226t28.5 -239.5q0 -121 -15.5 -233.5t-66.5 -220t-157.5 -177t-276.5 -69.5q-133 0 -232.5 65.5t-162 171t-91 226t-28.5 235.5zM549 1794q0 -41 30.5 -71.5t69.5 -30.5q41 0 72 30.5t31 71.5q0 39 -31 69.5 t-72 30.5q-39 0 -69.5 -30.5t-30.5 -69.5zM956 1794q0 -41 31 -71.5t70 -30.5q41 0 71.5 30.5t30.5 71.5q0 39 -30.5 69.5t-71.5 30.5q-39 0 -70 -30.5t-31 -69.5z" />
<glyph unicode="&#xd7;" d="M90 92l90 -92l350 354l351 -354l92 92l-350 350l348 355l-90 86l-349 -348l-350 348l-92 -88l350 -353z" />
<glyph unicode="&#xd8;" horiz-adv-x="1705" d="M80 18l61 -55l193 193q94 -86 224 -135.5t294 -49.5q197 0 343 69t238.5 179.5t135.5 235.5t43 239q0 346 -182 551l194 187l-65 55l-183 -187q-199 178 -524 179q-147 0 -283.5 -55.5t-244 -159t-169 -252t-61.5 -328.5q0 -115 47 -242t140 -231zM338 723 q0 92 16.5 201.5t67.5 226.5t157.5 195.5t272.5 78.5q137 0 237.5 -66.5t165.5 -180.5q-205 -209 -412.5 -418t-424.5 -418q-39 88 -59.5 188.5t-20.5 192.5zM453 274l211 211q248 248 386 386.5t238 236.5q41 -86 60.5 -186.5t19.5 -196.5q0 -121 -15.5 -233.5t-66.5 -220 t-157.5 -177t-276.5 -69.5q-135 0 -235.5 67.5t-163.5 181.5z" />
<glyph unicode="&#xd9;" horiz-adv-x="1705" d="M39 1434q0 -18 4 -26.5t18 -8.5q135 0 174 -23.5t41 -113.5q0 -25 3 -52q2 -115 2 -237v-469q0 -92 29.5 -184.5t97 -171t182.5 -128t278 -49.5q98 0 199.5 35t191 115t144.5 217t55 334v485q0 94 10.5 141.5t35 69t64.5 26.5t128 5q10 0 14 8t4 18q0 23 -6 29t-22 6 q-14 0 -89 -2q-74 -4 -111.5 -5t-66.5 -1q-61 0 -118.5 2t-116.5 4q-55 2 -66 2q-16 0 -16 -30q0 -31 16 -31q96 0 141.5 -6.5t75 -31t42 -82.5t12.5 -165v-405q0 -176 -35 -298t-95.5 -193t-140.5 -100.5t-176 -29.5q-123 0 -213 40t-143.5 110.5t-78 163t-24.5 200.5v371 q0 123 2 237q2 27 2 52q2 90 41 113.5t174 23.5q14 0 18.5 8t4.5 27q0 27 -18 26q-2 0 -43 -2q-215 -6 -283 -6q-66 0 -140.5 2t-140.5 4q-41 2 -43 2q-18 0 -18 -26zM530 1933q0 -20 18.5 -40.5t41.5 -34.5l317 -199h80l-301 303q-14 16 -39.5 31.5t-44.5 15.5 q-72 0 -72 -76z" />
<glyph unicode="&#xda;" horiz-adv-x="1705" d="M39 1434q0 -18 4 -26.5t18 -8.5q135 0 174 -23.5t41 -113.5q0 -25 3 -52q2 -115 2 -237v-469q0 -92 29.5 -184.5t97 -171t182.5 -128t278 -49.5q98 0 199.5 35t191 115t144.5 217t55 334v485q0 94 10.5 141.5t35 69t64.5 26.5t128 5q10 0 14 8t4 18q0 23 -6 29t-22 6 q-14 0 -89 -2q-74 -4 -111.5 -5t-66.5 -1q-61 0 -118.5 2t-116.5 4q-55 2 -66 2q-16 0 -16 -30q0 -31 16 -31q96 0 141.5 -6.5t75 -31t42 -82.5t12.5 -165v-405q0 -176 -35 -298t-95.5 -193t-140.5 -100.5t-176 -29.5q-123 0 -213 40t-143.5 110.5t-78 163t-24.5 200.5v371 q0 123 2 237q2 27 2 52q2 90 41 113.5t174 23.5q14 0 18.5 8t4.5 27q0 27 -18 26q-2 0 -43 -2q-215 -6 -283 -6q-66 0 -140.5 2t-140.5 4q-41 2 -43 2q-18 0 -18 -26zM780 1659h80l318 199q23 14 41 34.5t18 40.5q0 76 -72 76q-18 0 -43.5 -15.5t-40.5 -31.5z" />
<glyph unicode="&#xdb;" horiz-adv-x="1705" d="M39 1434q0 -18 4 -26.5t18 -8.5q135 0 174 -23.5t41 -113.5q0 -25 3 -52q2 -115 2 -237v-469q0 -92 29.5 -184.5t97 -171t182.5 -128t278 -49.5q98 0 199.5 35t191 115t144.5 217t55 334v485q0 94 10.5 141.5t35 69t64.5 26.5t128 5q10 0 14 8t4 18q0 23 -6 29t-22 6 q-14 0 -89 -2q-74 -4 -111.5 -5t-66.5 -1q-61 0 -118.5 2t-116.5 4q-55 2 -66 2q-16 0 -16 -30q0 -31 16 -31q96 0 141.5 -6.5t75 -31t42 -82.5t12.5 -165v-405q0 -176 -35 -298t-95.5 -193t-140.5 -100.5t-176 -29.5q-123 0 -213 40t-143.5 110.5t-78 163t-24.5 200.5v371 q0 123 2 237q2 27 2 52q2 90 41 113.5t174 23.5q14 0 18.5 8t4.5 27q0 27 -18 26q-2 0 -43 -2q-215 -6 -283 -6q-66 0 -140.5 2t-140.5 4q-41 2 -43 2q-18 0 -18 -26zM537 1661h67l250 211l248 -211h72l-256 340h-127z" />
<glyph unicode="&#xdc;" horiz-adv-x="1705" d="M39 1434q0 -18 4 -26.5t18 -8.5q135 0 174 -23.5t41 -113.5q0 -25 3 -52q2 -115 2 -237v-469q0 -92 29.5 -184.5t97 -171t182.5 -128t278 -49.5q98 0 199.5 35t191 115t144.5 217t55 334v485q0 94 10.5 141.5t35 69t64.5 26.5t128 5q10 0 14 8t4 18q0 23 -6 29t-22 6 q-14 0 -89 -2q-74 -4 -111.5 -5t-66.5 -1q-61 0 -118.5 2t-116.5 4q-55 2 -66 2q-16 0 -16 -30q0 -31 16 -31q96 0 141.5 -6.5t75 -31t42 -82.5t12.5 -165v-405q0 -176 -35 -298t-95.5 -193t-140.5 -100.5t-176 -29.5q-123 0 -213 40t-143.5 110.5t-78 163t-24.5 200.5v371 q0 123 2 237q2 27 2 52q2 90 41 113.5t174 23.5q14 0 18.5 8t4.5 27q0 27 -18 26q-2 0 -43 -2q-215 -6 -283 -6q-66 0 -140.5 2t-140.5 4q-41 2 -43 2q-18 0 -18 -26zM549 1794q0 -41 30.5 -71.5t69.5 -30.5q41 0 72 30.5t31 71.5q0 39 -31 69.5t-72 30.5q-39 0 -69.5 -30.5 t-30.5 -69.5zM956 1794q0 -41 31 -71.5t70 -30.5q41 0 71.5 30.5t30.5 71.5q0 39 -30.5 69.5t-71.5 30.5q-39 0 -70 -30.5t-31 -69.5z" />
<glyph unicode="&#xdd;" horiz-adv-x="1366" d="M-18 1432q0 -23 9 -28t50 -5q55 0 85 -12.5t54 -59.5l383 -725q10 -14 14.5 -40.5t4.5 -90.5q0 -66 -2 -161t-5 -163q-2 -49 -33.5 -69.5t-142.5 -20.5q-39 0 -48 -7t-9 -27q0 -27 16 -27h9q66 4 315 4q252 0 317 -4h9q16 0 16 27q0 20 -9 27t-48 7q-111 0 -142.5 20.5 t-33.5 69.5q-2 68 -4.5 163.5t-2.5 160.5q0 47 1 71.5t6.5 43t13.5 36t26 52.5l324 588q35 68 76 102.5t125 34.5q49 0 62.5 7t13.5 26q0 29 -27 28q-49 0 -162 -4q-76 -4 -92 -4q-8 0 -42 1t-83 3q-84 4 -94 4q-27 0 -27 -28q0 -20 14.5 -26.5t75.5 -6.5q53 0 72.5 -18.5 t19.5 -53.5q0 -14 -7 -36.5t-31.5 -74t-71.5 -140.5t-131 -245l-19 -36q-55 -102 -67 -103q-6 0 -12.5 8.5t-20.5 36.5q-12 23 -18 35q-90 170 -145.5 275.5t-84 165t-39 86t-10.5 36.5q0 63 113 64q35 0 43 5t8 26q0 20 -8 25t-33 5q-45 0 -139 -4t-140 -4q-43 0 -129 4 t-129 4q-18 0 -26 -5t-8 -23zM672 1659h80l317 199q23 14 41 34.5t18 40.5q0 76 -71 76q-18 0 -44 -15.5t-40 -31.5z" />
<glyph unicode="&#xde;" horiz-adv-x="1290" d="M41 23q0 -27 16 -27h9q66 4 315 4q256 0 362 -4h13q16 0 16 27q0 20 -9 27t-48 7q-84 0 -128 5.5t-66.5 20.5t-30 45t-7.5 89v213q23 0 80 -8q100 -12 168 -12q109 0 196 22.5t151.5 70.5t99 127t34.5 189q0 49 -18 100.5t-73.5 101.5t-166 83t-282.5 33q-51 0 -81 -2 t-48 -7q-12 -2 -21 -2q-20 0 -29.5 36t-9.5 100q0 88 41 112.5t178 24.5q14 0 18.5 8t4.5 27q0 27 -18 26q-2 0 -43 -2q-215 -6 -283 -6q-66 0 -132.5 2t-123.5 4q-35 2 -37 2q-18 0 -18 -26q0 -18 4 -26.5t18 -8.5q113 0 147.5 -24.5t36.5 -112.5q0 -25 3 -52 q2 -115 2 -237v-502q0 -66 -2.5 -161t-4.5 -163q-2 -49 -33.5 -69.5t-142.5 -20.5q-39 0 -48 -7t-9 -27zM483 524v451q0 68 38 84t118 16q162 0 257 -75.5t95 -200.5q0 -172 -105.5 -250t-285.5 -78q-70 0 -93.5 15.5t-23.5 37.5z" />
<glyph unicode="&#xdf;" horiz-adv-x="1099" d="M55 20q0 -16 4 -20t21 -4q27 0 65 2q72 2 142 2q33 0 94 -2t94 -2q25 0 25 24q0 8 -3 18.5t-8 10.5q-80 0 -101 19.5t-21 68.5v826q0 268 53 386.5t168 118.5q76 0 112.5 -48t36.5 -128q0 -61 -22.5 -108t-56 -77t-65.5 -45t-75 -32l-12 -4q-12 -6 -12 -27q0 -18 12 -24 q78 -45 141.5 -132t107.5 -194.5t66.5 -216t22.5 -194.5q0 -61 -12.5 -103.5t-32 -66t-40 -33.5t-38.5 -10q-39 0 -60.5 16t-21.5 51q0 20 8 32.5t25 25.5q18 16 27.5 30.5t9.5 42.5q0 35 -22.5 56.5t-45.5 21.5q-43 0 -74.5 -32.5t-31.5 -108.5q0 -86 50 -137.5t130 -51.5 q45 0 94 31t92 88t68.5 139t25.5 183q0 156 -67.5 296t-192.5 226q-53 37 -110 59q-23 10 -23 15q0 2 19 6q12 4 22 6q49 12 96 33.5t87 54.5t64.5 81t24.5 111q0 33 -12 71t-43 75t-89 60.5t-146 23.5q-133 0 -229.5 -79t-139.5 -210q-12 -39 -35 -129 q-29 -119 -55.5 -183.5t-79.5 -86.5l-8 -4q-23 -8 -23 -21q0 -29 19 -29q86 0 106.5 -12t20.5 -76v-462q0 -70 -5.5 -107t-16.5 -54.5t-31.5 -22.5t-61.5 -5q-20 0 -25.5 -5t-5.5 -24z" />
<glyph unicode="&#xe0;" horiz-adv-x="909" d="M74 643q0 -25 20.5 -50.5t65.5 -25.5q53 0 76.5 25.5t23.5 52.5q0 25 -16 64q-10 27 -11 39q0 8 16.5 24t40 31.5t48 27t41.5 11.5q49 0 110.5 -45t61.5 -117v-186q-145 -55 -238.5 -100.5t-141.5 -84.5t-65.5 -75.5t-17.5 -79.5q0 -27 9 -59t32 -60.5t61.5 -46 t94.5 -17.5q66 0 121 24.5t143 94.5q20 -66 41.5 -92.5t71.5 -26.5q25 0 60.5 15.5t67 36t54 42t22.5 29.5q0 6 -9 14.5t-17 8.5q-6 0 -25 -17q-39 -31 -63 -30q-35 0 -35 41v583q0 66 -27.5 112t-69.5 72.5t-84 39t-73 12.5q-20 0 -34.5 -2t-37 -12.5t-58.5 -31t-91 -57.5 q-59 -41 -92 -65.5t-49.5 -44t-21.5 -35.5t-5 -39zM131 1360q0 -20 18.5 -41t40.5 -35l318 -199h80l-301 304q-14 16 -40 31.5t-44 15.5q-72 0 -72 -76zM266 184q0 59 13.5 89t54.5 61q14 12 44 27.5t68.5 34t62 28.5t28.5 10q14 0 14 -20v-248q0 -12 -18.5 -31.5t-47 -37 t-61.5 -29t-62 -11.5q-49 0 -72.5 37t-23.5 90z" />
<glyph unicode="&#xe1;" horiz-adv-x="909" d="M74 643q0 -25 20.5 -50.5t65.5 -25.5q53 0 76.5 25.5t23.5 52.5q0 25 -16 64q-10 27 -11 39q0 8 16.5 24t40 31.5t48 27t41.5 11.5q49 0 110.5 -45t61.5 -117v-186q-145 -55 -238.5 -100.5t-141.5 -84.5t-65.5 -75.5t-17.5 -79.5q0 -27 9 -59t32 -60.5t61.5 -46 t94.5 -17.5q66 0 121 24.5t143 94.5q20 -66 41.5 -92.5t71.5 -26.5q25 0 60.5 15.5t67 36t54 42t22.5 29.5q0 6 -9 14.5t-17 8.5q-6 0 -25 -17q-39 -31 -63 -30q-35 0 -35 41v583q0 66 -27.5 112t-69.5 72.5t-84 39t-73 12.5q-20 0 -34.5 -2t-37 -12.5t-58.5 -31t-91 -57.5 q-59 -41 -92 -65.5t-49.5 -44t-21.5 -35.5t-5 -39zM266 184q0 59 13.5 89t54.5 61q14 12 44 27.5t68.5 34t62 28.5t28.5 10q14 0 14 -20v-248q0 -12 -18.5 -31.5t-47 -37t-61.5 -29t-62 -11.5q-49 0 -72.5 37t-23.5 90zM299 1085h80l317 199q23 14 41.5 34.5t18.5 41.5 q0 76 -72 76q-18 0 -44 -15.5t-40 -31.5z" />
<glyph unicode="&#xe2;" horiz-adv-x="909" d="M74 643q0 -25 20.5 -50.5t65.5 -25.5q53 0 76.5 25.5t23.5 52.5q0 25 -16 64q-10 27 -11 39q0 8 16.5 24t40 31.5t48 27t41.5 11.5q49 0 110.5 -45t61.5 -117v-186q-145 -55 -238.5 -100.5t-141.5 -84.5t-65.5 -75.5t-17.5 -79.5q0 -27 9 -59t32 -60.5t61.5 -46 t94.5 -17.5q66 0 121 24.5t143 94.5q20 -66 41.5 -92.5t71.5 -26.5q25 0 60.5 15.5t67 36t54 42t22.5 29.5q0 6 -9 14.5t-17 8.5q-6 0 -25 -17q-39 -31 -63 -30q-35 0 -35 41v583q0 66 -27.5 112t-69.5 72.5t-84 39t-73 12.5q-20 0 -34.5 -2t-37 -12.5t-58.5 -31t-91 -57.5 q-59 -41 -92 -65.5t-49.5 -44t-21.5 -35.5t-5 -39zM137 1087h68l250 211l247 -211h72l-256 340h-127zM266 184q0 59 13.5 89t54.5 61q14 12 44 27.5t68.5 34t62 28.5t28.5 10q14 0 14 -20v-248q0 -12 -18.5 -31.5t-47 -37t-61.5 -29t-62 -11.5q-49 0 -72.5 37t-23.5 90z" />
<glyph unicode="&#xe3;" horiz-adv-x="909" d="M74 643q0 -25 20.5 -50.5t65.5 -25.5q53 0 76.5 25.5t23.5 52.5q0 25 -16 64q-10 27 -11 39q0 8 16.5 24t40 31.5t48 27t41.5 11.5q49 0 110.5 -45t61.5 -117v-186q-145 -55 -238.5 -100.5t-141.5 -84.5t-65.5 -75.5t-17.5 -79.5q0 -27 9 -59t32 -60.5t61.5 -46 t94.5 -17.5q66 0 121 24.5t143 94.5q20 -66 41.5 -92.5t71.5 -26.5q25 0 60.5 15.5t67 36t54 42t22.5 29.5q0 6 -9 14.5t-17 8.5q-6 0 -25 -17q-39 -31 -63 -30q-35 0 -35 41v583q0 66 -27.5 112t-69.5 72.5t-84 39t-73 12.5q-20 0 -34.5 -2t-37 -12.5t-58.5 -31t-91 -57.5 q-59 -41 -92 -65.5t-49.5 -44t-21.5 -35.5t-5 -39zM119 1104h61q4 43 30 70.5t66 27.5q27 0 63 -12t93 -37l4 -2q55 -23 91 -34t67 -11q82 0 130 65.5t67 155.5h-62q-4 -43 -29.5 -70.5t-66.5 -27.5q-27 0 -62.5 12t-93.5 37l-2 2q-57 23 -93 34t-67 11q-82 0 -130 -65.5 t-66 -155.5zM266 184q0 59 13.5 89t54.5 61q14 12 44 27.5t68.5 34t62 28.5t28.5 10q14 0 14 -20v-248q0 -12 -18.5 -31.5t-47 -37t-61.5 -29t-62 -11.5q-49 0 -72.5 37t-23.5 90z" />
<glyph unicode="&#xe4;" horiz-adv-x="909" d="M74 643q0 -25 20.5 -50.5t65.5 -25.5q53 0 76.5 25.5t23.5 52.5q0 25 -16 64q-10 27 -11 39q0 8 16.5 24t40 31.5t48 27t41.5 11.5q49 0 110.5 -45t61.5 -117v-186q-145 -55 -238.5 -100.5t-141.5 -84.5t-65.5 -75.5t-17.5 -79.5q0 -27 9 -59t32 -60.5t61.5 -46 t94.5 -17.5q66 0 121 24.5t143 94.5q20 -66 41.5 -92.5t71.5 -26.5q25 0 60.5 15.5t67 36t54 42t22.5 29.5q0 6 -9 14.5t-17 8.5q-6 0 -25 -17q-39 -31 -63 -30q-35 0 -35 41v583q0 66 -27.5 112t-69.5 72.5t-84 39t-73 12.5q-20 0 -34.5 -2t-37 -12.5t-58.5 -31t-91 -57.5 q-59 -41 -92 -65.5t-49.5 -44t-21.5 -35.5t-5 -39zM150 1221q0 -41 30.5 -72t69.5 -31q41 0 71.5 31t30.5 72q0 39 -30.5 69.5t-71.5 30.5q-39 0 -69.5 -30.5t-30.5 -69.5zM266 184q0 59 13.5 89t54.5 61q14 12 44 27.5t68.5 34t62 28.5t28.5 10q14 0 14 -20v-248 q0 -12 -18.5 -31.5t-47 -37t-61.5 -29t-62 -11.5q-49 0 -72.5 37t-23.5 90zM557 1221q0 -41 30.5 -72t69.5 -31q41 0 72 31t31 72q0 39 -31 69.5t-72 30.5q-39 0 -69.5 -30.5t-30.5 -69.5z" />
<glyph unicode="&#xe5;" horiz-adv-x="909" d="M74 643q0 -25 20.5 -50.5t65.5 -25.5q53 0 76.5 25.5t23.5 52.5q0 25 -16 64q-10 27 -11 39q0 8 16.5 24t40 31.5t48 27t41.5 11.5q49 0 110.5 -45t61.5 -117v-186q-145 -55 -238.5 -100.5t-141.5 -84.5t-65.5 -75.5t-17.5 -79.5q0 -27 9 -59t32 -60.5t61.5 -46 t94.5 -17.5q66 0 121 24.5t143 94.5q20 -66 41.5 -92.5t71.5 -26.5q25 0 60.5 15.5t67 36t54 42t22.5 29.5q0 6 -9 14.5t-17 8.5q-6 0 -25 -17q-39 -31 -63 -30q-35 0 -35 41v583q0 66 -27.5 112t-69.5 72.5t-84 39t-73 12.5q-20 0 -34.5 -2t-37 -12.5t-58.5 -31t-91 -57.5 q-59 -41 -92 -65.5t-49.5 -44t-21.5 -35.5t-5 -39zM233 1235q0 -84 60.5 -143.5t148.5 -59.5q90 0 150.5 59.5t60.5 143.5q0 82 -61.5 141.5t-149.5 59.5q-86 0 -147.5 -59.5t-61.5 -141.5zM266 184q0 59 13.5 89t54.5 61q14 12 44 27.5t68.5 34t62 28.5t28.5 10 q14 0 14 -20v-248q0 -12 -18.5 -31.5t-47 -37t-61.5 -29t-62 -11.5q-49 0 -72.5 37t-23.5 90zM307 1235q0 57 40 98t95 41t96.5 -41t41.5 -98t-42.5 -99t-95.5 -42t-94 42t-41 99z" />
<glyph unicode="&#xe6;" horiz-adv-x="1327" d="M74 643q0 -25 20.5 -50.5t65.5 -25.5q53 0 76.5 25.5t23.5 52.5q0 25 -16 64q-10 27 -11 39q0 8 16.5 24t40 31.5t48 27t41.5 11.5q49 0 110.5 -45t61.5 -117v-186q-145 -55 -238.5 -100.5t-141.5 -84.5t-65.5 -75.5t-17.5 -79.5q0 -27 9 -59t32 -60.5t61.5 -46 t94.5 -17.5q74 0 135 32t139 93q14 10 33 25q57 -74 140 -112t179 -38q104 0 179 34t118 81t62.5 91t19.5 63q0 6 -11 10t-17 4q-8 0 -25 -25q-14 -25 -29.5 -43t-45 -37.5t-78 -32t-115.5 -12.5q-123 0 -187.5 60.5t-64.5 183.5v137l532 162q14 4 15 21q0 23 -16.5 65.5 t-52.5 87.5t-100.5 77t-156.5 32q-70 0 -137.5 -28t-120.5 -81q-35 47 -101.5 78t-115.5 31q-20 0 -34.5 -2t-37 -12.5t-58.5 -31t-91 -57.5q-59 -41 -92 -65.5t-49.5 -44t-21.5 -35.5t-5 -39zM266 184q0 59 13.5 89t54.5 61q14 12 44 27.5t68.5 34t62 28.5t28.5 10 q14 0 14 -20v-248q0 -12 -18.5 -31.5t-47 -37t-61.5 -29t-62 -11.5q-49 0 -72.5 37t-23.5 90zM717 543v157q0 86 53 127t125 41q76 0 126 -50t50 -130q0 -33 -16 -37z" />
<glyph unicode="&#xe7;" horiz-adv-x="909" d="M74 434q0 -213 119.5 -338t304.5 -125q205 0 358 174q16 16 16 31q0 10 -12 19.5t-18 9.5t-19 -15q-12 -14 -16 -18q-37 -31 -96.5 -58.5t-110.5 -27.5q-109 0 -180.5 38t-107.5 95t-48 112.5t-12 102.5q0 119 25.5 204t67.5 136t92 72.5t104 21.5q70 0 94 -28.5 t33 -67.5q18 -88 33.5 -110.5t62.5 -22.5q51 0 79.5 31.5t28.5 56.5q0 20 -14 52t-51 65t-103.5 55.5t-164.5 22.5q-203 0 -334 -132.5t-131 -355.5zM250 -408q90 -33 170 -32q37 0 74.5 4t80.5 19.5t73 52t30 96.5q0 70 -50 105.5t-122 35.5q-31 0 -60 -6l54 133h-72 l-86 -203l14 -10q45 10 86 10q39 0 62.5 -21.5t23.5 -58.5q0 -45 -34.5 -65.5t-83.5 -20.5t-131 25z" />
<glyph unicode="&#xe8;" horiz-adv-x="948" d="M86 438q0 -219 114.5 -343t331.5 -124q94 0 162 36t109 85t61.5 90t20.5 49q0 6 -11.5 15.5t-21.5 9.5q-8 0 -21 -20q-6 -8 -10 -15q-47 -68 -105.5 -95.5t-133.5 -27.5q-80 0 -143.5 33t-105.5 84t-64.5 109.5t-22.5 111.5q0 66 8 117h584q25 0 24 22q0 37 -12 92.5 t-49 116t-112 103.5t-193 43q-78 0 -152 -36t-132 -101.5t-92 -156.5t-34 -198zM213 1360q0 -20 18.5 -41t40.5 -35l318 -199h80l-301 304q-14 16 -40 31.5t-44 15.5q-72 0 -72 -76zM266 614q16 117 71.5 190t158.5 73q31 0 60.5 -8.5t57 -31t45 -60.5t17.5 -95 q0 -39 -17.5 -53.5t-52.5 -14.5h-340z" />
<glyph unicode="&#xe9;" horiz-adv-x="948" d="M86 438q0 -219 114.5 -343t331.5 -124q94 0 162 36t109 85t61.5 90t20.5 49q0 6 -11.5 15.5t-21.5 9.5q-8 0 -21 -20q-6 -8 -10 -15q-47 -68 -105.5 -95.5t-133.5 -27.5q-80 0 -143.5 33t-105.5 84t-64.5 109.5t-22.5 111.5q0 66 8 117h584q25 0 24 22q0 37 -12 92.5 t-49 116t-112 103.5t-193 43q-78 0 -152 -36t-132 -101.5t-92 -156.5t-34 -198zM266 614q16 117 71.5 190t158.5 73q31 0 60.5 -8.5t57 -31t45 -60.5t17.5 -95q0 -39 -17.5 -53.5t-52.5 -14.5h-340zM360 1085h80l318 199q23 14 41 34.5t18 41.5q0 76 -72 76 q-18 0 -43.5 -15.5t-39.5 -31.5z" />
<glyph unicode="&#xea;" horiz-adv-x="948" d="M86 438q0 -219 114.5 -343t331.5 -124q94 0 162 36t109 85t61.5 90t20.5 49q0 6 -11.5 15.5t-21.5 9.5q-8 0 -21 -20q-6 -8 -10 -15q-47 -68 -105.5 -95.5t-133.5 -27.5q-80 0 -143.5 33t-105.5 84t-64.5 109.5t-22.5 111.5q0 66 8 117h584q25 0 24 22q0 37 -12 92.5 t-49 116t-112 103.5t-193 43q-78 0 -152 -36t-132 -101.5t-92 -156.5t-34 -198zM178 1087h68l250 211l247 -211h72l-256 340h-127zM266 614q16 117 71.5 190t158.5 73q31 0 60.5 -8.5t57 -31t45 -60.5t17.5 -95q0 -39 -17.5 -53.5t-52.5 -14.5h-340z" />
<glyph unicode="&#xeb;" horiz-adv-x="948" d="M86 438q0 -219 114.5 -343t331.5 -124q94 0 162 36t109 85t61.5 90t20.5 49q0 6 -11.5 15.5t-21.5 9.5q-8 0 -21 -20q-6 -8 -10 -15q-47 -68 -105.5 -95.5t-133.5 -27.5q-80 0 -143.5 33t-105.5 84t-64.5 109.5t-22.5 111.5q0 66 8 117h584q25 0 24 22q0 37 -12 92.5 t-49 116t-112 103.5t-193 43q-78 0 -152 -36t-132 -101.5t-92 -156.5t-34 -198zM170 1221q0 -41 30.5 -72t69.5 -31q41 0 72 31t31 72q0 39 -31 69.5t-72 30.5q-39 0 -69.5 -30.5t-30.5 -69.5zM266 614q16 117 71.5 190t158.5 73q31 0 60.5 -8.5t57 -31t45 -60.5t17.5 -95 q0 -39 -17.5 -53.5t-52.5 -14.5h-340zM578 1221q0 -41 30.5 -72t69.5 -31q41 0 71.5 31t30.5 72q0 39 -30.5 69.5t-71.5 30.5q-39 0 -69.5 -30.5t-30.5 -69.5z" />
<glyph unicode="&#xec;" horiz-adv-x="569" d="M-39 1360q0 -20 18.5 -41t40.5 -35l318 -199h80l-301 304q-14 16 -40 31.5t-44 15.5q-72 0 -72 -76zM27 18q0 -10 3 -16t13 -6h35q100 4 241 4q98 0 160 -4h10q14 0 17.5 7t3.5 20q0 18 -7 22t-42 4q-66 0 -80 24.5t-14 116.5v443q0 143 3 205.5t7 83.5v6q0 23 -12 22 q-8 0 -27 -12q-39 -23 -95.5 -44.5t-164.5 -43.5q-16 -4 -17 -29q0 -23 19 -24q72 -6 96.5 -35t24.5 -88v-281q0 -106 -3 -194t-10 -101q-10 -25 -28.5 -37t-55.5 -12q-55 0 -66 -5t-11 -26z" />
<glyph unicode="&#xed;" horiz-adv-x="569" d="M27 18q0 -10 3 -16t13 -6h35q100 4 241 4q98 0 160 -4h10q14 0 17.5 7t3.5 20q0 18 -7 22t-42 4q-66 0 -80 24.5t-14 116.5v443q0 143 3 205.5t7 83.5v6q0 23 -12 22q-8 0 -27 -12q-39 -23 -95.5 -44.5t-164.5 -43.5q-16 -4 -17 -29q0 -23 19 -24q72 -6 96.5 -35 t24.5 -88v-281q0 -106 -3 -194t-10 -101q-10 -25 -28.5 -37t-55.5 -12q-55 0 -66 -5t-11 -26zM129 1085h80l317 199q23 14 41.5 34.5t18.5 41.5q0 76 -72 76q-18 0 -44 -15.5t-40 -31.5z" />
<glyph unicode="&#xee;" horiz-adv-x="569" d="M-33 1087h68l250 211l247 -211h72l-256 340h-127zM27 18q0 -10 3 -16t13 -6h35q100 4 241 4q98 0 160 -4h10q14 0 17.5 7t3.5 20q0 18 -7 22t-42 4q-66 0 -80 24.5t-14 116.5v443q0 143 3 205.5t7 83.5v6q0 23 -12 22q-8 0 -27 -12q-39 -23 -95.5 -44.5t-164.5 -43.5 q-16 -4 -17 -29q0 -23 19 -24q72 -6 96.5 -35t24.5 -88v-281q0 -106 -3 -194t-10 -101q-10 -25 -28.5 -37t-55.5 -12q-55 0 -66 -5t-11 -26z" />
<glyph unicode="&#xef;" horiz-adv-x="569" d="M-20 1221q0 -41 30.5 -72t69.5 -31q41 0 71.5 31t30.5 72q0 39 -30.5 69.5t-71.5 30.5q-39 0 -69.5 -30.5t-30.5 -69.5zM27 18q0 -10 3 -16t13 -6h35q100 4 241 4q98 0 160 -4h10q14 0 17.5 7t3.5 20q0 18 -7 22t-42 4q-66 0 -80 24.5t-14 116.5v443q0 143 3 205.5 t7 83.5v6q0 23 -12 22q-8 0 -27 -12q-39 -23 -95.5 -44.5t-164.5 -43.5q-16 -4 -17 -29q0 -23 19 -24q72 -6 96.5 -35t24.5 -88v-281q0 -106 -3 -194t-10 -101q-10 -25 -28.5 -37t-55.5 -12q-55 0 -66 -5t-11 -26zM387 1221q0 -41 30.5 -72t69.5 -31q41 0 72 31t31 72 q0 39 -31 69.5t-72 30.5q-39 0 -69.5 -30.5t-30.5 -69.5z" />
<glyph unicode="&#xf0;" horiz-adv-x="1099" d="M74 446q0 -100 34.5 -188t98 -152.5t151.5 -99.5t191 -35q78 0 162 36t155.5 109.5t115.5 187.5t44 259q0 236 -87 421t-237 310l281 197l-53 55l-291 -205q-94 63 -219 101.5t-205 38.5q-20 0 -20 -31q0 -4 36 -14q76 -18 155 -51t163 -107l-289 -205l53 -55l293 209 q80 -80 127 -176.5t60 -196.5l-5 -4q-39 27 -100 49.5t-139 22.5q-100 0 -187.5 -36t-152 -100.5t-100 -151.5t-35.5 -188zM268 446q0 80 14.5 155t47 135.5t88 96t131.5 35.5q78 0 132 -35.5t88 -96t48 -135.5t14 -155q0 -74 -11 -146.5t-41.5 -135t-87 -101t-142.5 -38.5 t-142.5 38.5t-86 101t-41 135.5t-11.5 146z" />
<glyph unicode="&#xf1;" horiz-adv-x="1138" d="M16 18q0 -10 3.5 -16t13.5 -6h35q100 4 241 4q109 0 170 -4h10q14 0 17.5 7t3.5 20q0 18 -9 22t-50 4q-66 0 -80.5 24.5t-14.5 116.5v525q4 8 23.5 24.5t50.5 32.5t63.5 26.5t59.5 10.5q78 0 124 -21.5t68.5 -62.5t29.5 -95.5t7 -137.5v-367q0 -49 -20.5 -62.5 t-95.5 -13.5q-16 0 -22.5 -9t-6.5 -20q0 -10 3 -17t11 -7h17q68 4 198 4q68 0 133 -2q51 -2 74 -2q18 0 23.5 7t5.5 20q0 14 -3 20t-18 6q-84 0 -108.5 19.5t-24.5 54.5v491q0 102 -29.5 166t-73.5 93.5t-86 39t-81 9.5q-74 0 -145.5 -36t-176.5 -106q0 70 4 131v17 q0 23 -6 22q-8 0 -26 -12q-39 -23 -95.5 -44.5t-164.5 -43.5q-16 -4 -17 -29q0 -23 19 -24q72 -6 96 -35t24 -88v-281q0 -106 -3 -194t-9 -101q-10 -25 -28.5 -37t-55.5 -12q-55 0 -66.5 -5t-11.5 -26zM233 1104h62q4 43 29.5 70.5t66.5 27.5q27 0 62.5 -12t93.5 -37l4 -2 q55 -23 91 -34t67 -11q82 0 130 65.5t66 155.5h-61q-4 -43 -30 -70.5t-66 -27.5q-27 0 -63 12t-93 37l-2 2q-57 23 -93 34t-67 11q-82 0 -130 -65.5t-67 -155.5z" />
<glyph unicode="&#xf2;" horiz-adv-x="1099" d="M74 446q0 -100 34.5 -188t98 -152.5t151.5 -99.5t191 -35q215 0 346 130t131 345q0 102 -36 189.5t-100.5 152t-151.5 99.5t-189 35q-100 0 -187.5 -36t-152 -100.5t-100 -151.5t-35.5 -188zM227 1360q0 -20 18.5 -41t41.5 -35l317 -199h80l-301 304q-14 16 -40 31.5 t-44 15.5q-72 0 -72 -76zM268 446q0 80 14.5 155t47 135.5t88 96t131.5 35.5q78 0 132 -35.5t88 -96t48 -135.5t14 -155q0 -74 -11 -146.5t-41.5 -135t-87 -101t-142.5 -38.5t-142.5 38.5t-86 101t-41 135.5t-11.5 146z" />
<glyph unicode="&#xf3;" horiz-adv-x="1099" d="M74 446q0 -100 34.5 -188t98 -152.5t151.5 -99.5t191 -35q215 0 346 130t131 345q0 102 -36 189.5t-100.5 152t-151.5 99.5t-189 35q-100 0 -187.5 -36t-152 -100.5t-100 -151.5t-35.5 -188zM268 446q0 80 14.5 155t47 135.5t88 96t131.5 35.5q78 0 132 -35.5t88 -96 t48 -135.5t14 -155q0 -74 -11 -146.5t-41.5 -135t-87 -101t-142.5 -38.5t-142.5 38.5t-86 101t-41 135.5t-11.5 146zM395 1085h80l318 199q23 14 41 34.5t18 41.5q0 76 -72 76q-18 0 -43.5 -15.5t-40.5 -31.5z" />
<glyph unicode="&#xf4;" horiz-adv-x="1099" d="M74 446q0 -100 34.5 -188t98 -152.5t151.5 -99.5t191 -35q215 0 346 130t131 345q0 102 -36 189.5t-100.5 152t-151.5 99.5t-189 35q-100 0 -187.5 -36t-152 -100.5t-100 -151.5t-35.5 -188zM233 1087h68l250 211l248 -211h71l-256 340h-127zM268 446q0 80 14.5 155 t47 135.5t88 96t131.5 35.5q78 0 132 -35.5t88 -96t48 -135.5t14 -155q0 -74 -11 -146.5t-41.5 -135t-87 -101t-142.5 -38.5t-142.5 38.5t-86 101t-41 135.5t-11.5 146z" />
<glyph unicode="&#xf5;" horiz-adv-x="1099" d="M74 446q0 -100 34.5 -188t98 -152.5t151.5 -99.5t191 -35q215 0 346 130t131 345q0 102 -36 189.5t-100.5 152t-151.5 99.5t-189 35q-100 0 -187.5 -36t-152 -100.5t-100 -151.5t-35.5 -188zM215 1104h61q4 43 30 70.5t67 27.5q27 0 62.5 -12t92.5 -37l4 -2 q55 -23 91 -34t67 -11q82 0 130 65.5t67 155.5h-62q-4 -43 -29.5 -70.5t-66.5 -27.5q-27 0 -62.5 12t-93.5 37l-2 2q-57 23 -93 34t-66 11q-82 0 -130.5 -65.5t-66.5 -155.5zM268 446q0 80 14.5 155t47 135.5t88 96t131.5 35.5q78 0 132 -35.5t88 -96t48 -135.5t14 -155 q0 -74 -11 -146.5t-41.5 -135t-87 -101t-142.5 -38.5t-142.5 38.5t-86 101t-41 135.5t-11.5 146z" />
<glyph unicode="&#xf6;" horiz-adv-x="1099" d="M74 446q0 -100 34.5 -188t98 -152.5t151.5 -99.5t191 -35q215 0 346 130t131 345q0 102 -36 189.5t-100.5 152t-151.5 99.5t-189 35q-100 0 -187.5 -36t-152 -100.5t-100 -151.5t-35.5 -188zM246 1221q0 -41 30.5 -72t69.5 -31q41 0 72 31t31 72q0 39 -31 69.5t-72 30.5 q-39 0 -69.5 -30.5t-30.5 -69.5zM268 446q0 80 14.5 155t47 135.5t88 96t131.5 35.5q78 0 132 -35.5t88 -96t48 -135.5t14 -155q0 -74 -11 -146.5t-41.5 -135t-87 -101t-142.5 -38.5t-142.5 38.5t-86 101t-41 135.5t-11.5 146zM653 1221q0 -41 31 -72t70 -31q41 0 71.5 31 t30.5 72q0 39 -30.5 69.5t-71.5 30.5q-39 0 -70 -30.5t-31 -69.5z" />
<glyph unicode="&#xf7;" d="M90 375h883v133h-883v-133zM424 106q0 -45 30.5 -75.5t77.5 -30.5t77 30.5t30 75.5t-29.5 77t-77.5 32q-47 0 -77.5 -31.5t-30.5 -77.5zM424 776q0 -45 30.5 -76.5t77.5 -31.5t77 31.5t30 76.5t-29.5 76t-77.5 31q-47 0 -77.5 -31t-30.5 -76z" />
<glyph unicode="&#xf8;" horiz-adv-x="1099" d="M53 16l47 -47l125 121q61 -57 144.5 -88t179.5 -31q215 0 346 130t131 345q0 90 -28.5 170t-79.5 140l129 123l-50 47l-123 -125q-133 121 -325 121q-100 0 -187.5 -36t-152 -100.5t-100 -151.5t-35.5 -188q0 -184 110 -313zM268 446q0 80 14.5 155t47 135.5t88 96 t131.5 35.5q84 0 142.5 -43t90.5 -118q-119 -123 -243.5 -244t-245.5 -234q-14 49 -19.5 102.5t-5.5 114.5zM317 178q90 86 242 234q174 167 248 237q25 -98 24 -203q0 -74 -11 -146.5t-41.5 -135t-87 -101t-142.5 -38.5q-88 0 -145.5 42t-86.5 111z" />
<glyph unicode="&#xf9;" horiz-adv-x="1099" d="M10 848q0 -14 13.5 -17.5t31.5 -3.5q45 0 67.5 -5t36 -23.5t18.5 -55t5 -108.5v-320q0 -170 58.5 -257t201.5 -87q63 0 147.5 30t158.5 83q0 -6 -3 -12q-4 -47 -4 -66q0 -29 25 -29q4 0 20 7q39 10 85.5 21t129.5 26q47 8 57.5 12t10.5 14q0 27 -2 33t-10 6q-6 0 -31 -2 q-41 -6 -57 -6q-35 0 -43 20.5t-8 55.5v385q0 74 5 153.5t11 137.5l2 20q0 29 -29 29t-78 -2q-49 -4 -77 -4q-59 0 -93 2t-55 2q-20 2 -31 2q-14 0 -14 -41q0 -14 15.5 -17.5t50.5 -3.5q82 0 104.5 -20.5t22.5 -101.5v-531q0 -23 -20.5 -43t-52.5 -34.5t-66.5 -22.5 t-63.5 -8q-109 0 -155 60t-46 181v553q0 20 -3 24.5t-13 4.5q-14 0 -51 -2q-80 -4 -127 -4q-45 0 -95 4q-20 2 -26 2q-14 0 -18.5 -11.5t-4.5 -29.5zM207 1360q0 -20 18.5 -41t40.5 -35l318 -199h80l-302 304q-14 16 -39.5 31.5t-43.5 15.5q-72 0 -72 -76z" />
<glyph unicode="&#xfa;" horiz-adv-x="1099" d="M10 848q0 -14 13.5 -17.5t31.5 -3.5q45 0 67.5 -5t36 -23.5t18.5 -55t5 -108.5v-320q0 -170 58.5 -257t201.5 -87q63 0 147.5 30t158.5 83q0 -6 -3 -12q-4 -47 -4 -66q0 -29 25 -29q4 0 20 7q39 10 85.5 21t129.5 26q47 8 57.5 12t10.5 14q0 27 -2 33t-10 6q-6 0 -31 -2 q-41 -6 -57 -6q-35 0 -43 20.5t-8 55.5v385q0 74 5 153.5t11 137.5l2 20q0 29 -29 29t-78 -2q-49 -4 -77 -4q-59 0 -93 2t-55 2q-20 2 -31 2q-14 0 -14 -41q0 -14 15.5 -17.5t50.5 -3.5q82 0 104.5 -20.5t22.5 -101.5v-531q0 -23 -20.5 -43t-52.5 -34.5t-66.5 -22.5 t-63.5 -8q-109 0 -155 60t-46 181v553q0 20 -3 24.5t-13 4.5q-14 0 -51 -2q-80 -4 -127 -4q-45 0 -95 4q-20 2 -26 2q-14 0 -18.5 -11.5t-4.5 -29.5zM395 1085h80l318 199q23 14 41 34.5t18 41.5q0 76 -72 76q-18 0 -43.5 -15.5t-40.5 -31.5z" />
<glyph unicode="&#xfb;" horiz-adv-x="1099" d="M10 848q0 -14 13.5 -17.5t31.5 -3.5q45 0 67.5 -5t36 -23.5t18.5 -55t5 -108.5v-320q0 -170 58.5 -257t201.5 -87q63 0 147.5 30t158.5 83q0 -6 -3 -12q-4 -47 -4 -66q0 -29 25 -29q4 0 20 7q39 10 85.5 21t129.5 26q47 8 57.5 12t10.5 14q0 27 -2 33t-10 6q-6 0 -31 -2 q-41 -6 -57 -6q-35 0 -43 20.5t-8 55.5v385q0 74 5 153.5t11 137.5l2 20q0 29 -29 29t-78 -2q-49 -4 -77 -4q-59 0 -93 2t-55 2q-20 2 -31 2q-14 0 -14 -41q0 -14 15.5 -17.5t50.5 -3.5q82 0 104.5 -20.5t22.5 -101.5v-531q0 -23 -20.5 -43t-52.5 -34.5t-66.5 -22.5 t-63.5 -8q-109 0 -155 60t-46 181v553q0 20 -3 24.5t-13 4.5q-14 0 -51 -2q-80 -4 -127 -4q-45 0 -95 4q-20 2 -26 2q-14 0 -18.5 -11.5t-4.5 -29.5zM233 1087h68l250 211l248 -211h71l-256 340h-127z" />
<glyph unicode="&#xfc;" horiz-adv-x="1099" d="M10 848q0 -14 13.5 -17.5t31.5 -3.5q45 0 67.5 -5t36 -23.5t18.5 -55t5 -108.5v-320q0 -170 58.5 -257t201.5 -87q63 0 147.5 30t158.5 83q0 -6 -3 -12q-4 -47 -4 -66q0 -29 25 -29q4 0 20 7q39 10 85.5 21t129.5 26q47 8 57.5 12t10.5 14q0 27 -2 33t-10 6q-6 0 -31 -2 q-41 -6 -57 -6q-35 0 -43 20.5t-8 55.5v385q0 74 5 153.5t11 137.5l2 20q0 29 -29 29t-78 -2q-49 -4 -77 -4q-59 0 -93 2t-55 2q-20 2 -31 2q-14 0 -14 -41q0 -14 15.5 -17.5t50.5 -3.5q82 0 104.5 -20.5t22.5 -101.5v-531q0 -23 -20.5 -43t-52.5 -34.5t-66.5 -22.5 t-63.5 -8q-109 0 -155 60t-46 181v553q0 20 -3 24.5t-13 4.5q-14 0 -51 -2q-80 -4 -127 -4q-45 0 -95 4q-20 2 -26 2q-14 0 -18.5 -11.5t-4.5 -29.5zM246 1221q0 -41 30.5 -72t69.5 -31q41 0 72 31t31 72q0 39 -31 69.5t-72 30.5q-39 0 -69.5 -30.5t-30.5 -69.5zM653 1221 q0 -41 31 -72t70 -31q41 0 71.5 31t30.5 72q0 39 -30.5 69.5t-71.5 30.5q-39 0 -70 -30.5t-31 -69.5z" />
<glyph unicode="&#xfd;" horiz-adv-x="985" d="M-41 862q0 -29 18 -28q45 0 90.5 -8.5t57.5 -39.5q16 -45 47 -147q37 -123 72 -226.5t92 -250.5l4 -12q31 -76 49.5 -131.5t18.5 -86.5q0 -35 -14.5 -84t-38 -98t-45 -79.5t-36.5 -30.5q-10 0 -32 12q-39 23 -70 22q-45 0 -82 -32.5t-37 -77.5q0 -49 33 -85t82 -36 q31 0 56.5 12.5t59 53t78 128t99.5 228.5q8 18 30.5 69.5t46 103.5t67.5 146.5t75 159.5q158 344 182 399q23 51 48.5 68.5t80.5 22.5q35 2 35 26q0 10 -2 18.5t-12 8.5q-31 0 -94 -2t-97 -2q-33 0 -98 2q-68 2 -100 2q-18 0 -19 -27q0 -27 21 -26q70 0 113.5 -12.5 t43.5 -57.5q0 -23 -26.5 -93.5t-66.5 -161.5t-85 -184.5t-86 -179.5q-106 274 -154.5 424t-48.5 219q0 16 12.5 25.5t30 13.5t33 5.5t25.5 1.5q20 0 20 26q0 27 -24 27q-29 0 -95 -2q-72 -2 -108 -2q-47 0 -166 2q-57 2 -61 2q-23 0 -23 -25zM338 1085h80l317 199 q23 14 41.5 34.5t18.5 41.5q0 76 -72 76q-18 0 -44 -15.5t-40 -31.5z" />
<glyph unicode="&#xfe;" horiz-adv-x="1099" d="M35 -512q0 -25 20 -25q31 0 105 2q80 4 123 5q90 0 192 -7h27q20 0 20 31q0 23 -10 23q-66 0 -98.5 4t-47 16t-17.5 31.5t-3 64.5v373q18 -4 35 -10q45 -12 82 -18.5t108 -6.5q227 0 341 126t114 349q0 88 -24.5 172t-73.5 152t-123 108t-168 40q-78 0 -137.5 -28 t-141.5 -87l-12 -8v434q0 143 3 205.5t7 83.5v6q0 23 -12 22q-6 0 -43 -14q-57 -25 -112.5 -43.5t-129.5 -30.5q-16 -4 -16 -28q0 -20 18 -25q45 -4 68 -13.5t34 -30t14 -57t3 -112.5v-1563q0 -76 -18.5 -94t-108.5 -18q-18 0 -18 -29zM346 182v494q0 31 18.5 60.5t50 52 t67.5 36t71 13.5q82 0 137 -43t86 -113t43 -147.5t12 -153.5q0 -63 -12 -124.5t-39.5 -115t-76 -85t-117.5 -31.5q-121 0 -180.5 48t-59.5 109z" />
<glyph unicode="&#xff;" horiz-adv-x="985" d="M-41 862q0 -29 18 -28q45 0 90.5 -8.5t57.5 -39.5q16 -45 47 -147q37 -123 72 -226.5t92 -250.5l4 -12q31 -76 49.5 -131.5t18.5 -86.5q0 -35 -14.5 -84t-38 -98t-45 -79.5t-36.5 -30.5q-10 0 -32 12q-39 23 -70 22q-45 0 -82 -32.5t-37 -77.5q0 -49 33 -85t82 -36 q31 0 56.5 12.5t59 53t78 128t99.5 228.5q8 18 30.5 69.5t46 103.5t67.5 146.5t75 159.5q158 344 182 399q23 51 48.5 68.5t80.5 22.5q35 2 35 26q0 10 -2 18.5t-12 8.5q-31 0 -94 -2t-97 -2q-33 0 -98 2q-68 2 -100 2q-18 0 -19 -27q0 -27 21 -26q70 0 113.5 -12.5 t43.5 -57.5q0 -23 -26.5 -93.5t-66.5 -161.5t-85 -184.5t-86 -179.5q-106 274 -154.5 424t-48.5 219q0 16 12.5 25.5t30 13.5t33 5.5t25.5 1.5q20 0 20 26q0 27 -24 27q-29 0 -95 -2q-72 -2 -108 -2q-47 0 -166 2q-57 2 -61 2q-23 0 -23 -25zM229 1221q0 -41 31 -72t70 -31 q41 0 71.5 31t30.5 72q0 39 -30.5 69.5t-71.5 30.5q-39 0 -70 -30.5t-31 -69.5zM637 1221q0 -41 30.5 -72t69.5 -31q41 0 72 31t31 72q0 39 -31 69.5t-72 30.5q-39 0 -69.5 -30.5t-30.5 -69.5z" />
<glyph unicode="&#x152;" horiz-adv-x="2314" d="M94 684q0 -100 44 -223t135.5 -234.5t232.5 -183.5t325 -72q35 0 95.5 5.5t95.5 9.5q25 4 49.5 7t52.5 5q49 2 197 2h831q8 0 28 43t41.5 99.5t40.5 110.5t19 58q0 14 -32 15q-14 0 -27 -13q-8 -10 -33 -45q-31 -45 -53 -74.5t-49 -60.5t-54.5 -51.5t-50.5 -20.5h-473 q-57 0 -78.5 24t-21.5 83v528h150q84 0 127 -6t69.5 -27.5t41.5 -66.5t28 -133q4 -23 30 -23q12 0 19.5 3t7.5 14q0 18 -4 71q-6 100 -6 172v308q0 14 -39 14q-12 0 -20.5 -23.5t-24.5 -128.5q-2 -16 -10.5 -31.5t-33 -35t-72.5 -32.5t-126 -13h-137v491q0 66 7 92.5t35 39 t83 15.5t195 3q76 0 118.5 -12.5t69.5 -34.5q61 -51 101 -91t75 -77q39 -43 53 -43q31 0 31 14q0 4 -14 49q-41 121 -76 240q-4 16 -78 16q-78 0 -266 -4q-326 -4 -422 -4t-183 6t-177 15q-90 8 -115 8q-143 0 -279.5 -55.5t-243 -160t-168 -253t-61.5 -328.5zM338 707 q0 348 131 530t379 182q180 0 269 -77.5t89 -194.5v-856q0 -72 -34.5 -123t-89 -81t-113 -42t-107.5 -12q-106 0 -200.5 45t-168 133t-114.5 214t-41 282z" />
<glyph unicode="&#x153;" horiz-adv-x="1630" d="M74 446q0 -92 33.5 -178t96 -153.5t146.5 -105.5t180 -38q92 0 177.5 40t160.5 108q129 -145 371 -148q94 0 161.5 36t108.5 85t61.5 90t20.5 49q0 6 -11 15.5t-21 9.5q-8 0 -21 -20q-6 -8 -10 -15q-47 -68 -105.5 -95.5t-134.5 -27.5q-80 0 -143.5 33t-105.5 84 t-64.5 109.5t-22.5 111.5q0 66 9 117h583q25 0 25 22q0 37 -12.5 92.5t-49.5 116t-111.5 103.5t-193.5 43q-98 0 -181 -47t-138 -125q-72 82 -158 123t-195 41q-92 0 -175 -36t-146.5 -100.5t-99 -152.5t-35.5 -187zM268 428q0 78 10.5 151.5t39 140t81 107.5t131.5 41 q80 0 132.5 -41t81 -106.5t39 -137t10.5 -145.5q0 -76 -13.5 -147.5t-43 -132t-81 -97t-125.5 -36.5q-72 0 -124 35.5t-81.5 96t-43 130t-13.5 141.5zM973 614q16 117 71.5 190t157.5 73q31 0 60.5 -8.5t57.5 -31t45 -60.5t17 -95q0 -39 -17 -53.5t-52 -14.5h-340z" />
<glyph unicode="&#x178;" horiz-adv-x="1366" d="M-18 1432q0 -23 9 -28t50 -5q55 0 85 -12.5t54 -59.5l383 -725q10 -14 14.5 -40.5t4.5 -90.5q0 -66 -2 -161t-5 -163q-2 -49 -33.5 -69.5t-142.5 -20.5q-39 0 -48 -7t-9 -27q0 -27 16 -27h9q66 4 315 4q252 0 317 -4h9q16 0 16 27q0 20 -9 27t-48 7q-111 0 -142.5 20.5 t-33.5 69.5q-2 68 -4.5 163.5t-2.5 160.5q0 47 1 71.5t6.5 43t13.5 36t26 52.5l324 588q35 68 76 102.5t125 34.5q49 0 62.5 7t13.5 26q0 29 -27 28q-49 0 -162 -4q-76 -4 -92 -4q-8 0 -42 1t-83 3q-84 4 -94 4q-27 0 -27 -28q0 -20 14.5 -26.5t75.5 -6.5q53 0 72.5 -18.5 t19.5 -53.5q0 -14 -7 -36.5t-31.5 -74t-71.5 -140.5t-131 -245l-19 -36q-55 -102 -67 -103q-6 0 -12.5 8.5t-20.5 36.5q-12 23 -18 35q-90 170 -145.5 275.5t-84 165t-39 86t-10.5 36.5q0 63 113 64q35 0 43 5t8 26q0 20 -8 25t-33 5q-45 0 -139 -4t-140 -4q-43 0 -129 4 t-129 4q-18 0 -26 -5t-8 -23zM440 1794q0 -41 31 -71.5t70 -30.5q41 0 71.5 30.5t30.5 71.5q0 39 -30.5 69.5t-71.5 30.5q-39 0 -70 -30.5t-31 -69.5zM848 1794q0 -41 30.5 -71.5t69.5 -30.5q41 0 72 30.5t31 71.5q0 39 -31 69.5t-72 30.5q-39 0 -69.5 -30.5t-30.5 -69.5z " />
<glyph unicode="&#x2c6;" horiz-adv-x="569" d="M-33 1087h68l250 211l247 -211h72l-256 340h-127z" />
<glyph unicode="&#x2dc;" horiz-adv-x="569" d="M-51 1104h61q4 43 30 70.5t66 27.5q27 0 63 -12t93 -37l4 -2q55 -23 91 -34t67 -11q82 0 130 65.5t67 155.5h-62q-4 -43 -29.5 -70.5t-66.5 -27.5q-27 0 -62.5 12t-93.5 37l-2 2q-57 23 -93 34t-67 11q-82 0 -130 -65.5t-66 -155.5z" />
<glyph unicode="&#x2000;" horiz-adv-x="1004" />
<glyph unicode="&#x2001;" horiz-adv-x="2009" />
<glyph unicode="&#x2002;" horiz-adv-x="1004" />
<glyph unicode="&#x2003;" horiz-adv-x="2009" />
<glyph unicode="&#x2004;" horiz-adv-x="669" />
<glyph unicode="&#x2005;" horiz-adv-x="502" />
<glyph unicode="&#x2006;" horiz-adv-x="334" />
<glyph unicode="&#x2007;" horiz-adv-x="334" />
<glyph unicode="&#x2008;" horiz-adv-x="251" />
<glyph unicode="&#x2009;" horiz-adv-x="401" />
<glyph unicode="&#x200a;" horiz-adv-x="111" />
<glyph unicode="&#x2010;" horiz-adv-x="796" d="M94 471q0 -35 4 -50t23 -15h551q23 0 26.5 10t3.5 47q0 47 -4 61.5t-22 14.5h-557q-16 0 -20.5 -18.5t-4.5 -49.5z" />
<glyph unicode="&#x2011;" horiz-adv-x="796" d="M94 471q0 -35 4 -50t23 -15h551q23 0 26.5 10t3.5 47q0 47 -4 61.5t-22 14.5h-557q-16 0 -20.5 -18.5t-4.5 -49.5z" />
<glyph unicode="&#x2012;" horiz-adv-x="796" d="M94 471q0 -35 4 -50t23 -15h551q23 0 26.5 10t3.5 47q0 47 -4 61.5t-22 14.5h-557q-16 0 -20.5 -18.5t-4.5 -49.5z" />
<glyph unicode="&#x2013;" horiz-adv-x="1024" d="M0 418h1024v106h-1024v-106z" />
<glyph unicode="&#x2014;" horiz-adv-x="2048" d="M0 418h2048v106h-2048v-106z" />
<glyph unicode="&#x2018;" horiz-adv-x="530" d="M111 1081q0 -84 42 -144t123 -60q49 0 86 34.5t37 83.5t-24.5 85t-77.5 36q-12 0 -29 -6q-12 -4 -22 -4q-16 0 -20.5 20.5t-4.5 44.5q0 47 29 108.5t63 92.5q2 2 21 19q33 27 50 42t17 21q0 25 -20 27q-27 0 -70 -29t-67 -53q-133 -133 -133 -318z" />
<glyph unicode="&#x2019;" horiz-adv-x="530" d="M129 903q0 -25 21 -26q27 0 69.5 28.5t67.5 52.5q133 133 133 318q0 84 -42 144.5t-124 60.5q-49 0 -86 -35t-37 -84t24.5 -85t77.5 -36q12 0 29 6q12 4 23 4q16 0 20 -20.5t4 -44.5q0 -47 -28.5 -108.5t-63.5 -92.5q-2 -2 -20 -18q-33 -27 -50.5 -42.5t-17.5 -21.5z" />
<glyph unicode="&#x201a;" horiz-adv-x="530" d="M129 -350q0 -25 21 -27q27 0 69.5 29t67.5 53q133 133 133 318q0 84 -42 144t-124 60q-49 0 -86 -34.5t-37 -83.5t24.5 -85t77.5 -36q12 0 29 6q12 4 23 4q16 0 20 -20.5t4 -45.5q0 -47 -28.5 -108.5t-63.5 -91.5q-2 -2 -20 -19q-33 -27 -50.5 -42t-17.5 -21z" />
<glyph unicode="&#x201c;" horiz-adv-x="909" d="M92 1081q0 -84 42 -144t124 -60q49 0 86 34.5t37 83.5t-24.5 85t-77.5 36q-12 0 -29 -6q-12 -4 -23 -4q-16 0 -20 20.5t-4 44.5q0 47 28.5 108.5t63.5 92.5q2 2 20 19q33 27 50.5 42t17.5 21q0 25 -21 27q-27 0 -69.5 -29t-67.5 -53q-133 -133 -133 -318zM494 1081 q0 -84 42 -144t123 -60q49 0 86 34.5t37 83.5t-24.5 85t-77.5 36q-12 0 -29 -6q-12 -4 -22 -4q-16 0 -20.5 20.5t-4.5 44.5q0 47 29 108.5t63 92.5q2 2 21 19q33 27 50 42t17 21q0 25 -20 27q-27 0 -70 -29t-67 -53q-133 -133 -133 -318z" />
<glyph unicode="&#x201d;" horiz-adv-x="909" d="M125 903q0 -25 20 -26q27 0 70 28.5t68 52.5q133 133 133 318q0 84 -42 144.5t-124 60.5q-49 0 -86 -35t-37 -84t24.5 -85t77.5 -36q12 0 29 6q12 4 23 4q16 0 20 -20.5t4 -44.5q0 -47 -28.5 -108.5t-63.5 -92.5q-2 -2 -20 -18q-33 -27 -50.5 -42.5t-17.5 -21.5zM526 903 q0 -25 21 -26q27 0 69.5 28.5t67.5 52.5q133 133 133 318q0 84 -42 144.5t-124 60.5q-49 0 -86 -35t-37 -84t25 -85t78 -36q12 0 28 6q12 4 23 4q16 0 20.5 -20.5t4.5 -44.5q0 -47 -29 -108.5t-64 -92.5q-2 -2 -20 -18q-33 -27 -50.5 -42.5t-17.5 -21.5z" />
<glyph unicode="&#x201e;" horiz-adv-x="909" d="M125 -350q0 -25 20 -27q27 0 70 29t68 53q133 133 133 318q0 84 -42 144t-124 60q-49 0 -86 -34.5t-37 -83.5t24.5 -85t77.5 -36q12 0 29 6q12 4 23 4q16 0 20 -20.5t4 -45.5q0 -47 -28.5 -108.5t-63.5 -91.5q-2 -2 -20 -19q-33 -27 -50.5 -42t-17.5 -21zM526 -350 q0 -25 21 -27q27 0 69.5 29t67.5 53q133 133 133 318q0 84 -42 144t-124 60q-49 0 -86 -34.5t-37 -83.5t25 -85t78 -36q12 0 28 6q12 4 23 4q16 0 20.5 -20.5t4.5 -45.5q0 -47 -29 -108.5t-64 -91.5q-2 -2 -20 -19q-33 -27 -50.5 -42t-17.5 -21z" />
<glyph unicode="&#x2022;" d="M186 791q0 -70 27 -133.5t74 -111.5t110.5 -75t132.5 -27q72 0 134.5 27t110.5 75t75 111.5t27 133.5t-27 133t-75 110t-111.5 74t-133.5 27t-133 -27t-110 -74t-74 -110.5t-27 -132.5z" />
<glyph unicode="&#x2026;" horiz-adv-x="2048" d="M217 109q0 -53 36 -89t89 -36q55 0 90 36t35 89t-35 88.5t-90 35.5q-53 0 -89 -35.5t-36 -88.5zM899 109q0 -53 36 -89t89 -36q55 0 90 36t35 89t-35 88.5t-90 35.5q-53 0 -89 -35.5t-36 -88.5zM1581 109q0 -53 36 -89t89 -36q55 0 90 36t35 89t-35 88.5t-90 35.5 q-53 0 -89 -35.5t-36 -88.5z" />
<glyph unicode="&#x202f;" horiz-adv-x="401" />
<glyph unicode="&#x2039;" horiz-adv-x="681" d="M33 471q0 -8 51 -33q39 -18 61 -30q141 -78 224.5 -140.5t150.5 -126.5q47 -43 62 -43q8 0 17 7.5t9 13.5q0 18 -32.5 61t-84 96.5t-113 105.5t-118.5 89q39 25 98.5 73t118 104.5t95 102.5t36.5 66q0 8 -9 14.5t-17 6.5q-2 0 -21 -17q-59 -55 -152.5 -123.5 t-263.5 -162.5q-23 -12 -61 -31q-51 -25 -51 -33z" />
<glyph unicode="&#x203a;" horiz-adv-x="681" d="M74 125q0 -6 9 -13.5t17 -7.5q2 0 21 17q59 55 152.5 123.5t263.5 163.5q23 12 61 30q51 25 51 33t-51 33q-39 18 -61 31q-141 80 -224.5 142t-150.5 124q-47 43 -62 43q-8 0 -17 -6.5t-9 -14.5q0 -18 32.5 -61t84 -96.5t113 -104.5t118.5 -90q-39 -25 -98.5 -73 t-118 -104t-95 -102.5t-36.5 -66.5z" />
<glyph unicode="&#x205f;" horiz-adv-x="502" />
<glyph unicode="&#x2122;" horiz-adv-x="2048" d="M92 1257h47q0 84 33 113t123 29h92v-627q0 -63 -19.5 -77.5t-109.5 -14.5v-47h391v47q-90 0 -109.5 14.5t-19.5 77.5v627h92q90 0 123 -29t33 -113h47v203h-723v-203zM930 633h260v47q-72 2 -87.5 15.5t-15.5 54.5v616h5l307 -733h18l301 733h4v-590q0 -63 -18 -78.5 t-88 -17.5v-47h340v47q-68 4 -84.5 19.5t-16.5 78.5v565q0 74 58 74h43v43h-254l-256 -600l-254 600h-246v-43h31q55 0 55 -74v-593q0 -41 -15.5 -54.5t-86.5 -15.5v-47z" />
<glyph unicode="&#x25fc;" horiz-adv-x="890" d="M0 0v891h891v-891h-891z" />
</font>
</defs>
</svg>
